<svg version="1.1" viewBox="200.0 0.0 700.0 760.0" fill="none" stroke="none" stroke-linecap="square" stroke-miterlimit="10" xmlns:xlink="http://www.w3.org/1999/xlink" xmlns="http://www.w3.org/2000/svg"><clipPath id="p.0"><path d="m0 0l1280.0 0l0 960.0l-1280.0 0l0 -960.0z" clip-rule="nonzero"/></clipPath><g clip-path="url(#p.0)"><path fill="#000000" fill-opacity="0.0" d="m0 0l1280.0 0l0 960.0l-1280.0 0z" fill-rule="evenodd"/><path fill="#f8f9fa" d="m333.1662 354.2839l0 0c0 -23.552551 19.41745 -42.64566 43.370087 -42.64566l0 0c11.502472 0 22.533813 4.4930115 30.667267 12.490601c8.133484 7.9976196 12.70282 18.844727 12.70282 30.15506l0 0c0 23.552551 -19.41745 42.64566 -43.370087 42.64566l0 0c-23.952637 0 -43.370087 -19.09311 -43.370087 -42.64566z" fill-rule="evenodd"/><path stroke="#000000" stroke-width="2.0" stroke-linejoin="round" stroke-linecap="butt" d="m333.1662 354.2839l0 0c0 -23.552551 19.41745 -42.64566 43.370087 -42.64566l0 0c11.502472 0 22.533813 4.4930115 30.667267 12.490601c8.133484 7.9976196 12.70282 18.844727 12.70282 30.15506l0 0c0 23.552551 -19.41745 42.64566 -43.370087 42.64566l0 0c-23.952637 0 -43.370087 -19.09311 -43.370087 -42.64566z" fill-rule="evenodd"/><path fill="#f8f9fa" d="m269.69638 706.9648l0 0c0 -23.552551 19.41745 -42.64569 43.370087 -42.64569l0 0c11.502472 0 22.533813 4.493042 30.667297 12.490662c8.133453 7.9976196 12.702789 18.844666 12.702789 30.15503l0 0c0 23.552551 -19.41745 42.64569 -43.370087 42.64569l0 0c-23.952637 0 -43.370087 -19.09314 -43.370087 -42.64569z" fill-rule="evenodd"/><path stroke="#000000" stroke-width="2.0" stroke-linejoin="round" stroke-linecap="butt" d="m269.69638 706.9648l0 0c0 -23.552551 19.41745 -42.64569 43.370087 -42.64569l0 0c11.502472 0 22.533813 4.493042 30.667297 12.490662c8.133453 7.9976196 12.702789 18.844666 12.702789 30.15503l0 0c0 23.552551 -19.41745 42.64569 -43.370087 42.64569l0 0c-23.952637 0 -43.370087 -19.09314 -43.370087 -42.64569z" fill-rule="evenodd"/><path fill="#f8f9fa" d="m315.86102 584.1251l0 0c0 -23.552612 19.41745 -42.64569 43.370087 -42.64569l0 0c11.502472 0 22.533813 4.492981 30.667267 12.490601c8.133484 7.9976196 12.70282 18.844727 12.70282 30.15509l0 0c0 23.552551 -19.41745 42.64563 -43.370087 42.64563l0 0c-23.952637 0 -43.370087 -19.093079 -43.370087 -42.64563z" fill-rule="evenodd"/><path stroke="#000000" stroke-width="2.0" stroke-linejoin="round" stroke-linecap="butt" d="m315.86102 584.1251l0 0c0 -23.552612 19.41745 -42.64569 43.370087 -42.64569l0 0c11.502472 0 22.533813 4.492981 30.667267 12.490601c8.133484 7.9976196 12.70282 18.844727 12.70282 30.15509l0 0c0 23.552551 -19.41745 42.64563 -43.370087 42.64563l0 0c-23.952637 0 -43.370087 -19.093079 -43.370087 -42.64563z" fill-rule="evenodd"/><path fill="#f8f9fa" d="m300.23428 121.12472l0 0c0 -23.552551 19.41742 -42.645668 43.370056 -42.645668l0 0c11.502472 0 22.533813 4.4930115 30.667297 12.490631c8.133453 7.997612 12.702789 18.844704 12.702789 30.155037l0 0c0 23.552559 -19.41745 42.645668 -43.370087 42.645668l0 0c-23.952637 0 -43.370056 -19.09311 -43.370056 -42.645668z" fill-rule="evenodd"/><path stroke="#000000" stroke-width="2.0" stroke-linejoin="round" stroke-linecap="butt" d="m300.23428 121.12472l0 0c0 -23.552551 19.41742 -42.645668 43.370056 -42.645668l0 0c11.502472 0 22.533813 4.4930115 30.667297 12.490631c8.133453 7.997612 12.702789 18.844704 12.702789 30.155037l0 0c0 23.552559 -19.41745 42.645668 -43.370087 42.645668l0 0c-23.952637 0 -43.370056 -19.09311 -43.370056 -42.645668z" fill-rule="evenodd"/><path fill="#f8f9fa" d="m764.6601 686.8869l0 0c0 -23.552612 19.41748 -42.64569 43.370117 -42.64569l0 0c11.502441 0 22.533813 4.492981 30.667236 12.490601c8.133484 7.9976196 12.70282 18.844727 12.70282 30.15509l0 0c0 23.552551 -19.41742 42.64563 -43.370056 42.64563l0 0c-23.952637 0 -43.370117 -19.093079 -43.370117 -42.64563z" fill-rule="evenodd"/><path stroke="#000000" stroke-width="2.0" stroke-linejoin="round" stroke-linecap="butt" d="m764.6601 686.8869l0 0c0 -23.552612 19.41748 -42.64569 43.370117 -42.64569l0 0c11.502441 0 22.533813 4.492981 30.667236 12.490601c8.133484 7.9976196 12.70282 18.844727 12.70282 30.15509l0 0c0 23.552551 -19.41742 42.64563 -43.370056 42.64563l0 0c-23.952637 0 -43.370117 -19.093079 -43.370117 -42.64563z" fill-rule="evenodd"/><path fill="#f8f9fa" d="m269.6955 461.28522l0 0c0 -23.552551 19.41745 -42.64566 43.370087 -42.64566l0 0c11.502472 0 22.533813 4.4930115 30.667297 12.490631c8.133453 7.9976196 12.702789 18.844696 12.702789 30.15503l0 0c0 23.552551 -19.41745 42.64569 -43.370087 42.64569l0 0c-23.952637 0 -43.370087 -19.09314 -43.370087 -42.64569z" fill-rule="evenodd"/><path stroke="#000000" stroke-width="2.0" stroke-linejoin="round" stroke-linecap="butt" d="m269.6955 461.28522l0 0c0 -23.552551 19.41745 -42.64566 43.370087 -42.64566l0 0c11.502472 0 22.533813 4.4930115 30.667297 12.490631c8.133453 7.9976196 12.702789 18.844696 12.702789 30.15503l0 0c0 23.552551 -19.41745 42.64569 -43.370087 42.64569l0 0c-23.952637 0 -43.370087 -19.09314 -43.370087 -42.64569z" fill-rule="evenodd"/><path fill="#f8f9fa" d="m770.74927 344.32382l0 0c0 -23.552551 19.41748 -42.64566 43.370056 -42.64566l0 0c11.502502 0 22.533813 4.4930115 30.667297 12.490631c8.133484 7.9976196 12.70282 18.844696 12.70282 30.15503l0 0c0 23.552551 -19.41748 42.64569 -43.370117 42.64569l0 0c-23.952576 0 -43.370056 -19.09314 -43.370056 -42.64569z" fill-rule="evenodd"/><path stroke="#000000" stroke-width="2.0" stroke-linejoin="round" stroke-linecap="butt" d="m770.74927 344.32382l0 0c0 -23.552551 19.41748 -42.64566 43.370056 -42.64566l0 0c11.502502 0 22.533813 4.4930115 30.667297 12.490631c8.133484 7.9976196 12.70282 18.844696 12.70282 30.15503l0 0c0 23.552551 -19.41748 42.64569 -43.370117 42.64569l0 0c-23.952576 0 -43.370056 -19.09314 -43.370056 -42.64569z" fill-rule="evenodd"/><path fill="#f8f9fa" d="m283.28384 242.43988l0 0c0 -23.552551 19.41742 -42.64566 43.370056 -42.64566l0 0c11.502472 0 22.533813 4.4930115 30.667297 12.490616c8.133453 7.9976196 12.702789 18.844711 12.702789 30.155045l0 0c0 23.552551 -19.41745 42.64566 -43.370087 42.64566l0 0c-23.952637 0 -43.370056 -19.09311 -43.370056 -42.64566z" fill-rule="evenodd"/><path stroke="#000000" stroke-width="2.0" stroke-linejoin="round" stroke-linecap="butt" d="m283.28384 242.43988l0 0c0 -23.552551 19.41742 -42.64566 43.370056 -42.64566l0 0c11.502472 0 22.533813 4.4930115 30.667297 12.490616c8.133453 7.9976196 12.702789 18.844711 12.702789 30.155045l0 0c0 23.552551 -19.41745 42.64566 -43.370087 42.64566l0 0c-23.952637 0 -43.370056 -19.09311 -43.370056 -42.64566z" fill-rule="evenodd"/><path fill="#f8f9fa" d="m799.2764 506.0818l0 0c0 -23.552551 19.41748 -42.64566 43.370117 -42.64566l0 0c11.502441 0 22.533752 4.4930115 30.667236 12.490631c8.133484 7.9976196 12.70282 18.844696 12.70282 30.15503l0 0c0 23.552551 -19.41748 42.64569 -43.370056 42.64569l0 0c-23.952637 0 -43.370117 -19.09314 -43.370117 -42.64569z" fill-rule="evenodd"/><path stroke="#000000" stroke-width="2.0" stroke-linejoin="round" stroke-linecap="butt" d="m799.2764 506.0818l0 0c0 -23.552551 19.41748 -42.64566 43.370117 -42.64566l0 0c11.502441 0 22.533752 4.4930115 30.667236 12.490631c8.133484 7.9976196 12.70282 18.844696 12.70282 30.15503l0 0c0 23.552551 -19.41748 42.64569 -43.370056 42.64569l0 0c-23.952637 0 -43.370117 -19.09314 -43.370117 -42.64569z" fill-rule="evenodd"/><path fill="#f8f9fa" d="m788.0767 194.27034l0 0c0 -23.552551 19.41742 -42.645676 43.370056 -42.645676l0 0c11.502502 0 22.533813 4.4930267 30.667297 12.490631c8.133484 7.9976196 12.70282 18.844711 12.70282 30.155045l0 0c0 23.552551 -19.41748 42.645676 -43.370117 42.645676l0 0c-23.952637 0 -43.370056 -19.093124 -43.370056 -42.645676z" fill-rule="evenodd"/><path stroke="#000000" stroke-width="2.0" stroke-linejoin="round" stroke-linecap="butt" d="m788.0767 194.27034l0 0c0 -23.552551 19.41742 -42.645676 43.370056 -42.645676l0 0c11.502502 0 22.533813 4.4930267 30.667297 12.490631c8.133484 7.9976196 12.70282 18.844711 12.70282 30.155045l0 0c0 23.552551 -19.41748 42.645676 -43.370117 42.645676l0 0c-23.952637 0 -43.370056 -19.093124 -43.370056 -42.645676z" fill-rule="evenodd"/><path fill="#000000" fill-opacity="0.0" d="m386.97443 121.12472l401.10236 73.13386" fill-rule="evenodd"/><path stroke="#000000" stroke-width="2.0" stroke-linejoin="round" stroke-linecap="butt" d="m386.9744 121.124725l389.29703 70.98135" fill-rule="evenodd"/><path fill="#000000" stroke="#000000" stroke-width="2.0" stroke-linecap="butt" d="m775.67883 195.35596l9.521545 -1.6218414l-8.336426 -4.8779297z" fill-rule="evenodd"/><path fill="#000000" fill-opacity="0.0" d="m386.97443 121.12472l383.77954 223.21259" fill-rule="evenodd"/><path stroke="#000000" stroke-width="2.0" stroke-linejoin="round" stroke-linecap="butt" d="m386.9744 121.124725l373.4064 217.17944" fill-rule="evenodd"/><path fill="#000000" stroke="#000000" stroke-width="2.0" stroke-linecap="butt" d="m758.72 341.15976l9.506531 1.7075806l-6.1848145 -7.4187927z" fill-rule="evenodd"/><path fill="#000000" fill-opacity="0.0" d="m370.024 242.43988l418.04724 -48.15747" fill-rule="evenodd"/><path stroke="#000000" stroke-width="2.0" stroke-linejoin="round" stroke-linecap="butt" d="m370.024 242.43988l406.12604 -46.78421" fill-rule="evenodd"/><path fill="#000000" stroke="#000000" stroke-width="2.0" stroke-linecap="butt" d="m776.5281 198.93744l8.63855 -4.3204346l-9.394653 -2.2430878z" fill-rule="evenodd"/><path fill="#000000" fill-opacity="0.0" d="m356.4418 457.9873l442.83463 48.094482" fill-rule="evenodd"/><path stroke="#000000" stroke-width="2.0" stroke-linejoin="round" stroke-linecap="butt" d="m356.4418 457.98734l430.90475 46.79883" fill-rule="evenodd"/><path fill="#000000" stroke="#000000" stroke-width="2.0" stroke-linecap="butt" d="m786.98987 508.0703l9.379822 -2.3041687l-8.666443 -4.2641296z" fill-rule="evenodd"/><path fill="#000000" fill-opacity="0.0" d="m402.6012 584.1251l396.66144 -78.04727" fill-rule="evenodd"/><path stroke="#000000" stroke-width="2.0" stroke-linejoin="round" stroke-linecap="butt" d="m402.60117 584.12506l384.88718 -75.7305" fill-rule="evenodd"/><path fill="#000000" stroke="#000000" stroke-width="2.0" stroke-linecap="butt" d="m788.12616 511.63586l8.2677 -4.993561l-9.543213 -1.4890747z" fill-rule="evenodd"/><path fill="#000000" fill-opacity="0.0" d="m356.43655 706.9648l442.83463 -200.8819" fill-rule="evenodd"/><path stroke="#000000" stroke-width="2.0" stroke-linejoin="round" stroke-linecap="butt" d="m356.43655 706.9648l431.90646 -195.92459" fill-rule="evenodd"/><path fill="#000000" stroke="#000000" stroke-width="2.0" stroke-linecap="butt" d="m789.7077 514.0486l6.900818 -6.757843l-9.630249 0.74105835z" fill-rule="evenodd"/><path fill="#000000" fill-opacity="0.0" d="m356.43655 706.9648l408.2205 -20.062988" fill-rule="evenodd"/><path stroke="#000000" stroke-width="2.0" stroke-linejoin="round" stroke-linecap="butt" d="m356.43655 706.9648l396.2349 -19.473938" fill-rule="evenodd"/><path fill="#000000" stroke="#000000" stroke-width="2.0" stroke-linecap="butt" d="m752.8336 690.79034l8.903076 -3.7450562l-9.227417 -2.8539429z" fill-rule="evenodd"/><path fill="#000000" fill-opacity="0.0" d="m419.90637 354.2839l379.37006 151.811" fill-rule="evenodd"/><path stroke="#000000" stroke-width="2.0" stroke-linejoin="round" stroke-linecap="butt" d="m419.90637 354.2839l368.22894 147.35275" fill-rule="evenodd"/><path fill="#000000" stroke="#000000" stroke-width="2.0" stroke-linecap="butt" d="m786.908 504.70367l9.65387 0.30499268l-7.1992188 -6.439026z" fill-rule="evenodd"/><path fill="#000000" fill-opacity="0.0" d="m419.90637 354.2839l368.15747 -160.0" fill-rule="evenodd"/><path stroke="#000000" stroke-width="2.0" stroke-linejoin="round" stroke-linecap="butt" d="m419.90637 354.2839l357.15186 -155.21701" fill-rule="evenodd"/><path fill="#000000" stroke="#000000" stroke-width="2.0" stroke-linecap="butt" d="m778.37494 202.0966l7.0073853 -6.6473236l-9.640808 0.5878906z" fill-rule="evenodd"/><path fill="#000000" fill-opacity="0.0" d="m256.67453 14.251968l130.29922 0l0 42.015747l-130.29922 0z" fill-rule="evenodd"/><path fill="#000000" d="m283.89166 29.156342q-0.96875 0 -1.765625 0.375q-0.78125 0.359375 -1.34375 1.0625q-0.5625 0.6875 -0.875 1.6875q-0.296875 0.984375 -0.296875 2.234375q0 1.28125 0.265625 2.28125q0.265625 1.0 0.796875 1.6875q0.546875 0.671875 1.34375 1.03125q0.8125 0.359375 1.875 0.359375q0.8125 0 1.53125 -0.15625q0.734375 -0.171875 1.453125 -0.375l0 1.46875q-0.359375 0.140625 -0.71875 0.25q-0.34375 0.09375 -0.734375 0.15625q-0.390625 0.078125 -0.828125 0.109375q-0.4375 0.03125 -0.984375 0.03125q-1.484375 0 -2.578125 -0.484375q-1.09375 -0.5 -1.8125 -1.40625q-0.71875 -0.90625 -1.0625 -2.171875q-0.34375 -1.265625 -0.34375 -2.796875q0 -1.515625 0.390625 -2.765625q0.40625 -1.265625 1.171875 -2.15625q0.765625 -0.90625 1.90625 -1.40625q1.140625 -0.515625 2.609375 -0.515625q0.984375 0 1.875 0.203125q0.90625 0.203125 1.625 0.59375l-0.71875 1.40625q-0.578125 -0.28125 -1.25 -0.484375q-0.671875 -0.21875 -1.53125 -0.21875zm12.093994 12.015625l-0.25 -1.34375l-0.09375 0q-0.21875 0.390625 -0.53125 0.6875q-0.3125 0.28125 -0.6875 0.46875q-0.375 0.1875 -0.796875 0.28125q-0.421875 0.09375 -0.859375 0.09375q-0.828125 0 -1.453125 -0.203125q-0.625 -0.21875 -1.046875 -0.65625q-0.421875 -0.453125 -0.640625 -1.140625q-0.203125 -0.703125 -0.203125 -1.65625l0 -6.53125l1.65625 0l0 6.4375q0 1.1875 0.484375 1.78125q0.484375 0.59375 1.484375 0.59375q0.734375 0 1.234375 -0.234375q0.515625 -0.25 0.8125 -0.703125q0.3125 -0.46875 0.4375 -1.140625q0.140625 -0.671875 0.140625 -1.546875l0 -5.1875l1.65625 0l0 10.0l-1.34375 0zm10.486053 -2.734375q0 0.71875 -0.265625 1.265625q-0.25 0.546875 -0.75 0.921875q-0.5 0.359375 -1.203125 0.546875q-0.703125 0.1875 -1.578125 0.1875q-0.984375 0 -1.703125 -0.171875q-0.703125 -0.15625 -1.25 -0.46875l0 -1.5q0.296875 0.140625 0.640625 0.28125q0.34375 0.140625 0.71875 0.25q0.390625 0.109375 0.796875 0.1875q0.40625 0.0625 0.796875 0.0625q0.59375 0 1.0 -0.09375q0.421875 -0.109375 0.6875 -0.296875q0.265625 -0.1875 0.375 -0.453125q0.125 -0.265625 0.125 -0.59375q0 -0.28125 -0.09375 -0.515625q-0.09375 -0.234375 -0.34375 -0.453125q-0.234375 -0.21875 -0.65625 -0.4375q-0.40625 -0.234375 -1.0625 -0.515625q-0.65625 -0.28125 -1.1875 -0.546875q-0.515625 -0.28125 -0.890625 -0.625q-0.359375 -0.34375 -0.5625 -0.78125q-0.1875 -0.4375 -0.1875 -1.046875q0 -0.640625 0.25 -1.140625q0.25 -0.5 0.703125 -0.828125q0.453125 -0.34375 1.09375 -0.515625q0.640625 -0.171875 1.421875 -0.171875q0.875 0 1.609375 0.203125q0.734375 0.1875 1.390625 0.5l-0.5625 1.328125q-0.59375 -0.265625 -1.21875 -0.453125q-0.625 -0.203125 -1.28125 -0.203125q-0.921875 0 -1.375 0.3125q-0.4375 0.296875 -0.4375 0.859375q0 0.328125 0.09375 0.5625q0.109375 0.234375 0.359375 0.453125q0.265625 0.203125 0.6875 0.421875q0.4375 0.203125 1.0625 0.46875q0.65625 0.28125 1.171875 0.5625q0.515625 0.265625 0.875 0.609375q0.375 0.328125 0.5625 0.765625q0.1875 0.4375 0.1875 1.0625zm5.4640503 1.5625q0.15625 0 0.359375 -0.015625q0.21875 -0.03125 0.40625 -0.046875q0.1875 -0.03125 0.34375 -0.0625q0.171875 -0.046875 0.25 -0.0625l0 1.25q-0.125 0.0625 -0.3125 0.109375q-0.171875 0.046875 -0.390625 0.09375q-0.21875 0.046875 -0.453125 0.0625q-0.234375 0.03125 -0.46875 0.03125q-0.5625 0 -1.046875 -0.15625q-0.484375 -0.140625 -0.84375 -0.484375q-0.34375 -0.359375 -0.546875 -0.96875q-0.1875 -0.609375 -0.1875 -1.53125l0 -5.796875l-1.421875 0l0 -0.734375l1.421875 -0.71875l0.703125 -2.09375l0.953125 0l0 2.296875l2.515625 0l0 1.25l-2.515625 0l0 5.796875q0 0.890625 0.28125 1.34375q0.296875 0.4375 0.953125 0.4375zm11.446991 -3.84375q0 1.25 -0.3125 2.21875q-0.296875 0.96875 -0.875 1.625q-0.5625 0.65625 -1.375 1.015625q-0.796875 0.34375 -1.8125 0.34375q-0.9375 0 -1.734375 -0.34375q-0.796875 -0.359375 -1.375 -1.015625q-0.578125 -0.65625 -0.90625 -1.625q-0.3125 -0.96875 -0.3125 -2.21875q0 -1.25 0.296875 -2.203125q0.3125 -0.96875 0.875 -1.625q0.5625 -0.65625 1.375 -1.0q0.828125 -0.34375 1.828125 -0.34375q0.9375 0 1.734375 0.34375q0.796875 0.34375 1.375 1.0q0.578125 0.65625 0.890625 1.625q0.328125 0.953125 0.328125 2.203125zm-7.0 0q0 1.90625 0.625 2.875q0.625 0.953125 2.03125 0.953125q1.40625 0 2.015625 -0.953125q0.625 -0.96875 0.625 -2.875q0 -1.90625 -0.625 -2.84375q-0.625 -0.953125 -2.03125 -0.953125q-1.40625 0 -2.03125 0.953125q-0.609375 0.9375 -0.609375 2.84375zm21.59555 5.015625l0 -6.4375q0 -1.1875 -0.453125 -1.78125q-0.453125 -0.59375 -1.40625 -0.59375q-0.671875 0 -1.140625 0.21875q-0.453125 0.21875 -0.75 0.640625q-0.296875 0.40625 -0.4375 1.015625q-0.140625 0.609375 -0.140625 1.421875l0 5.515625l-1.671875 0l0 -6.4375q0 -1.1875 -0.453125 -1.78125q-0.4375 -0.59375 -1.390625 -0.59375q-0.703125 0 -1.1875 0.25q-0.46875 0.234375 -0.765625 0.703125q-0.28125 0.453125 -0.40625 1.125q-0.109375 0.671875 -0.109375 1.546875l0 5.1875l-1.671875 0l0 -10.0l1.359375 0l0.234375 1.34375l0.09375 0q0.21875 -0.390625 0.515625 -0.671875q0.296875 -0.296875 0.65625 -0.484375q0.359375 -0.1875 0.765625 -0.28125q0.40625 -0.09375 0.828125 -0.09375q1.09375 0 1.8125 0.40625q0.734375 0.40625 1.078125 1.25l0.0625 0q0.25 -0.421875 0.578125 -0.734375q0.328125 -0.3125 0.71875 -0.515625q0.40625 -0.203125 0.84375 -0.296875q0.4375 -0.109375 0.890625 -0.109375q1.59375 0 2.390625 0.875q0.8125 0.875 0.8125 2.78125l0 6.53125l-1.65625 0zm8.684662 0.1875q-1.0 0 -1.828125 -0.328125q-0.828125 -0.34375 -1.421875 -0.984375q-0.59375 -0.65625 -0.921875 -1.609375q-0.328125 -0.96875 -0.328125 -2.1875q0 -1.25 0.296875 -2.21875q0.296875 -0.96875 0.84375 -1.640625q0.546875 -0.6875 1.3125 -1.046875q0.765625 -0.359375 1.6875 -0.359375q0.890625 0 1.609375 0.328125q0.71875 0.328125 1.21875 0.921875q0.515625 0.578125 0.78125 1.40625q0.265625 0.8125 0.265625 1.8125l0 1.03125l-6.3125 0q0.046875 1.765625 0.75 2.59375q0.703125 0.828125 2.078125 0.828125q0.453125 0 0.84375 -0.046875q0.40625 -0.046875 0.765625 -0.125q0.375 -0.09375 0.71875 -0.21875q0.359375 -0.140625 0.703125 -0.296875l0 1.46875q-0.359375 0.171875 -0.71875 0.3125q-0.34375 0.125 -0.71875 0.203125q-0.359375 0.078125 -0.765625 0.109375q-0.390625 0.046875 -0.859375 0.046875zm-0.40625 -9.0q-1.03125 0 -1.640625 0.71875q-0.609375 0.703125 -0.703125 2.0625l4.484375 0q0 -0.625 -0.125 -1.125q-0.125 -0.515625 -0.390625 -0.875q-0.25 -0.375 -0.65625 -0.578125q-0.40625 -0.203125 -0.96875 -0.203125zm10.765259 -1.375q0.265625 0 0.59375 0.03125q0.328125 0.015625 0.5625 0.0625l-0.21875 1.53125q-0.25 -0.046875 -0.515625 -0.078125q-0.265625 -0.03125 -0.5 -0.03125q-0.578125 0 -1.0625 0.234375q-0.46875 0.234375 -0.8125 0.671875q-0.34375 0.421875 -0.53125 1.03125q-0.171875 0.609375 -0.171875 1.34375l0 5.390625l-1.671875 0l0 -10.0l1.359375 0l0.203125 1.828125l0.0625 0q0.234375 -0.390625 0.484375 -0.75q0.265625 -0.375 0.578125 -0.640625q0.328125 -0.28125 0.734375 -0.453125q0.40625 -0.171875 0.90625 -0.171875zm9.098724 7.453125q0 0.71875 -0.265625 1.265625q-0.25 0.546875 -0.75 0.921875q-0.5 0.359375 -1.203125 0.546875q-0.703125 0.1875 -1.578125 0.1875q-0.984375 0 -1.703125 -0.171875q-0.703125 -0.15625 -1.25 -0.46875l0 -1.5q0.296875 0.140625 0.640625 0.28125q0.34375 0.140625 0.71875 0.25q0.390625 0.109375 0.796875 0.1875q0.40625 0.0625 0.796875 0.0625q0.59375 0 1.0 -0.09375q0.421875 -0.109375 0.6875 -0.296875q0.265625 -0.1875 0.375 -0.453125q0.125 -0.265625 0.125 -0.59375q0 -0.28125 -0.09375 -0.515625q-0.09375 -0.234375 -0.34375 -0.453125q-0.234375 -0.21875 -0.65625 -0.4375q-0.40625 -0.234375 -1.0625 -0.515625q-0.65625 -0.28125 -1.1875 -0.546875q-0.515625 -0.28125 -0.890625 -0.625q-0.359375 -0.34375 -0.5625 -0.78125q-0.1875 -0.4375 -0.1875 -1.046875q0 -0.640625 0.25 -1.140625q0.25 -0.5 0.703125 -0.828125q0.453125 -0.34375 1.09375 -0.515625q0.640625 -0.171875 1.421875 -0.171875q0.875 0 1.609375 0.203125q0.734375 0.1875 1.390625 0.5l-0.5625 1.328125q-0.59375 -0.265625 -1.21875 -0.453125q-0.625 -0.203125 -1.28125 -0.203125q-0.921875 0 -1.375 0.3125q-0.4375 0.296875 -0.4375 0.859375q0 0.328125 0.09375 0.5625q0.109375 0.234375 0.359375 0.453125q0.265625 0.203125 0.6875 0.421875q0.4375 0.203125 1.0625 0.46875q0.65625 0.28125 1.171875 0.5625q0.515625 0.265625 0.875 0.609375q0.375 0.328125 0.5625 0.765625q0.1875 0.4375 0.1875 1.0625z" fill-rule="nonzero"/><path fill="#000000" fill-opacity="0.0" d="m755.71655 44.84777l130.2992 0l0 42.015747l-130.2992 0z" fill-rule="evenodd"/><path fill="#000000" d="m783.7243 71.76777l-4.03125 -11.65625l-0.078125 0q0.0625 0.671875 0.09375 1.328125q0.03125 0.578125 0.046875 1.21875q0.03125 0.625 0.03125 1.140625l0 7.96875l-1.5625 0l0 -13.3125l2.515625 0l3.75 10.859375l0.0625 0l3.765625 -10.859375l2.515625 0l0 13.3125l-1.703125 0l0 -8.078125q0 -0.46875 0.015625 -1.078125q0.03125 -0.625 0.0625 -1.171875q0.03125 -0.65625 0.0625 -1.3125l-0.078125 0l-4.078125 11.640625l-1.390625 0zm14.451843 0.1875q-1.0 0 -1.828125 -0.328125q-0.828125 -0.34375 -1.421875 -0.984375q-0.59375 -0.65625 -0.921875 -1.609375q-0.328125 -0.96875 -0.328125 -2.1875q0 -1.25 0.296875 -2.21875q0.296875 -0.96875 0.84375 -1.640625q0.546875 -0.6875 1.3125 -1.046875q0.765625 -0.359375 1.6875 -0.359375q0.890625 0 1.609375 0.328125q0.71875 0.328125 1.21875 0.921875q0.515625 0.578125 0.78125 1.40625q0.265625 0.8125 0.265625 1.8125l0 1.03125l-6.3125 0q0.046875 1.765625 0.75 2.59375q0.703125 0.828125 2.078125 0.828125q0.453125 0 0.84375 -0.046875q0.40625 -0.046875 0.765625 -0.125q0.375 -0.09375 0.71875 -0.21875q0.359375 -0.140625 0.703125 -0.296875l0 1.46875q-0.359375 0.171875 -0.71875 0.3125q-0.34375 0.125 -0.71875 0.203125q-0.359375 0.078125 -0.765625 0.109375q-0.390625 0.046875 -0.859375 0.046875zm-0.40625 -9.0q-1.03125 0 -1.640625 0.71875q-0.609375 0.703125 -0.703125 2.0625l4.484375 0q0 -0.625 -0.125 -1.125q-0.125 -0.515625 -0.390625 -0.875q-0.25 -0.375 -0.65625 -0.578125q-0.40625 -0.203125 -0.96875 -0.203125zm10.765259 -1.375q0.265625 0 0.59375 0.03125q0.328125 0.015625 0.5625 0.0625l-0.21875 1.53125q-0.25 -0.046875 -0.515625 -0.078125q-0.265625 -0.03125 -0.5 -0.03125q-0.578125 0 -1.0625 0.234375q-0.46875 0.234375 -0.8125 0.671875q-0.34375 0.421875 -0.53125 1.03125q-0.171875 0.609375 -0.171875 1.34375l0 5.390625l-1.671875 0l0 -10.0l1.359375 0l0.203125 1.828125l0.0625 0q0.234375 -0.390625 0.484375 -0.75q0.265625 -0.375 0.578125 -0.640625q0.328125 -0.28125 0.734375 -0.453125q0.40625 -0.171875 0.90625 -0.171875zm6.942505 10.375q-0.921875 0 -1.71875 -0.28125q-0.796875 -0.296875 -1.390625 -0.921875q-0.59375 -0.625 -0.9375 -1.59375q-0.328125 -0.96875 -0.328125 -2.34375q0 -1.421875 0.34375 -2.421875q0.34375 -1.0 0.953125 -1.625q0.609375 -0.625 1.421875 -0.90625q0.8125 -0.28125 1.734375 -0.28125q0.703125 0 1.375 0.15625q0.6875 0.15625 1.140625 0.390625l-0.484375 1.390625q-0.203125 -0.078125 -0.46875 -0.171875q-0.25 -0.09375 -0.53125 -0.15625q-0.265625 -0.0625 -0.53125 -0.109375q-0.265625 -0.046875 -0.5 -0.046875q-1.4375 0 -2.09375 0.921875q-0.65625 0.921875 -0.65625 2.84375q0 1.921875 0.65625 2.8125q0.671875 0.890625 2.015625 0.890625q0.75 0 1.34375 -0.171875q0.59375 -0.171875 1.078125 -0.390625l0 1.46875q-0.484375 0.265625 -1.046875 0.40625q-0.5625 0.140625 -1.375 0.140625zm11.057678 -0.1875l0 -6.4375q0 -1.1875 -0.484375 -1.78125q-0.46875 -0.59375 -1.484375 -0.59375q-0.734375 0 -1.234375 0.25q-0.5 0.234375 -0.8125 0.703125q-0.3125 0.453125 -0.4375 1.125q-0.125 0.671875 -0.125 1.546875l0 5.1875l-1.671875 0l0 -14.171875l1.671875 0l0 4.203125l-0.078125 1.3125l0.09375 0q0.21875 -0.390625 0.53125 -0.671875q0.328125 -0.296875 0.6875 -0.484375q0.375 -0.1875 0.796875 -0.28125q0.421875 -0.09375 0.859375 -0.09375q1.671875 0 2.5 0.875q0.84375 0.875 0.84375 2.78125l0 6.53125l-1.65625 0zm10.376648 0l-0.328125 -1.390625l-0.078125 0q-0.296875 0.421875 -0.609375 0.71875q-0.296875 0.296875 -0.65625 0.484375q-0.34375 0.1875 -0.78125 0.28125q-0.4375 0.09375 -1.015625 0.09375q-0.625 0 -1.15625 -0.1875q-0.53125 -0.171875 -0.921875 -0.53125q-0.375 -0.375 -0.59375 -0.9375q-0.21875 -0.5625 -0.21875 -1.328125q0 -1.5 1.046875 -2.296875q1.046875 -0.796875 3.203125 -0.875l1.671875 -0.0625l0 -0.625q0 -0.609375 -0.140625 -1.015625q-0.125 -0.421875 -0.375 -0.671875q-0.25 -0.25 -0.625 -0.359375q-0.359375 -0.109375 -0.828125 -0.109375q-0.765625 0 -1.421875 0.21875q-0.640625 0.21875 -1.234375 0.53125l-0.59375 -1.25q0.671875 -0.359375 1.5 -0.609375q0.84375 -0.265625 1.75 -0.265625q0.921875 0 1.59375 0.1875q0.6875 0.1875 1.125 0.59375q0.453125 0.40625 0.671875 1.03125q0.21875 0.625 0.21875 1.53125l0 6.84375l-1.203125 0zm-3.03125 -1.15625q0.546875 0 1.015625 -0.171875q0.484375 -0.171875 0.828125 -0.515625q0.34375 -0.359375 0.53125 -0.890625q0.203125 -0.53125 0.203125 -1.25l0 -0.90625l-1.296875 0.0625q-0.828125 0.03125 -1.390625 0.1875q-0.546875 0.140625 -0.875 0.40625q-0.328125 0.25 -0.484375 0.625q-0.140625 0.359375 -0.140625 0.828125q0 0.84375 0.4375 1.234375q0.453125 0.390625 1.171875 0.390625zm13.542664 1.15625l0 -6.4375q0 -1.1875 -0.484375 -1.78125q-0.46875 -0.59375 -1.484375 -0.59375q-0.734375 0 -1.234375 0.25q-0.5 0.234375 -0.8125 0.703125q-0.3125 0.453125 -0.4375 1.125q-0.125 0.671875 -0.125 1.546875l0 5.1875l-1.671875 0l0 -10.0l1.359375 0l0.234375 1.34375l0.09375 0q0.21875 -0.390625 0.53125 -0.671875q0.328125 -0.296875 0.6875 -0.484375q0.375 -0.1875 0.796875 -0.28125q0.421875 -0.09375 0.859375 -0.09375q1.671875 0 2.5 0.875q0.84375 0.875 0.84375 2.78125l0 6.53125l-1.65625 0zm7.767273 -1.171875q0.15625 0 0.359375 -0.015625q0.21875 -0.03125 0.40625 -0.046875q0.1875 -0.03125 0.34375 -0.0625q0.171875 -0.046875 0.25 -0.0625l0 1.25q-0.125 0.0625 -0.3125 0.109375q-0.171875 0.046875 -0.390625 0.09375q-0.21875 0.046875 -0.453125 0.0625q-0.234375 0.03125 -0.46875 0.03125q-0.5625 0 -1.046875 -0.15625q-0.484375 -0.140625 -0.84375 -0.484375q-0.34375 -0.359375 -0.546875 -0.96875q-0.1875 -0.609375 -0.1875 -1.53125l0 -5.796875l-1.421875 0l0 -0.734375l1.421875 -0.71875l0.703125 -2.09375l0.953125 0l0 2.296875l2.515625 0l0 1.25l-2.515625 0l0 5.796875q0 0.890625 0.28125 1.34375q0.296875 0.4375 0.953125 0.4375zm9.2751465 -1.5625q0 0.71875 -0.265625 1.265625q-0.25 0.546875 -0.75 0.921875q-0.5 0.359375 -1.203125 0.546875q-0.703125 0.1875 -1.578125 0.1875q-0.984375 0 -1.703125 -0.171875q-0.703125 -0.15625 -1.25 -0.46875l0 -1.5q0.296875 0.140625 0.640625 0.28125q0.34375 0.140625 0.71875 0.25q0.390625 0.109375 0.796875 0.1875q0.40625 0.0625 0.796875 0.0625q0.59375 0 1.0 -0.09375q0.421875 -0.109375 0.6875 -0.296875q0.265625 -0.1875 0.375 -0.453125q0.125 -0.265625 0.125 -0.59375q0 -0.28125 -0.09375 -0.515625q-0.09375 -0.234375 -0.34375 -0.453125q-0.234375 -0.21875 -0.65625 -0.4375q-0.40625 -0.234375 -1.0625 -0.515625q-0.65625 -0.28125 -1.1875 -0.546875q-0.515625 -0.28125 -0.890625 -0.625q-0.359375 -0.34375 -0.5625 -0.78125q-0.1875 -0.4375 -0.1875 -1.046875q0 -0.640625 0.25 -1.140625q0.25 -0.5 0.703125 -0.828125q0.453125 -0.34375 1.09375 -0.515625q0.640625 -0.171875 1.421875 -0.171875q0.875 0 1.609375 0.203125q0.734375 0.1875 1.390625 0.5l-0.5625 1.328125q-0.59375 -0.265625 -1.21875 -0.453125q-0.625 -0.203125 -1.28125 -0.203125q-0.921875 0 -1.375 0.3125q-0.4375 0.296875 -0.4375 0.859375q0 0.328125 0.09375 0.5625q0.109375 0.234375 0.359375 0.453125q0.265625 0.203125 0.6875 0.421875q0.4375 0.203125 1.0625 0.46875q0.65625 0.28125 1.171875 0.5625q0.515625 0.265625 0.875 0.609375q0.375 0.328125 0.5625 0.765625q0.1875 0.4375 0.1875 1.0625z" fill-rule="nonzero"/><path fill="#000000" fill-opacity="0.0" d="m499.77823 63.559055l130.29922 0l0 42.01575l-130.29922 0z" fill-rule="evenodd"/><path fill="#000000" d="m517.93536 90.47905l-1.703125 0l0 -11.828125l-3.796875 0l0 -1.484375l9.296875 0l0 1.484375l-3.796875 0l0 11.828125zm9.154724 -10.1875q0.265625 0 0.59375 0.03125q0.328125 0.015625 0.5625 0.0625l-0.21875 1.53125q-0.25 -0.046875 -0.515625 -0.078125q-0.265625 -0.03125 -0.5 -0.03125q-0.578125 0 -1.0625 0.234375q-0.46875 0.234375 -0.8125 0.671875q-0.34375 0.421875 -0.53125 1.03125q-0.171875 0.609375 -0.171875 1.34375l0 5.390625l-1.671875 0l0 -10.0l1.359375 0l0.203125 1.828125l0.0625 0q0.234375 -0.390625 0.484375 -0.75q0.265625 -0.375 0.578125 -0.640625q0.328125 -0.28125 0.734375 -0.453125q0.40625 -0.171875 0.90625 -0.171875zm8.572693 10.1875l-0.328125 -1.390625l-0.078125 0q-0.296875 0.421875 -0.609375 0.71875q-0.296875 0.296875 -0.65625 0.484375q-0.34375 0.1875 -0.78125 0.28125q-0.4375 0.09375 -1.015625 0.09375q-0.625 0 -1.15625 -0.1875q-0.53125 -0.171875 -0.921875 -0.53125q-0.375 -0.375 -0.59375 -0.9375q-0.21875 -0.5625 -0.21875 -1.328125q0 -1.5 1.046875 -2.296875q1.046875 -0.796875 3.203125 -0.875l1.671875 -0.0625l0 -0.625q0 -0.609375 -0.140625 -1.015625q-0.125 -0.421875 -0.375 -0.671875q-0.25 -0.25 -0.625 -0.359375q-0.359375 -0.109375 -0.828125 -0.109375q-0.765625 0 -1.421875 0.21875q-0.640625 0.21875 -1.234375 0.53125l-0.59375 -1.25q0.671875 -0.359375 1.5 -0.609375q0.84375 -0.265625 1.75 -0.265625q0.921875 0 1.59375 0.1875q0.6875 0.1875 1.125 0.59375q0.453125 0.40625 0.671875 1.03125q0.21875 0.625 0.21875 1.53125l0 6.84375l-1.203125 0zm-3.03125 -1.15625q0.546875 0 1.015625 -0.171875q0.484375 -0.171875 0.828125 -0.515625q0.34375 -0.359375 0.53125 -0.890625q0.203125 -0.53125 0.203125 -1.25l0 -0.90625l-1.296875 0.0625q-0.828125 0.03125 -1.390625 0.1875q-0.546875 0.140625 -0.875 0.40625q-0.328125 0.25 -0.484375 0.625q-0.140625 0.359375 -0.140625 0.828125q0 0.84375 0.4375 1.234375q0.453125 0.390625 1.171875 0.390625zm13.542664 1.15625l0 -6.4375q0 -1.1875 -0.484375 -1.78125q-0.46875 -0.59375 -1.484375 -0.59375q-0.734375 0 -1.234375 0.25q-0.5 0.234375 -0.8125 0.703125q-0.3125 0.453125 -0.4375 1.125q-0.125 0.671875 -0.125 1.546875l0 5.1875l-1.671875 0l0 -10.0l1.359375 0l0.234375 1.34375l0.09375 0q0.21875 -0.390625 0.53125 -0.671875q0.328125 -0.296875 0.6875 -0.484375q0.375 -0.1875 0.796875 -0.28125q0.421875 -0.09375 0.859375 -0.09375q1.671875 0 2.5 0.875q0.84375 0.875 0.84375 2.78125l0 6.53125l-1.65625 0zm10.720398 -2.734375q0 0.71875 -0.265625 1.265625q-0.25 0.546875 -0.75 0.921875q-0.5 0.359375 -1.203125 0.546875q-0.703125 0.1875 -1.578125 0.1875q-0.984375 0 -1.703125 -0.171875q-0.703125 -0.15625 -1.25 -0.46875l0 -1.5q0.296875 0.140625 0.640625 0.28125q0.34375 0.140625 0.71875 0.25q0.390625 0.109375 0.796875 0.1875q0.40625 0.0625 0.796875 0.0625q0.59375 0 1.0 -0.09375q0.421875 -0.109375 0.6875 -0.296875q0.265625 -0.1875 0.375 -0.453125q0.125 -0.265625 0.125 -0.59375q0 -0.28125 -0.09375 -0.515625q-0.09375 -0.234375 -0.34375 -0.453125q-0.234375 -0.21875 -0.65625 -0.4375q-0.40625 -0.234375 -1.0625 -0.515625q-0.65625 -0.28125 -1.1875 -0.546875q-0.515625 -0.28125 -0.890625 -0.625q-0.359375 -0.34375 -0.5625 -0.78125q-0.1875 -0.4375 -0.1875 -1.046875q0 -0.640625 0.25 -1.140625q0.25 -0.5 0.703125 -0.828125q0.453125 -0.34375 1.09375 -0.515625q0.640625 -0.171875 1.421875 -0.171875q0.875 0 1.609375 0.203125q0.734375 0.1875 1.390625 0.5l-0.5625 1.328125q-0.59375 -0.265625 -1.21875 -0.453125q-0.625 -0.203125 -1.28125 -0.203125q-0.921875 0 -1.375 0.3125q-0.4375 0.296875 -0.4375 0.859375q0 0.328125 0.09375 0.5625q0.109375 0.234375 0.359375 0.453125q0.265625 0.203125 0.6875 0.421875q0.4375 0.203125 1.0625 0.46875q0.65625 0.28125 1.171875 0.5625q0.515625 0.265625 0.875 0.609375q0.375 0.328125 0.5625 0.765625q0.1875 0.4375 0.1875 1.0625zm8.073425 2.734375l-0.328125 -1.390625l-0.078125 0q-0.296875 0.421875 -0.609375 0.71875q-0.296875 0.296875 -0.65625 0.484375q-0.34375 0.1875 -0.78125 0.28125q-0.4375 0.09375 -1.015625 0.09375q-0.625 0 -1.15625 -0.1875q-0.53125 -0.171875 -0.921875 -0.53125q-0.375 -0.375 -0.59375 -0.9375q-0.21875 -0.5625 -0.21875 -1.328125q0 -1.5 1.046875 -2.296875q1.046875 -0.796875 3.203125 -0.875l1.671875 -0.0625l0 -0.625q0 -0.609375 -0.140625 -1.015625q-0.125 -0.421875 -0.375 -0.671875q-0.25 -0.25 -0.625 -0.359375q-0.359375 -0.109375 -0.828125 -0.109375q-0.765625 0 -1.421875 0.21875q-0.640625 0.21875 -1.234375 0.53125l-0.59375 -1.25q0.671875 -0.359375 1.5 -0.609375q0.84375 -0.265625 1.75 -0.265625q0.921875 0 1.59375 0.1875q0.6875 0.1875 1.125 0.59375q0.453125 0.40625 0.671875 1.03125q0.21875 0.625 0.21875 1.53125l0 6.84375l-1.203125 0zm-3.03125 -1.15625q0.546875 0 1.015625 -0.171875q0.484375 -0.171875 0.828125 -0.515625q0.34375 -0.359375 0.53125 -0.890625q0.203125 -0.53125 0.203125 -1.25l0 -0.90625l-1.296875 0.0625q-0.828125 0.03125 -1.390625 0.1875q-0.546875 0.140625 -0.875 0.40625q-0.328125 0.25 -0.484375 0.625q-0.140625 0.359375 -0.140625 0.828125q0 0.84375 0.4375 1.234375q0.453125 0.390625 1.171875 0.390625zm11.120789 1.34375q-0.921875 0 -1.71875 -0.28125q-0.796875 -0.296875 -1.390625 -0.921875q-0.59375 -0.625 -0.9375 -1.59375q-0.328125 -0.96875 -0.328125 -2.34375q0 -1.421875 0.34375 -2.421875q0.34375 -1.0 0.953125 -1.625q0.609375 -0.625 1.421875 -0.90625q0.8125 -0.28125 1.734375 -0.28125q0.703125 0 1.375 0.15625q0.6875 0.15625 1.140625 0.390625l-0.484375 1.390625q-0.203125 -0.078125 -0.46875 -0.171875q-0.25 -0.09375 -0.53125 -0.15625q-0.265625 -0.0625 -0.53125 -0.109375q-0.265625 -0.046875 -0.5 -0.046875q-1.4375 0 -2.09375 0.921875q-0.65625 0.921875 -0.65625 2.84375q0 1.921875 0.65625 2.8125q0.671875 0.890625 2.015625 0.890625q0.75 0 1.34375 -0.171875q0.59375 -0.171875 1.078125 -0.390625l0 1.46875q-0.484375 0.265625 -1.046875 0.40625q-0.5625 0.140625 -1.375 0.140625zm7.838928 -1.359375q0.15625 0 0.359375 -0.015625q0.21875 -0.03125 0.40625 -0.046875q0.1875 -0.03125 0.34375 -0.0625q0.171875 -0.046875 0.25 -0.0625l0 1.25q-0.125 0.0625 -0.3125 0.109375q-0.171875 0.046875 -0.390625 0.09375q-0.21875 0.046875 -0.453125 0.0625q-0.234375 0.03125 -0.46875 0.03125q-0.5625 0 -1.046875 -0.15625q-0.484375 -0.140625 -0.84375 -0.484375q-0.34375 -0.359375 -0.546875 -0.96875q-0.1875 -0.609375 -0.1875 -1.53125l0 -5.796875l-1.421875 0l0 -0.734375l1.421875 -0.71875l0.703125 -2.09375l0.953125 0l0 2.296875l2.515625 0l0 1.25l-2.515625 0l0 5.796875q0 0.890625 0.28125 1.34375q0.296875 0.4375 0.953125 0.4375zm4.9625854 1.171875l-1.671875 0l0 -10.0l1.671875 0l0 10.0zm-1.796875 -12.703125q0 -0.546875 0.28125 -0.796875q0.28125 -0.25 0.6875 -0.25q0.203125 0 0.375 0.0625q0.1875 0.0625 0.3125 0.1875q0.140625 0.125 0.203125 0.328125q0.078125 0.1875 0.078125 0.46875q0 0.53125 -0.28125 0.796875q-0.28125 0.25 -0.6875 0.25q-0.40625 0 -0.6875 -0.25q-0.28125 -0.265625 -0.28125 -0.796875zm13.109314 7.6875q0 1.25 -0.3125 2.21875q-0.296875 0.96875 -0.875 1.625q-0.5625 0.65625 -1.375 1.015625q-0.796875 0.34375 -1.8125 0.34375q-0.9375 0 -1.734375 -0.34375q-0.796875 -0.359375 -1.375 -1.015625q-0.578125 -0.65625 -0.90625 -1.625q-0.3125 -0.96875 -0.3125 -2.21875q0 -1.25 0.296875 -2.203125q0.3125 -0.96875 0.875 -1.625q0.5625 -0.65625 1.375 -1.0q0.828125 -0.34375 1.828125 -0.34375q0.9375 0 1.734375 0.34375q0.796875 0.34375 1.375 1.0q0.578125 0.65625 0.890625 1.625q0.328125 0.953125 0.328125 2.203125zm-7.0 0q0 1.90625 0.625 2.875q0.625 0.953125 2.03125 0.953125q1.40625 0 2.015625 -0.953125q0.625 -0.96875 0.625 -2.875q0 -1.90625 -0.625 -2.84375q-0.625 -0.953125 -2.03125 -0.953125q-1.40625 0 -2.03125 0.953125q-0.609375 0.9375 -0.609375 2.84375zm15.861145 5.015625l0 -6.4375q0 -1.1875 -0.484375 -1.78125q-0.46875 -0.59375 -1.484375 -0.59375q-0.734375 0 -1.234375 0.25q-0.5 0.234375 -0.8125 0.703125q-0.3125 0.453125 -0.4375 1.125q-0.125 0.671875 -0.125 1.546875l0 5.1875l-1.671875 0l0 -10.0l1.359375 0l0.234375 1.34375l0.09375 0q0.21875 -0.390625 0.53125 -0.671875q0.328125 -0.296875 0.6875 -0.484375q0.375 -0.1875 0.796875 -0.28125q0.421875 -0.09375 0.859375 -0.09375q1.671875 0 2.5 0.875q0.84375 0.875 0.84375 2.78125l0 6.53125l-1.65625 0zm10.720459 -2.734375q0 0.71875 -0.265625 1.265625q-0.25 0.546875 -0.75 0.921875q-0.5 0.359375 -1.203125 0.546875q-0.703125 0.1875 -1.578125 0.1875q-0.984375 0 -1.703125 -0.171875q-0.703125 -0.15625 -1.25 -0.46875l0 -1.5q0.296875 0.140625 0.640625 0.28125q0.34375 0.140625 0.71875 0.25q0.390625 0.109375 0.796875 0.1875q0.40625 0.0625 0.796875 0.0625q0.59375 0 1.0 -0.09375q0.421875 -0.109375 0.6875 -0.296875q0.265625 -0.1875 0.375 -0.453125q0.125 -0.265625 0.125 -0.59375q0 -0.28125 -0.09375 -0.515625q-0.09375 -0.234375 -0.34375 -0.453125q-0.234375 -0.21875 -0.65625 -0.4375q-0.40625 -0.234375 -1.0625 -0.515625q-0.65625 -0.28125 -1.1875 -0.546875q-0.515625 -0.28125 -0.890625 -0.625q-0.359375 -0.34375 -0.5625 -0.78125q-0.1875 -0.4375 -0.1875 -1.046875q0 -0.640625 0.25 -1.140625q0.25 -0.5 0.703125 -0.828125q0.453125 -0.34375 1.09375 -0.515625q0.640625 -0.171875 1.421875 -0.171875q0.875 0 1.609375 0.203125q0.734375 0.1875 1.390625 0.5l-0.5625 1.328125q-0.59375 -0.265625 -1.21875 -0.453125q-0.625 -0.203125 -1.28125 -0.203125q-0.921875 0 -1.375 0.3125q-0.4375 0.296875 -0.4375 0.859375q0 0.328125 0.09375 0.5625q0.109375 0.234375 0.359375 0.453125q0.265625 0.203125 0.6875 0.421875q0.4375 0.203125 1.0625 0.46875q0.65625 0.28125 1.171875 0.5625q0.515625 0.265625 0.875 0.609375q0.375 0.328125 0.5625 0.765625q0.1875 0.4375 0.1875 1.0625z" fill-rule="nonzero"/></g></svg>
