<svg version="1.1" viewBox="300.0 100.0 800.0 660.0" fill="none" stroke="none" stroke-linecap="square" stroke-miterlimit="10" xmlns:xlink="http://www.w3.org/1999/xlink" xmlns="http://www.w3.org/2000/svg"><clipPath id="p.0"><path d="m0 0l1280.0 0l0 960.0l-1280.0 0l0 -960.0z" clip-rule="nonzero"/></clipPath><g clip-path="url(#p.0)"><path fill="#000000" fill-opacity="0.0" d="m0 0l1280.0 0l0 960.0l-1280.0 0z" fill-rule="evenodd"/><path fill="#f8f9fa" d="m614.1426 452.12643l0 0c0 -23.552551 19.41748 -42.64569 43.370117 -42.64569l0 0c11.502441 0 22.533752 4.4930115 30.667236 12.490631c8.133484 7.9976196 12.70282 18.844727 12.70282 30.15506l0 0c0 23.552551 -19.41748 42.64566 -43.370056 42.64566l0 0c-23.952637 0 -43.370117 -19.09311 -43.370117 -42.64566z" fill-rule="evenodd"/><path stroke="#000000" stroke-width="2.0" stroke-linejoin="round" stroke-linecap="butt" d="m614.1426 452.12643l0 0c0 -23.552551 19.41748 -42.64569 43.370117 -42.64569l0 0c11.502441 0 22.533752 4.4930115 30.667236 12.490631c8.133484 7.9976196 12.70282 18.844727 12.70282 30.15506l0 0c0 23.552551 -19.41748 42.64566 -43.370056 42.64566l0 0c-23.952637 0 -43.370117 -19.09311 -43.370117 -42.64566z" fill-rule="evenodd"/><path fill="#f8f9fa" d="m614.1426 255.9779l0 0c0 -23.552551 19.41748 -42.645676 43.370117 -42.645676l0 0c11.502441 0 22.533752 4.4930115 30.667236 12.490631c8.133484 7.9976196 12.70282 18.844711 12.70282 30.155045l0 0c0 23.552551 -19.41748 42.64566 -43.370056 42.64566l0 0c-23.952637 0 -43.370117 -19.09311 -43.370117 -42.64566z" fill-rule="evenodd"/><path stroke="#000000" stroke-width="2.0" stroke-linejoin="round" stroke-linecap="butt" d="m614.1426 255.9779l0 0c0 -23.552551 19.41748 -42.645676 43.370117 -42.645676l0 0c11.502441 0 22.533752 4.4930115 30.667236 12.490631c8.133484 7.9976196 12.70282 18.844711 12.70282 30.155045l0 0c0 23.552551 -19.41748 42.64566 -43.370056 42.64566l0 0c-23.952637 0 -43.370117 -19.09311 -43.370117 -42.64566z" fill-rule="evenodd"/><path fill="#f8f9fa" d="m539.8164 714.77997l0 0c0 -23.552551 19.41748 -42.64569 43.370117 -42.64569l0 0c11.502441 0 22.533752 4.493042 30.667236 12.490601c8.133484 7.9976196 12.70282 18.844727 12.70282 30.15509l0 0c0 23.552551 -19.41748 42.64563 -43.370056 42.64563l0 0c-23.952637 0 -43.370117 -19.093079 -43.370117 -42.64563z" fill-rule="evenodd"/><path stroke="#000000" stroke-width="2.0" stroke-linejoin="round" stroke-linecap="butt" d="m539.8164 714.77997l0 0c0 -23.552551 19.41748 -42.64569 43.370117 -42.64569l0 0c11.502441 0 22.533752 4.493042 30.667236 12.490601c8.133484 7.9976196 12.70282 18.844727 12.70282 30.15509l0 0c0 23.552551 -19.41748 42.64563 -43.370056 42.64563l0 0c-23.952637 0 -43.370117 -19.093079 -43.370117 -42.64563z" fill-rule="evenodd"/><path fill="#f8f9fa" d="m361.84058 250.41344l0 0c0 -23.552551 19.41745 -42.645676 43.370087 -42.645676l0 0c11.502441 0 22.533783 4.4930115 30.667267 12.490631c8.133453 7.9976196 12.702789 18.844711 12.702789 30.155045l0 0c0 23.552536 -19.41745 42.645676 -43.370056 42.645676l0 0c-23.952637 0 -43.370087 -19.09314 -43.370087 -42.645676z" fill-rule="evenodd"/><path stroke="#000000" stroke-width="2.0" stroke-linejoin="round" stroke-linecap="butt" d="m361.84058 250.41344l0 0c0 -23.552551 19.41745 -42.645676 43.370087 -42.645676l0 0c11.502441 0 22.533783 4.4930115 30.667267 12.490631c8.133453 7.9976196 12.702789 18.844711 12.702789 30.155045l0 0c0 23.552536 -19.41745 42.645676 -43.370056 42.645676l0 0c-23.952637 0 -43.370087 -19.09314 -43.370087 -42.645676z" fill-rule="evenodd"/><path fill="#f8f9fa" d="m723.941 608.50104l0 0c0 -23.552551 19.41742 -42.64569 43.370056 -42.64569l0 0c11.502441 0 22.533813 4.493042 30.667297 12.490662c8.133423 7.9976196 12.702759 18.844727 12.702759 30.15503l0 0c0 23.552551 -19.41742 42.64569 -43.370056 42.64569l0 0c-23.952637 0 -43.370056 -19.09314 -43.370056 -42.64569z" fill-rule="evenodd"/><path stroke="#000000" stroke-width="2.0" stroke-linejoin="round" stroke-linecap="butt" d="m723.941 608.50104l0 0c0 -23.552551 19.41742 -42.64569 43.370056 -42.64569l0 0c11.502441 0 22.533813 4.493042 30.667297 12.490662c8.133423 7.9976196 12.702759 18.844727 12.702759 30.15503l0 0c0 23.552551 -19.41742 42.64569 -43.370056 42.64569l0 0c-23.952637 0 -43.370056 -19.09314 -43.370056 -42.64569z" fill-rule="evenodd"/><path fill="#f8f9fa" d="m300.23358 552.5109l0 0c0 -23.552551 19.41742 -42.64566 43.370056 -42.64566l0 0c11.502472 0 22.533813 4.4930115 30.667297 12.490631c8.133453 7.9976196 12.702789 18.844727 12.702789 30.15503l0 0c0 23.552551 -19.41745 42.64569 -43.370087 42.64569l0 0c-23.952637 0 -43.370056 -19.09314 -43.370056 -42.64569z" fill-rule="evenodd"/><path stroke="#000000" stroke-width="2.0" stroke-linejoin="round" stroke-linecap="butt" d="m300.23358 552.5109l0 0c0 -23.552551 19.41742 -42.64566 43.370056 -42.64566l0 0c11.502472 0 22.533813 4.4930115 30.667297 12.490631c8.133453 7.9976196 12.702789 18.844727 12.702789 30.15503l0 0c0 23.552551 -19.41745 42.64569 -43.370087 42.64569l0 0c-23.952637 0 -43.370056 -19.09314 -43.370056 -42.64569z" fill-rule="evenodd"/><path fill="#f8f9fa" d="m776.5787 341.2687l0 0c0 -23.552551 19.41742 -42.64566 43.370056 -42.64566l0 0c11.502502 0 22.533813 4.4930115 30.667297 12.490631c8.133484 7.9976196 12.70282 18.844696 12.70282 30.15503l0 0c0 23.552551 -19.41748 42.64569 -43.370117 42.64569l0 0c-23.952637 0 -43.370056 -19.09314 -43.370056 -42.64569z" fill-rule="evenodd"/><path stroke="#000000" stroke-width="2.0" stroke-linejoin="round" stroke-linecap="butt" d="m776.5787 341.2687l0 0c0 -23.552551 19.41742 -42.64566 43.370056 -42.64566l0 0c11.502502 0 22.533813 4.4930115 30.667297 12.490631c8.133484 7.9976196 12.70282 18.844696 12.70282 30.15503l0 0c0 23.552551 -19.41748 42.64569 -43.370117 42.64569l0 0c-23.952637 0 -43.370056 -19.09314 -43.370056 -42.64569z" fill-rule="evenodd"/><path fill="#f8f9fa" d="m448.57254 426.55536l0 0c0 -23.552551 19.41745 -42.64566 43.370087 -42.64566l0 0c11.502472 0 22.533813 4.4930115 30.667297 12.490631c8.133423 7.9976196 12.702759 18.844696 12.702759 30.15503l0 0c0 23.552551 -19.41742 42.64569 -43.370056 42.64569l0 0c-23.952637 0 -43.370087 -19.09314 -43.370087 -42.64569z" fill-rule="evenodd"/><path stroke="#000000" stroke-width="2.0" stroke-linejoin="round" stroke-linecap="butt" d="m448.57254 426.55536l0 0c0 -23.552551 19.41745 -42.64566 43.370087 -42.64566l0 0c11.502472 0 22.533813 4.4930115 30.667297 12.490631c8.133423 7.9976196 12.702759 18.844696 12.702759 30.15503l0 0c0 23.552551 -19.41742 42.64569 -43.370056 42.64569l0 0c-23.952637 0 -43.370087 -19.09314 -43.370087 -42.64569z" fill-rule="evenodd"/><path fill="#f8f9fa" d="m956.7515 452.12643l0 0c0 -23.552551 19.41742 -42.64569 43.370056 -42.64569l0 0c11.502441 0 22.533813 4.4930115 30.667236 12.490631c8.133545 7.9976196 12.702881 18.844727 12.702881 30.15506l0 0c0 23.552551 -19.41748 42.64566 -43.370117 42.64566l0 0c-23.952637 0 -43.370056 -19.09311 -43.370056 -42.64566z" fill-rule="evenodd"/><path stroke="#000000" stroke-width="2.0" stroke-linejoin="round" stroke-linecap="butt" d="m956.7515 452.12643l0 0c0 -23.552551 19.41742 -42.64569 43.370056 -42.64569l0 0c11.502441 0 22.533813 4.4930115 30.667236 12.490631c8.133545 7.9976196 12.702881 18.844727 12.702881 30.15506l0 0c0 23.552551 -19.41748 42.64566 -43.370117 42.64566l0 0c-23.952637 0 -43.370056 -19.09311 -43.370056 -42.64566z" fill-rule="evenodd"/><path fill="#f8f9fa" d="m836.11084 157.62204l0 0c0 -23.552551 19.41742 -42.64566 43.370056 -42.64566l0 0c11.502502 0 22.533813 4.4930115 30.667297 12.490623c8.133484 7.997612 12.70282 18.844704 12.70282 30.155037l0 0c0 23.552567 -19.41748 42.645676 -43.370117 42.645676l0 0c-23.952637 0 -43.370056 -19.09311 -43.370056 -42.645676z" fill-rule="evenodd"/><path stroke="#000000" stroke-width="2.0" stroke-linejoin="round" stroke-linecap="butt" d="m836.11084 157.62204l0 0c0 -23.552551 19.41742 -42.64566 43.370056 -42.64566l0 0c11.502502 0 22.533813 4.4930115 30.667297 12.490623c8.133484 7.997612 12.70282 18.844704 12.70282 30.155037l0 0c0 23.552567 -19.41748 42.645676 -43.370117 42.645676l0 0c-23.952637 0 -43.370056 -19.09311 -43.370056 -42.645676z" fill-rule="evenodd"/><path fill="#000000" fill-opacity="0.0" d="m657.5127 298.62357l0 110.86615" fill-rule="evenodd"/><path stroke="#000000" stroke-width="2.0" stroke-linejoin="round" stroke-linecap="butt" d="m657.5127 298.62357l0 98.86615" fill-rule="evenodd"/><path fill="#000000" stroke="#000000" stroke-width="2.0" stroke-linecap="butt" d="m654.2092 397.48972l3.3034668 9.076172l3.3034668 -9.076172z" fill-rule="evenodd"/><path fill="#000000" fill-opacity="0.0" d="m789.2815 371.42377l-101.102356 50.551178" fill-rule="evenodd"/><path stroke="#000000" stroke-width="2.0" stroke-linejoin="round" stroke-linecap="butt" d="m789.2815 371.42377l-90.36926 45.18463" fill-rule="evenodd"/><path fill="#000000" stroke="#000000" stroke-width="2.0" stroke-linecap="butt" d="m697.4349 413.65366l-6.640625 7.013733l9.595337 -1.1043091z" fill-rule="evenodd"/><path fill="#000000" fill-opacity="0.0" d="m736.64374 578.346l-48.472412 -96.06299" fill-rule="evenodd"/><path stroke="#000000" stroke-width="2.0" stroke-linejoin="round" stroke-linecap="butt" d="m736.6438 578.346l-43.06659 -85.34961" fill-rule="evenodd"/><path fill="#000000" stroke="#000000" stroke-width="2.0" stroke-linecap="butt" d="m696.5265 491.5082l-7.038025 -6.614868l1.1394653 9.591217z" fill-rule="evenodd"/><path fill="#000000" fill-opacity="0.0" d="m583.1865 672.1343l-91.24411 -202.92914" fill-rule="evenodd"/><path stroke="#000000" stroke-width="2.0" stroke-linejoin="round" stroke-linecap="butt" d="m583.18646 672.1343l-86.32303 -191.98459" fill-rule="evenodd"/><path fill="#000000" stroke="#000000" stroke-width="2.0" stroke-linecap="butt" d="m499.87634 478.79498l-6.734955 -6.923218l0.70913696 9.632629z" fill-rule="evenodd"/><path fill="#000000" fill-opacity="0.0" d="m535.3127 426.55536l78.834656 25.574799" fill-rule="evenodd"/><path stroke="#000000" stroke-width="2.0" stroke-linejoin="round" stroke-linecap="butt" d="m535.3127 426.55536l67.42029 21.871857" fill-rule="evenodd"/><path fill="#000000" stroke="#000000" stroke-width="2.0" stroke-linecap="butt" d="m601.71356 451.56946l9.652649 -0.34152222l-7.6138916 -5.9429626z" fill-rule="evenodd"/><path fill="#000000" fill-opacity="0.0" d="m969.4543 482.28146l-171.46454 96.06302" fill-rule="evenodd"/><path stroke="#000000" stroke-width="2.0" stroke-linejoin="round" stroke-linecap="butt" d="m969.4543 482.28146l-160.99554 90.19772" fill-rule="evenodd"/><path fill="#000000" stroke="#000000" stroke-width="2.0" stroke-linecap="butt" d="m806.84406 569.5972l-6.303528 7.3181763l9.532837 -1.5541992z" fill-rule="evenodd"/><path fill="#000000" fill-opacity="0.0" d="m969.4543 421.97137l-118.834595 -50.551178" fill-rule="evenodd"/><path stroke="#000000" stroke-width="2.0" stroke-linejoin="round" stroke-linecap="butt" d="m969.4543 421.97137l-107.79224 -45.85385" fill-rule="evenodd"/><path fill="#000000" stroke="#000000" stroke-width="2.0" stroke-linecap="butt" d="m862.9552 373.0777l-9.64502 -0.5130005l7.058777 6.592682z" fill-rule="evenodd"/><path fill="#000000" fill-opacity="0.0" d="m879.4809 200.26772l-59.527527 98.3622" fill-rule="evenodd"/><path stroke="#000000" stroke-width="2.0" stroke-linejoin="round" stroke-linecap="butt" d="m879.4809 200.26772l-53.314453 88.09587" fill-rule="evenodd"/><path fill="#000000" stroke="#000000" stroke-width="2.0" stroke-linecap="butt" d="m823.3402 286.6532l-1.8730469 9.475311l7.5254517 -6.054535z" fill-rule="evenodd"/><path fill="#000000" fill-opacity="0.0" d="m374.27094 522.3559l86.99213 -65.63779" fill-rule="evenodd"/><path stroke="#000000" stroke-width="2.0" stroke-linejoin="round" stroke-linecap="butt" d="m374.2709 522.3559l77.412994 -58.410065" fill-rule="evenodd"/><path fill="#000000" stroke="#000000" stroke-width="2.0" stroke-linecap="butt" d="m453.6736 466.58286l5.2554626 -8.103729l-9.234894 2.8296509z" fill-rule="evenodd"/><path fill="#000000" fill-opacity="0.0" d="m448.58072 250.41344l165.5748 5.5747986" fill-rule="evenodd"/><path stroke="#000000" stroke-width="2.0" stroke-linejoin="round" stroke-linecap="butt" d="m448.58072 250.41342l153.58157 5.1710052" fill-rule="evenodd"/><path fill="#000000" stroke="#000000" stroke-width="2.0" stroke-linecap="butt" d="m602.05115 258.88602l9.18219 -2.99617l-8.959839 -3.60701z" fill-rule="evenodd"/><path fill="#000000" fill-opacity="0.0" d="m626.5566 714.77997l110.078735 -76.12598" fill-rule="evenodd"/><path stroke="#000000" stroke-width="2.0" stroke-linejoin="round" stroke-linecap="butt" d="m626.5566 714.7799l100.208984 -69.300415" fill-rule="evenodd"/><path fill="#000000" stroke="#000000" stroke-width="2.0" stroke-linecap="butt" d="m728.6446 648.19653l5.5859985 -7.8795166l-9.343994 2.4454346z" fill-rule="evenodd"/><path fill="#000000" fill-opacity="0.0" d="m405.21066 293.0591l-61.606323 216.81888" fill-rule="evenodd"/><path stroke="#000000" stroke-width="2.0" stroke-linejoin="round" stroke-linecap="butt" d="m405.21063 293.05908l-58.326447 205.27582" fill-rule="evenodd"/><path fill="#000000" stroke="#000000" stroke-width="2.0" stroke-linecap="butt" d="m343.70648 497.432l0.69699097 9.633514l5.658386 -7.8277283z" fill-rule="evenodd"/><path fill="#000000" fill-opacity="0.0" d="m618.0945 431.11548l78.834656 0l0 42.015747l-78.834656 0z" fill-rule="evenodd"/><path fill="#000000" d="m638.3485 461.58237q-0.46875 0 -0.8125 -0.0625q-0.34375 -0.0625 -0.59375 -0.15625l0 -1.453125q0.3125 0.078125 0.671875 0.125q0.34375 0.046875 0.75 0.046875q0.34375 0 0.6875 -0.09375q0.34375 -0.078125 0.609375 -0.3125q0.28125 -0.21875 0.453125 -0.625q0.171875 -0.390625 0.171875 -1.015625l0 -13.3125l1.703125 0l0 13.125q0 0.96875 -0.265625 1.65625q-0.265625 0.703125 -0.75 1.15625q-0.46875 0.46875 -1.140625 0.6875q-0.671875 0.234375 -1.484375 0.234375zm15.055786 -8.5625q0 1.25 -0.3125 2.21875q-0.296875 0.96875 -0.875 1.625q-0.5625 0.65625 -1.375 1.015625q-0.796875 0.34375 -1.8125 0.34375q-0.9375 0 -1.734375 -0.34375q-0.796875 -0.359375 -1.375 -1.015625q-0.578125 -0.65625 -0.90625 -1.625q-0.3125 -0.96875 -0.3125 -2.21875q0 -1.25 0.296875 -2.203125q0.3125 -0.96875 0.875 -1.625q0.5625 -0.65625 1.375 -1.0q0.828125 -0.34375 1.828125 -0.34375q0.9375 0 1.734375 0.34375q0.796875 0.34375 1.375 1.0q0.578125 0.65625 0.890625 1.625q0.328125 0.953125 0.328125 2.203125zm-7.0 0q0 1.90625 0.625 2.875q0.625 0.953125 2.03125 0.953125q1.40625 0 2.015625 -0.953125q0.625 -0.96875 0.625 -2.875q0 -1.90625 -0.625 -2.84375q-0.625 -0.953125 -2.03125 -0.953125q-1.40625 0 -2.03125 0.953125q-0.609375 0.9375 -0.609375 2.84375zm15.861206 5.015625l0 -6.4375q0 -1.1875 -0.484375 -1.78125q-0.46875 -0.59375 -1.484375 -0.59375q-0.734375 0 -1.234375 0.25q-0.5 0.234375 -0.8125 0.703125q-0.3125 0.453125 -0.4375 1.125q-0.125 0.671875 -0.125 1.546875l0 5.1875l-1.671875 0l0 -14.171875l1.671875 0l0 4.203125l-0.078125 1.3125l0.09375 0q0.21875 -0.390625 0.53125 -0.671875q0.328125 -0.296875 0.6875 -0.484375q0.375 -0.1875 0.796875 -0.28125q0.421875 -0.09375 0.859375 -0.09375q1.671875 0 2.5 0.875q0.84375 0.875 0.84375 2.78125l0 6.53125l-1.65625 0zm10.986023 0l0 -6.4375q0 -1.1875 -0.484375 -1.78125q-0.46875 -0.59375 -1.484375 -0.59375q-0.734375 0 -1.234375 0.25q-0.5 0.234375 -0.8125 0.703125q-0.3125 0.453125 -0.4375 1.125q-0.125 0.671875 -0.125 1.546875l0 5.1875l-1.671875 0l0 -10.0l1.359375 0l0.234375 1.34375l0.09375 0q0.21875 -0.390625 0.53125 -0.671875q0.328125 -0.296875 0.6875 -0.484375q0.375 -0.1875 0.796875 -0.28125q0.421875 -0.09375 0.859375 -0.09375q1.671875 0 2.5 0.875q0.84375 0.875 0.84375 2.78125l0 6.53125l-1.65625 0z" fill-rule="nonzero"/><path fill="#000000" fill-opacity="0.0" d="m452.50394 405.54724l78.834625 0l0 42.015747l-78.834625 0z" fill-rule="evenodd"/><path fill="#000000" d="m483.48547 423.04538q0 0.828125 -0.25 1.59375q-0.25 0.765625 -0.828125 1.359375q-0.578125 0.578125 -1.515625 0.9375q-0.9375 0.34375 -2.328125 0.34375l-1.375 0l0 5.1875l-1.6875 0l0 -13.3125l3.296875 0q1.21875 0 2.09375 0.265625q0.890625 0.25 1.46875 0.75q0.578125 0.484375 0.84375 1.21875q0.28125 0.734375 0.28125 1.65625zm-6.296875 2.796875l1.1875 0q0.84375 0 1.46875 -0.140625q0.640625 -0.15625 1.046875 -0.46875q0.421875 -0.328125 0.625 -0.84375q0.21875 -0.515625 0.21875 -1.25q0 -1.296875 -0.75 -1.921875q-0.75 -0.625 -2.328125 -0.625l-1.46875 0l0 5.25zm14.467957 6.625l-0.328125 -1.390625l-0.078125 0q-0.296875 0.421875 -0.609375 0.71875q-0.296875 0.296875 -0.65625 0.484375q-0.34375 0.1875 -0.78125 0.28125q-0.4375 0.09375 -1.015625 0.09375q-0.625 0 -1.15625 -0.1875q-0.53125 -0.171875 -0.921875 -0.53125q-0.375 -0.375 -0.59375 -0.9375q-0.21875 -0.5625 -0.21875 -1.328125q0 -1.5 1.046875 -2.296875q1.046875 -0.796875 3.203125 -0.875l1.671875 -0.0625l0 -0.625q0 -0.609375 -0.140625 -1.015625q-0.125 -0.421875 -0.375 -0.671875q-0.25 -0.25 -0.625 -0.359375q-0.359375 -0.109375 -0.828125 -0.109375q-0.765625 0 -1.421875 0.21875q-0.640625 0.21875 -1.234375 0.53125l-0.59375 -1.25q0.671875 -0.359375 1.5 -0.609375q0.84375 -0.265625 1.75 -0.265625q0.921875 0 1.59375 0.1875q0.6875 0.1875 1.125 0.59375q0.453125 0.40625 0.671875 1.03125q0.21875 0.625 0.21875 1.53125l0 6.84375l-1.203125 0zm-3.03125 -1.15625q0.546875 0 1.015625 -0.171875q0.484375 -0.171875 0.828125 -0.515625q0.34375 -0.359375 0.53125 -0.890625q0.203125 -0.53125 0.203125 -1.25l0 -0.90625l-1.296875 0.0625q-0.828125 0.03125 -1.390625 0.1875q-0.546875 0.140625 -0.875 0.40625q-0.328125 0.25 -0.484375 0.625q-0.140625 0.359375 -0.140625 0.828125q0 0.84375 0.4375 1.234375q0.453125 0.390625 1.171875 0.390625zm13.777039 1.15625l-0.25 -1.34375l-0.09375 0q-0.21875 0.390625 -0.53125 0.6875q-0.3125 0.28125 -0.6875 0.46875q-0.375 0.1875 -0.796875 0.28125q-0.421875 0.09375 -0.859375 0.09375q-0.828125 0 -1.453125 -0.203125q-0.625 -0.21875 -1.046875 -0.65625q-0.421875 -0.453125 -0.640625 -1.140625q-0.203125 -0.703125 -0.203125 -1.65625l0 -6.53125l1.65625 0l0 6.4375q0 1.1875 0.484375 1.78125q0.484375 0.59375 1.484375 0.59375q0.734375 0 1.234375 -0.234375q0.515625 -0.25 0.8125 -0.703125q0.3125 -0.46875 0.4375 -1.140625q0.140625 -0.671875 0.140625 -1.546875l0 -5.1875l1.65625 0l0 10.0l-1.34375 0zm6.1735535 0l-1.671875 0l0 -14.171875l1.671875 0l0 14.171875z" fill-rule="nonzero"/><path fill="#000000" fill-opacity="0.0" d="m606.9554 234.99475l101.102356 0l0 42.015747l-101.102356 0z" fill-rule="evenodd"/><path fill="#000000" d="m634.3653 254.8835l4.40625 0l0 6.5312347q-0.5 0.15625 -1.015625 0.296875q-0.5 0.125 -1.046875 0.203125q-0.53125 0.09375 -1.125 0.140625q-0.59375 0.046875 -1.28125 0.046875q-1.421875 0 -2.53125 -0.484375q-1.09375 -0.484375 -1.859375 -1.359375q-0.75 -0.890625 -1.140625 -2.15625q-0.390625 -1.28125 -0.390625 -2.8593597q0 -1.578125 0.421875 -2.84375q0.4375 -1.265625 1.265625 -2.140625q0.828125 -0.890625 2.046875 -1.375q1.21875 -0.484375 2.78125 -0.484375q1.0 0 1.921875 0.203125q0.9375 0.203125 1.75 0.59375l-0.65625 1.46875q-0.328125 -0.15625 -0.71875 -0.28125q-0.375 -0.140625 -0.78125 -0.25q-0.390625 -0.109375 -0.8125 -0.171875q-0.421875 -0.0625 -0.84375 -0.0625q-1.109375 0 -1.96875 0.375q-0.859375 0.359375 -1.4375 1.0625q-0.578125 0.6875 -0.875 1.6875q-0.296875 0.984375 -0.296875 2.234375q0 1.1874847 0.25 2.1718597q0.25 0.984375 0.796875 1.6875q0.546875 0.703125 1.40625 1.109375q0.875 0.390625 2.09375 0.390625q0.390625 0 0.71875 -0.015625q0.34375 -0.03125 0.625 -0.0625q0.28125 -0.046875 0.53125 -0.09375q0.25 -0.046875 0.484375 -0.09375l0 -3.96875l-2.71875 0l0 -1.4999847zm11.278015 7.2187347q-1.0 0 -1.828125 -0.328125q-0.828125 -0.34375 -1.421875 -0.984375q-0.59375 -0.65625 -0.921875 -1.609375q-0.328125 -0.96875 -0.328125 -2.1875q0 -1.2499847 0.296875 -2.2187347q0.296875 -0.96875 0.84375 -1.640625q0.546875 -0.6875 1.3125 -1.046875q0.765625 -0.359375 1.6875 -0.359375q0.890625 0 1.609375 0.328125q0.71875 0.328125 1.21875 0.921875q0.515625 0.578125 0.78125 1.40625q0.265625 0.8125 0.265625 1.8124847l0 1.03125l-6.3125 0q0.046875 1.765625 0.75 2.59375q0.703125 0.828125 2.078125 0.828125q0.453125 0 0.84375 -0.046875q0.40625 -0.046875 0.765625 -0.125q0.375 -0.09375 0.71875 -0.21875q0.359375 -0.140625 0.703125 -0.296875l0 1.46875q-0.359375 0.171875 -0.71875 0.3125q-0.34375 0.125 -0.71875 0.203125q-0.359375 0.078125 -0.765625 0.109375q-0.390625 0.046875 -0.859375 0.046875zm-0.40625 -8.999985q-1.03125 0 -1.640625 0.71875q-0.609375 0.703125 -0.703125 2.0625l4.484375 0q0 -0.625 -0.125 -1.125q-0.125 -0.515625 -0.390625 -0.875q-0.25 -0.375 -0.65625 -0.578125q-0.40625 -0.203125 -0.96875 -0.203125zm14.593384 3.7968597q0 1.25 -0.3125 2.21875q-0.296875 0.96875 -0.875 1.625q-0.5625 0.65625 -1.375 1.015625q-0.796875 0.34375 -1.8125 0.34375q-0.9375 0 -1.734375 -0.34375q-0.796875 -0.359375 -1.375 -1.015625q-0.578125 -0.65625 -0.90625 -1.625q-0.3125 -0.96875 -0.3125 -2.21875q0 -1.2499847 0.296875 -2.2031097q0.3125 -0.96875 0.875 -1.625q0.5625 -0.65625 1.375 -1.0q0.828125 -0.34375 1.828125 -0.34375q0.9375 0 1.734375 0.34375q0.796875 0.34375 1.375 1.0q0.578125 0.65625 0.890625 1.625q0.328125 0.953125 0.328125 2.2031097zm-7.0 0q0 1.90625 0.625 2.875q0.625 0.953125 2.03125 0.953125q1.40625 0 2.015625 -0.953125q0.625 -0.96875 0.625 -2.875q0 -1.9062347 -0.625 -2.8437347q-0.625 -0.953125 -2.03125 -0.953125q-1.40625 0 -2.03125 0.953125q-0.609375 0.9375 -0.609375 2.8437347zm13.93927 -5.1718597q0.265625 0 0.59375 0.03125q0.328125 0.015625 0.5625 0.0625l-0.21875 1.53125q-0.25 -0.046875 -0.515625 -0.078125q-0.265625 -0.03125 -0.5 -0.03125q-0.578125 0 -1.0625 0.234375q-0.46875 0.234375 -0.8125 0.671875q-0.34375 0.421875 -0.53125 1.03125q-0.171875 0.609375 -0.171875 1.3437347l0 5.390625l-1.671875 0l0 -9.999985l1.359375 0l0.203125 1.828125l0.0625 0q0.234375 -0.390625 0.484375 -0.75q0.265625 -0.375 0.578125 -0.640625q0.328125 -0.28125 0.734375 -0.453125q0.40625 -0.171875 0.90625 -0.171875zm10.650757 0.1875l0 1.03125l-1.796875 0.234375q0.25 0.328125 0.421875 0.828125q0.171875 0.484375 0.171875 1.125q0 0.6875 -0.21875 1.2812347q-0.203125 0.578125 -0.640625 1.015625q-0.421875 0.421875 -1.0625 0.671875q-0.640625 0.234375 -1.484375 0.234375q-0.203125 0 -0.40625 0q-0.203125 -0.015625 -0.328125 -0.03125q-0.15625 0.078125 -0.3125 0.203125q-0.140625 0.109375 -0.265625 0.265625q-0.125 0.140625 -0.203125 0.328125q-0.078125 0.171875 -0.078125 0.390625q0 0.25 0.109375 0.40625q0.109375 0.140625 0.296875 0.21875q0.1875 0.078125 0.4375 0.109375q0.265625 0.03125 0.546875 0.03125l1.59375 0q0.859375 0 1.4375 0.21875q0.578125 0.203125 0.953125 0.578125q0.375 0.359375 0.53125 0.859375q0.171875 0.484375 0.171875 1.046875q0 0.796875 -0.296875 1.4375q-0.296875 0.640625 -0.921875 1.078125q-0.609375 0.453125 -1.546875 0.6875q-0.921875 0.234375 -2.1875 0.234375q-0.96875 0 -1.703064 -0.203125q-0.734375 -0.1875 -1.21875 -0.546875q-0.484375 -0.359375 -0.71875 -0.875q-0.234375 -0.515625 -0.234375 -1.171875q0 -0.546875 0.171875 -0.96875q0.171875 -0.40625 0.46875 -0.703125q0.3125 -0.296875 0.703125 -0.484375q0.40625 -0.203125 0.828125 -0.296875q-0.390625 -0.171875 -0.640625 -0.546875q-0.234375 -0.375 -0.234375 -0.859375q0 -0.546875 0.28125 -0.953125q0.296875 -0.40625 0.92181396 -0.796875q-0.39056396 -0.15625 -0.71868896 -0.4375q-0.3125 -0.296875 -0.546875 -0.65625q-0.21875 -0.375 -0.34375 -0.8125q-0.109375 -0.43748474 -0.109375 -0.90623474q0 -0.8125 0.21875 -1.4375q0.234375 -0.640625 0.671875 -1.078125q0.453125 -0.453125 1.109314 -0.6875q0.671875 -0.25 1.5625 -0.25q0.328125 0 0.6875 0.0625q0.359375 0.046875 0.609375 0.125l3.3125 0zm-7.390564 11.64061q0 0.34375 0.109375 0.625q0.125 0.296875 0.390625 0.5q0.265625 0.21875 0.70306396 0.328125q0.453125 0.125 1.109375 0.125q1.6875 0 2.53125 -0.53125q0.84375 -0.515625 0.84375 -1.5q0 -0.40625 -0.109375 -0.671875q-0.109375 -0.265625 -0.359375 -0.421875q-0.25 -0.140625 -0.65625 -0.1875q-0.40625 -0.0625 -1.0 -0.0625l-1.609375 0q-0.3125 0 -0.671875 0.078125q-0.34375 0.0625 -0.62493896 0.25q-0.28125 0.203125 -0.46875 0.546875q-0.1875 0.359375 -0.1875 0.921875zm0.828125 -8.42186q0 1.0468597 0.48431396 1.5624847q0.5 0.5 1.40625 0.5q0.90625 0 1.375 -0.5q0.484375 -0.515625 0.484375 -1.5937347q0 -1.125 -0.484375 -1.640625q-0.484375 -0.53125 -1.390625 -0.53125q-0.90625 0 -1.390625 0.546875q-0.48431396 0.546875 -0.48431396 1.65625zm12.462036 6.9687347q-1.0 0 -1.828125 -0.328125q-0.828125 -0.34375 -1.421875 -0.984375q-0.59375 -0.65625 -0.921875 -1.609375q-0.328125 -0.96875 -0.328125 -2.1875q0 -1.2499847 0.296875 -2.2187347q0.296875 -0.96875 0.84375 -1.640625q0.546875 -0.6875 1.3125 -1.046875q0.765625 -0.359375 1.6875 -0.359375q0.890625 0 1.609375 0.328125q0.71875 0.328125 1.21875 0.921875q0.515625 0.578125 0.78125 1.40625q0.265625 0.8125 0.265625 1.8124847l0 1.03125l-6.3125 0q0.046875 1.765625 0.75 2.59375q0.703125 0.828125 2.078125 0.828125q0.453125 0 0.84375 -0.046875q0.40625 -0.046875 0.765625 -0.125q0.375 -0.09375 0.71875 -0.21875q0.359375 -0.140625 0.703125 -0.296875l0 1.46875q-0.359375 0.171875 -0.71875 0.3125q-0.34375 0.125 -0.71875 0.203125q-0.359375 0.078125 -0.765625 0.109375q-0.390625 0.046875 -0.859375 0.046875zm-0.40625 -8.999985q-1.03125 0 -1.640625 0.71875q-0.609375 0.703125 -0.703125 2.0625l4.484375 0q0 -0.625 -0.125 -1.125q-0.125 -0.515625 -0.390625 -0.875q-0.25 -0.375 -0.65625 -0.578125q-0.40625 -0.203125 -0.96875 -0.203125z" fill-rule="nonzero"/><path fill="#000000" fill-opacity="0.0" d="m719.4698 587.48816l91.21265 0l0 42.01581l-91.21265 0z" fill-rule="evenodd"/><path fill="#000000" d="m744.9506 608.9082l0 5.5l-1.6875 0l0 -13.3125l3.25 0q2.421875 0 3.578125 0.9375q1.15625 0.9375 1.15625 2.84375q0 0.78125 -0.234375 1.375q-0.21875 0.59375 -0.59375 1.015625q-0.359375 0.421875 -0.84375 0.703125q-0.46875 0.28125 -0.96875 0.46875l3.625 5.96875l-1.984375 0l-3.203125 -5.5l-2.09375 0zm0 -1.4375l1.5 0q0.828125 0 1.390625 -0.15625q0.578125 -0.171875 0.9375 -0.484375q0.375 -0.3125 0.546875 -0.78125q0.171875 -0.46875 0.171875 -1.09375q0 -0.65625 -0.1875 -1.109375q-0.1875 -0.453125 -0.5625 -0.75q-0.375 -0.296875 -0.96875 -0.421875q-0.578125 -0.140625 -1.359375 -0.140625l-1.46875 0l0 4.9375zm10.754272 6.9375l-1.671875 0l0 -10.0l1.671875 0l0 10.0zm-1.796875 -12.703125q0 -0.546875 0.28125 -0.796875q0.28125 -0.25 0.6875 -0.25q0.203125 0 0.375 0.0625q0.1875 0.0625 0.3125 0.1875q0.140625 0.125 0.203125 0.328125q0.078125 0.1875 0.078125 0.46875q0 0.53125 -0.28125 0.796875q-0.28125 0.25 -0.6875 0.25q-0.40625 0 -0.6875 -0.25q-0.28125 -0.265625 -0.28125 -0.796875zm11.203064 12.703125l0 -6.4375q0 -1.1875 -0.484375 -1.78125q-0.46875 -0.59375 -1.484375 -0.59375q-0.734375 0 -1.234375 0.25q-0.5 0.234375 -0.8125 0.703125q-0.3125 0.453125 -0.4375 1.125q-0.125 0.671875 -0.125 1.546875l0 5.1875l-1.671875 0l0 -10.0l1.359375 0l0.234375 1.34375l0.09375 0q0.21875 -0.390625 0.53125 -0.671875q0.328125 -0.296875 0.6875 -0.484375q0.375 -0.1875 0.796875 -0.28125q0.421875 -0.09375 0.859375 -0.09375q1.671875 0 2.5 0.875q0.84375 0.875 0.84375 2.78125l0 6.53125l-1.65625 0zm12.454773 -10.0l0 1.03125l-1.796875 0.234375q0.25 0.328125 0.421875 0.828125q0.171875 0.484375 0.171875 1.125q0 0.6875 -0.21875 1.28125q-0.203125 0.578125 -0.640625 1.015625q-0.421875 0.421875 -1.0625 0.671875q-0.640625 0.234375 -1.484375 0.234375q-0.203125 0 -0.40625 0q-0.203125 -0.015625 -0.328125 -0.03125q-0.15625 0.078125 -0.3125 0.203125q-0.140625 0.109375 -0.265625 0.265625q-0.125 0.140625 -0.203125 0.328125q-0.078125 0.171875 -0.078125 0.390625q0 0.25 0.109375 0.40625q0.109375 0.140625 0.296875 0.21875q0.1875 0.078125 0.4375 0.109375q0.265625 0.03125 0.546875 0.03125l1.59375 0q0.859375 0 1.4375 0.21875q0.578125 0.203125 0.953125 0.578125q0.375 0.359375 0.53125 0.859375q0.171875 0.484375 0.171875 1.046875q0 0.796875 -0.296875 1.4375q-0.296875 0.640625 -0.921875 1.078125q-0.609375 0.453125 -1.546875 0.6875q-0.921875 0.234375 -2.1875 0.234375q-0.96875 0 -1.703125 -0.203125q-0.734375 -0.1875 -1.21875 -0.546875q-0.484375 -0.359375 -0.71875 -0.875q-0.234375 -0.515625 -0.234375 -1.171875q0 -0.546875 0.171875 -0.96875q0.171875 -0.40625 0.46875 -0.703125q0.3125 -0.296875 0.703125 -0.484375q0.40625 -0.203125 0.828125 -0.296875q-0.390625 -0.171875 -0.640625 -0.546875q-0.234375 -0.375 -0.234375 -0.859375q0 -0.546875 0.28125 -0.953125q0.296875 -0.40625 0.921875 -0.796875q-0.390625 -0.15625 -0.71875 -0.4375q-0.3125 -0.296875 -0.546875 -0.65625q-0.21875 -0.375 -0.34375 -0.8125q-0.109375 -0.4375 -0.109375 -0.90625q0 -0.8125 0.21875 -1.4375q0.234375 -0.640625 0.671875 -1.078125q0.453125 -0.453125 1.109375 -0.6875q0.671875 -0.25 1.5625 -0.25q0.328125 0 0.6875 0.0625q0.359375 0.046875 0.609375 0.125l3.3125 0zm-7.390625 11.640625q0 0.34375 0.109375 0.625q0.125 0.296875 0.390625 0.5q0.265625 0.21875 0.703125 0.328125q0.453125 0.125 1.109375 0.125q1.6875 0 2.53125 -0.53125q0.84375 -0.515625 0.84375 -1.5q0 -0.40625 -0.109375 -0.671875q-0.109375 -0.265625 -0.359375 -0.421875q-0.25 -0.140625 -0.65625 -0.1875q-0.40625 -0.0625 -1.0 -0.0625l-1.609375 0q-0.3125 0 -0.671875 0.078125q-0.34375 0.0625 -0.625 0.25q-0.28125 0.203125 -0.46875 0.546875q-0.1875 0.359375 -0.1875 0.921875zm0.828125 -8.421875q0 1.046875 0.484375 1.5625q0.5 0.5 1.40625 0.5q0.90625 0 1.375 -0.5q0.484375 -0.515625 0.484375 -1.59375q0 -1.125 -0.484375 -1.640625q-0.484375 -0.53125 -1.390625 -0.53125q-0.90625 0 -1.390625 0.546875q-0.484375 0.546875 -0.484375 1.65625zm16.665161 1.765625q0 1.25 -0.3125 2.21875q-0.296875 0.96875 -0.875 1.625q-0.5625 0.65625 -1.375 1.015625q-0.796875 0.34375 -1.8125 0.34375q-0.9375 0 -1.734375 -0.34375q-0.796875 -0.359375 -1.375 -1.015625q-0.578125 -0.65625 -0.90625 -1.625q-0.3125 -0.96875 -0.3125 -2.21875q0 -1.25 0.296875 -2.203125q0.3125 -0.96875 0.875 -1.625q0.5625 -0.65625 1.375 -1.0q0.828125 -0.34375 1.828125 -0.34375q0.9375 0 1.734375 0.34375q0.796875 0.34375 1.375 1.0q0.578125 0.65625 0.890625 1.625q0.328125 0.953125 0.328125 2.203125zm-7.0 0q0 1.90625 0.625 2.875q0.625 0.953125 2.03125 0.953125q1.40625 0 2.015625 -0.953125q0.625 -0.96875 0.625 -2.875q0 -1.90625 -0.625 -2.84375q-0.625 -0.953125 -2.03125 -0.953125q-1.40625 0 -2.03125 0.953125q-0.609375 0.9375 -0.609375 2.84375z" fill-rule="nonzero"/><path fill="#000000" fill-opacity="0.0" d="m297.99738 531.50397l91.212585 0l0 42.015747l-91.212585 0z" fill-rule="evenodd"/><path fill="#000000" d="m330.42627 546.4083q-0.96875 0 -1.765625 0.375q-0.78125 0.359375 -1.34375 1.0625q-0.5625 0.6875 -0.875 1.6875q-0.296875 0.984375 -0.296875 2.234375q0 1.28125 0.265625 2.28125q0.265625 1.0 0.796875 1.6875q0.546875 0.671875 1.34375 1.03125q0.8125 0.359375 1.875 0.359375q0.8125 0 1.53125 -0.15625q0.734375 -0.171875 1.453125 -0.375l0 1.46875q-0.359375 0.140625 -0.71875 0.25q-0.34375 0.09375 -0.734375 0.15625q-0.390625 0.078125 -0.828125 0.109375q-0.4375 0.03125 -0.984375 0.03125q-1.484375 0 -2.578125 -0.484375q-1.09375 -0.5 -1.8125 -1.40625q-0.71875 -0.90625 -1.0625 -2.171875q-0.34375 -1.265625 -0.34375 -2.796875q0 -1.515625 0.390625 -2.765625q0.40625 -1.265625 1.171875 -2.15625q0.765625 -0.90625 1.90625 -1.40625q1.140625 -0.515625 2.609375 -0.515625q0.984375 0 1.875 0.203125q0.90625 0.203125 1.625 0.59375l-0.71875 1.40625q-0.578125 -0.28125 -1.25 -0.484375q-0.671875 -0.21875 -1.53125 -0.21875zm9.562714 12.203125q-1.0 0 -1.828125 -0.328125q-0.828125 -0.34375 -1.421875 -0.984375q-0.59375 -0.65625 -0.921875 -1.609375q-0.328125 -0.96875 -0.328125 -2.1875q0 -1.25 0.296875 -2.21875q0.296875 -0.96875 0.84375 -1.640625q0.546875 -0.6875 1.3125 -1.046875q0.765625 -0.359375 1.6875 -0.359375q0.890625 0 1.609375 0.328125q0.71875 0.328125 1.21875 0.921875q0.515625 0.578125 0.78125 1.40625q0.265625 0.8125 0.265625 1.8125l0 1.03125l-6.3125 0q0.046875 1.765625 0.75 2.59375q0.703125 0.828125 2.078125 0.828125q0.453125 0 0.84375 -0.046875q0.40625 -0.046875 0.765625 -0.125q0.375 -0.09375 0.71875 -0.21875q0.359375 -0.140625 0.703125 -0.296875l0 1.46875q-0.359375 0.171875 -0.71875 0.3125q-0.34375 0.125 -0.71875 0.203125q-0.359375 0.078125 -0.765625 0.109375q-0.390625 0.046875 -0.859375 0.046875zm-0.40625 -9.0q-1.03125 0 -1.640625 0.71875q-0.609375 0.703125 -0.703125 2.0625l4.484375 0q0 -0.625 -0.125 -1.125q-0.125 -0.515625 -0.390625 -0.875q-0.25 -0.375 -0.65625 -0.578125q-0.40625 -0.203125 -0.96875 -0.203125zm8.109009 8.8125l-1.671875 0l0 -14.171875l1.671875 0l0 14.171875zm4.8280334 0l-1.671875 0l0 -10.0l1.671875 0l0 10.0zm-1.796875 -12.703125q0 -0.546875 0.28125 -0.796875q0.28125 -0.25 0.6875 -0.25q0.203125 0 0.375 0.0625q0.1875 0.0625 0.3125 0.1875q0.140625 0.125 0.203125 0.328125q0.078125 0.1875 0.078125 0.46875q0 0.53125 -0.28125 0.796875q-0.28125 0.25 -0.6875 0.25q-0.40625 0 -0.6875 -0.25q-0.28125 -0.265625 -0.28125 -0.796875zm10.593658 12.703125l-0.328125 -1.390625l-0.078125 0q-0.296875 0.421875 -0.609375 0.71875q-0.296875 0.296875 -0.65625 0.484375q-0.34375 0.1875 -0.78125 0.28125q-0.4375 0.09375 -1.015625 0.09375q-0.625 0 -1.15625 -0.1875q-0.53125 -0.171875 -0.921875 -0.53125q-0.375 -0.375 -0.59375 -0.9375q-0.21875 -0.5625 -0.21875 -1.328125q0 -1.5 1.046875 -2.296875q1.046875 -0.796875 3.203125 -0.875l1.671875 -0.0625l0 -0.625q0 -0.609375 -0.140625 -1.015625q-0.125 -0.421875 -0.375 -0.671875q-0.25 -0.25 -0.625 -0.359375q-0.359375 -0.109375 -0.828125 -0.109375q-0.765625 0 -1.421875 0.21875q-0.640625 0.21875 -1.234375 0.53125l-0.59375 -1.25q0.671875 -0.359375 1.5 -0.609375q0.84375 -0.265625 1.75 -0.265625q0.921875 0 1.59375 0.1875q0.6875 0.1875 1.125 0.59375q0.453125 0.40625 0.671875 1.03125q0.21875 0.625 0.21875 1.53125l0 6.84375l-1.203125 0zm-3.03125 -1.15625q0.546875 0 1.015625 -0.171875q0.484375 -0.171875 0.828125 -0.515625q0.34375 -0.359375 0.53125 -0.890625q0.203125 -0.53125 0.203125 -1.25l0 -0.90625l-1.296875 0.0625q-0.828125 0.03125 -1.390625 0.1875q-0.546875 0.140625 -0.875 0.40625q-0.328125 0.25 -0.484375 0.625q-0.140625 0.359375 -0.140625 0.828125q0 0.84375 0.4375 1.234375q0.453125 0.390625 1.171875 0.390625z" fill-rule="nonzero"/><path fill="#000000" fill-opacity="0.0" d="m537.5801 689.1811l91.212585 0l0 42.015747l-91.212585 0z" fill-rule="evenodd"/><path fill="#000000" d="m577.28754 706.6792q0 0.828125 -0.25 1.59375q-0.25 0.765625 -0.828125 1.359375q-0.578125 0.578125 -1.515625 0.9375q-0.9375 0.34375 -2.328125 0.34375l-1.375 0l0 5.1875l-1.6875 0l0 -13.3125l3.296875 0q1.21875 0 2.09375 0.265625q0.890625 0.25 1.46875 0.75q0.578125 0.484375 0.84375 1.21875q0.28125 0.734375 0.28125 1.65625zm-6.296875 2.796875l1.1875 0q0.84375 0 1.46875 -0.140625q0.640625 -0.15625 1.046875 -0.46875q0.421875 -0.328125 0.625 -0.84375q0.21875 -0.515625 0.21875 -1.25q0 -1.296875 -0.75 -1.921875q-0.75 -0.625 -2.328125 -0.625l-1.46875 0l0 5.25zm15.077332 6.625l0 -6.4375q0 -1.1875 -0.484375 -1.78125q-0.46875 -0.59375 -1.484375 -0.59375q-0.734375 0 -1.234375 0.25q-0.5 0.234375 -0.8125 0.703125q-0.3125 0.453125 -0.4375 1.125q-0.125 0.671875 -0.125 1.546875l0 5.1875l-1.671875 0l0 -14.171875l1.671875 0l0 4.203125l-0.078125 1.3125l0.09375 0q0.21875 -0.390625 0.53125 -0.671875q0.328125 -0.296875 0.6875 -0.484375q0.375 -0.1875 0.796875 -0.28125q0.421875 -0.09375 0.859375 -0.09375q1.671875 0 2.5 0.875q0.84375 0.875 0.84375 2.78125l0 6.53125l-1.65625 0zm6.407959 0l-1.671875 0l0 -10.0l1.671875 0l0 10.0zm-1.796875 -12.703125q0 -0.546875 0.28125 -0.796875q0.28125 -0.25 0.6875 -0.25q0.203125 0 0.375 0.0625q0.1875 0.0625 0.3125 0.1875q0.140625 0.125 0.203125 0.328125q0.078125 0.1875 0.078125 0.46875q0 0.53125 -0.28125 0.796875q-0.28125 0.25 -0.6875 0.25q-0.40625 0 -0.6875 -0.25q-0.28125 -0.265625 -0.28125 -0.796875zm6.624878 12.703125l-1.671875 0l0 -14.171875l1.671875 0l0 14.171875z" fill-rule="nonzero"/><path fill="#000000" fill-opacity="0.0" d="m831.6378 136.61417l91.212585 0l0 42.015762l-91.212585 0z" fill-rule="evenodd"/><path fill="#000000" d="m861.4616 150.22166l3.640625 0q1.15625 0 2.046875 0.171875q0.890625 0.171875 1.484375 0.578125q0.59375 0.390625 0.890625 1.03125q0.3125 0.640625 0.3125 1.578125q0 0.578125 -0.1875 1.0625q-0.171875 0.484375 -0.515625 0.859375q-0.328125 0.375 -0.828125 0.625q-0.5 0.25 -1.125 0.34375l0 0.078125q0.625 0.109375 1.171875 0.328125q0.5625 0.203125 0.96875 0.5625q0.40625 0.359375 0.640625 0.90625q0.25 0.546875 0.25 1.328125q0 0.90625 -0.296875 1.625q-0.296875 0.71875 -0.859375 1.21875q-0.5625 0.484375 -1.375 0.75q-0.796875 0.265625 -1.796875 0.265625l-4.421875 0l0 -13.3125zm1.6875 5.640625l2.234375 0q0.765625 0 1.28125 -0.125q0.515625 -0.140625 0.828125 -0.40625q0.328125 -0.28125 0.46875 -0.6875q0.140625 -0.40625 0.140625 -0.9375q0 -1.09375 -0.703125 -1.5625q-0.703125 -0.484375 -2.21875 -0.484375l-2.03125 0l0 4.203125zm0 1.421875l0 4.8125l2.4375 0q0.796875 0 1.328125 -0.171875q0.546875 -0.1875 0.875 -0.515625q0.34375 -0.328125 0.484375 -0.78125q0.140625 -0.46875 0.140625 -1.03125q0 -0.515625 -0.15625 -0.9375q-0.140625 -0.421875 -0.484375 -0.71875q-0.34375 -0.3125 -0.90625 -0.484375q-0.5625 -0.171875 -1.390625 -0.171875l-2.328125 0zm11.33728 6.25l-1.671875 0l0 -10.0l1.671875 0l0 10.0zm-1.796875 -12.703125q0 -0.546875 0.28125 -0.796875q0.28125 -0.25 0.6875 -0.25q0.203125 0 0.375 0.0625q0.1875 0.0625 0.3125 0.1875q0.140625 0.125 0.203125 0.328125q0.078125 0.1875 0.078125 0.46875q0 0.53125 -0.28125 0.796875q-0.28125 0.25 -0.6875 0.25q-0.40625 0 -0.6875 -0.25q-0.28125 -0.265625 -0.28125 -0.796875zm6.624878 12.703125l-1.671875 0l0 -14.171875l1.671875 0l0 14.171875zm4.828064 0l-1.671875 0l0 -14.171875l1.671875 0l0 14.171875zm1.6717529 -10.0l1.71875 0l1.953125 5.578125q0.140625 0.375 0.265625 0.78125q0.125 0.390625 0.234375 0.796875q0.125 0.390625 0.203125 0.765625q0.09375 0.375 0.125 0.6875l0.046875 0q0.046875 -0.21875 0.140625 -0.609375q0.109375 -0.390625 0.234375 -0.828125q0.125 -0.453125 0.25 -0.875q0.140625 -0.4375 0.234375 -0.734375l1.8125 -5.5625l1.71875 0l-3.953125 11.296875q-0.265625 0.75 -0.5625 1.328125q-0.28125 0.59375 -0.6875 1.0q-0.390625 0.40625 -0.921875 0.625q-0.515625 0.234375 -1.25 0.234375q-0.46875 0 -0.828125 -0.0625q-0.34375 -0.046875 -0.578125 -0.09375l0 -1.328125q0.1875 0.046875 0.46875 0.078125q0.296875 0.03125 0.625 0.03125q0.4375 0 0.75 -0.109375q0.3125 -0.09375 0.546875 -0.296875q0.25 -0.203125 0.40625 -0.5q0.171875 -0.28125 0.3125 -0.65625l0.515625 -1.453125l-3.78125 -10.09375z" fill-rule="nonzero"/><path fill="#000000" fill-opacity="0.0" d="m359.60367 234.97113l91.212616 0l0 42.015747l-91.212616 0z" fill-rule="evenodd"/><path fill="#000000" d="m388.9323 258.3286q0 0.890625 -0.3125 1.59375q-0.3125 0.6875 -0.90625 1.171875q-0.578125 0.484375 -1.421875 0.734375q-0.828125 0.25 -1.875 0.25q-1.015625 0 -1.890625 -0.171875q-0.875 -0.15625 -1.46875 -0.46875l0 -1.609375q0.296875 0.140625 0.6875 0.28125q0.40625 0.140625 0.84375 0.25q0.4375 0.109375 0.90625 0.1875q0.46875 0.0625 0.921875 0.0625q1.453125 0 2.140625 -0.546875q0.703125 -0.546875 0.703125 -1.5625q0 -0.5 -0.140625 -0.859375q-0.125 -0.375 -0.453125 -0.671875q-0.328125 -0.3125 -0.890625 -0.59375q-0.546875 -0.28125 -1.40625 -0.62498474q-0.796875 -0.3125 -1.40625 -0.6875q-0.59375 -0.390625 -0.984375 -0.859375q-0.375 -0.46875 -0.5625 -1.0625q-0.1875 -0.609375 -0.1875 -1.375q0 -0.8125 0.28125 -1.4375q0.296875 -0.625 0.828125 -1.046875q0.53125 -0.4375 1.265625 -0.671875q0.734375 -0.234375 1.609375 -0.234375q1.078125 0 1.9375 0.21875q0.875 0.203125 1.546875 0.515625l-0.609375 1.421875q-0.59375 -0.265625 -1.34375 -0.453125q-0.75 -0.203125 -1.546875 -0.203125q-1.109375 0 -1.71875 0.515625q-0.609375 0.515625 -0.609375 1.390625q0 0.515625 0.125 0.890625q0.140625 0.375 0.453125 0.6875q0.328125 0.3125 0.84375 0.578125q0.53125 0.265625 1.296875 0.5625q0.828125 0.328125 1.453125 0.671875q0.625 0.34375 1.046875 0.78125q0.421875 0.43748474 0.625 1.0156097q0.21875 0.578125 0.21875 1.359375zm8.683411 3.5625l0 -6.4374847q0 -1.1875 -0.484375 -1.78125q-0.46875 -0.59375 -1.484375 -0.59375q-0.734375 0 -1.234375 0.25q-0.5 0.234375 -0.8125 0.703125q-0.3125 0.453125 -0.4375 1.125q-0.125 0.671875 -0.125 1.5468597l0 5.1875l-1.671875 0l0 -14.17186l1.671875 0l0 4.203125l-0.078125 1.3125l0.09375 0q0.21875 -0.390625 0.53125 -0.671875q0.328125 -0.296875 0.6875 -0.484375q0.375 -0.1875 0.796875 -0.28125q0.421875 -0.09375 0.859375 -0.09375q1.671875 0 2.5 0.875q0.84375 0.875 0.84375 2.78125l0 6.5312347l-1.65625 0zm8.689178 0.1875q-1.0 0 -1.828125 -0.328125q-0.828125 -0.34375 -1.421875 -0.984375q-0.59375 -0.65625 -0.921875 -1.609375q-0.328125 -0.96875 -0.328125 -2.1875q0 -1.2499847 0.296875 -2.2187347q0.296875 -0.96875 0.84375 -1.640625q0.546875 -0.6875 1.3125 -1.046875q0.765625 -0.359375 1.6875 -0.359375q0.890625 0 1.609375 0.328125q0.71875 0.328125 1.21875 0.921875q0.515625 0.578125 0.78125 1.40625q0.265625 0.8125 0.265625 1.8124847l0 1.03125l-6.3125 0q0.046875 1.765625 0.75 2.59375q0.703125 0.828125 2.078125 0.828125q0.453125 0 0.84375 -0.046875q0.40625 -0.046875 0.765625 -0.125q0.375 -0.09375 0.71875 -0.21875q0.359375 -0.140625 0.703125 -0.296875l0 1.46875q-0.359375 0.171875 -0.71875 0.3125q-0.34375 0.125 -0.71875 0.203125q-0.359375 0.078125 -0.765625 0.109375q-0.390625 0.046875 -0.859375 0.046875zm-0.40625 -8.999985q-1.03125 0 -1.640625 0.71875q-0.609375 0.703125 -0.703125 2.0625l4.484375 0q0 -0.625 -0.125 -1.125q-0.125 -0.515625 -0.390625 -0.875q-0.25 -0.375 -0.65625 -0.578125q-0.40625 -0.203125 -0.96875 -0.203125zm8.109009 8.812485l-1.671875 0l0 -9.999985l1.671875 0l0 9.999985zm-1.796875 -12.70311q0 -0.546875 0.28125 -0.796875q0.28125 -0.25 0.6875 -0.25q0.203125 0 0.375 0.0625q0.1875 0.0625 0.3125 0.1875q0.140625 0.125 0.203125 0.328125q0.078125 0.1875 0.078125 0.46875q0 0.53125 -0.28125 0.796875q-0.28125 0.25 -0.6875 0.25q-0.40625 0 -0.6875 -0.25q-0.28125 -0.265625 -0.28125 -0.796875zm6.6249084 12.70311l-1.671875 0l0 -14.17186l1.671875 0l0 14.17186zm8.796783 0l-0.328125 -1.390625l-0.078125 0q-0.296875 0.421875 -0.609375 0.71875q-0.296875 0.296875 -0.65625 0.484375q-0.34375 0.1875 -0.78125 0.28125q-0.4375 0.09375 -1.015625 0.09375q-0.625 0 -1.15625 -0.1875q-0.53125 -0.171875 -0.921875 -0.53125q-0.375 -0.375 -0.59375 -0.9375q-0.21875 -0.5625 -0.21875 -1.328125q0 -1.5 1.046875 -2.296875q1.046875 -0.796875 3.203125 -0.87498474l1.671875 -0.0625l0 -0.625q0 -0.609375 -0.140625 -1.015625q-0.125 -0.421875 -0.375 -0.671875q-0.25 -0.25 -0.625 -0.359375q-0.359375 -0.109375 -0.828125 -0.109375q-0.765625 0 -1.421875 0.21875q-0.640625 0.21875 -1.234375 0.53125l-0.59375 -1.25q0.671875 -0.359375 1.5 -0.609375q0.84375 -0.265625 1.75 -0.265625q0.921875 0 1.59375 0.1875q0.6875 0.1875 1.125 0.59375q0.453125 0.40625 0.671875 1.03125q0.21875 0.625 0.21875 1.53125l0 6.8437347l-1.203125 0zm-3.03125 -1.15625q0.546875 0 1.015625 -0.171875q0.484375 -0.171875 0.828125 -0.515625q0.34375 -0.359375 0.53125 -0.890625q0.203125 -0.53125 0.203125 -1.25l0 -0.90625l-1.296875 0.0625q-0.828125 0.03125 -1.390625 0.1875q-0.546875 0.140625 -0.875 0.40625q-0.328125 0.25 -0.484375 0.625q-0.140625 0.359375 -0.140625 0.828125q0 0.84375 0.4375 1.234375q0.453125 0.390625 1.171875 0.390625z" fill-rule="nonzero"/><path fill="#000000" fill-opacity="0.0" d="m774.3412 320.26248l91.21265 0l0 42.015747l-91.21265 0z" fill-rule="evenodd"/><path fill="#000000" d="m805.009 340.5887l3.09375 -6.71875l1.828125 0l-4.0625 8.125l0 5.1875l-1.703125 0l0 -5.09375l-4.0625 -8.21875l1.84375 0l3.0625 6.71875zm13.7276 1.578125q0 1.25 -0.3125 2.21875q-0.296875 0.96875 -0.875 1.625q-0.5625 0.65625 -1.375 1.015625q-0.796875 0.34375 -1.8125 0.34375q-0.9375 0 -1.734375 -0.34375q-0.796875 -0.359375 -1.375 -1.015625q-0.578125 -0.65625 -0.90625 -1.625q-0.3125 -0.96875 -0.3125 -2.21875q0 -1.25 0.296875 -2.203125q0.3125 -0.96875 0.875 -1.625q0.5625 -0.65625 1.375 -1.0q0.828125 -0.34375 1.828125 -0.34375q0.9375 0 1.734375 0.34375q0.796875 0.34375 1.375 1.0q0.578125 0.65625 0.890625 1.625q0.328125 0.953125 0.328125 2.203125zm-7.0 0q0 1.90625 0.625 2.875q0.625 0.953125 2.03125 0.953125q1.40625 0 2.015625 -0.953125q0.625 -0.96875 0.625 -2.875q0 -1.90625 -0.625 -2.84375q-0.625 -0.953125 -2.03125 -0.953125q-1.40625 0 -2.03125 0.953125q-0.609375 0.9375 -0.609375 2.84375zm11.142395 -0.15625l1.234375 -1.546875l2.671875 -3.28125l1.921875 0l-3.65625 4.328125l3.90625 5.671875l-1.90625 0l-3.0625 -4.59375l-1.0 0.75l0 3.84375l-1.640625 0l0 -14.171875l1.640625 0l0 6.5l-0.140625 2.5l0.03125 0zm15.880249 0.15625q0 1.25 -0.3125 2.21875q-0.296875 0.96875 -0.875 1.625q-0.5625 0.65625 -1.375 1.015625q-0.796875 0.34375 -1.8125 0.34375q-0.9375 0 -1.734375 -0.34375q-0.796875 -0.359375 -1.375 -1.015625q-0.578125 -0.65625 -0.90625 -1.625q-0.3125 -0.96875 -0.3125 -2.21875q0 -1.25 0.296875 -2.203125q0.3125 -0.96875 0.875 -1.625q0.5625 -0.65625 1.375 -1.0q0.828125 -0.34375 1.828125 -0.34375q0.9375 0 1.734375 0.34375q0.796875 0.34375 1.375 1.0q0.578125 0.65625 0.890625 1.625q0.328125 0.953125 0.328125 2.203125zm-7.0 0q0 1.90625 0.625 2.875q0.625 0.953125 2.03125 0.953125q1.40625 0 2.015625 -0.953125q0.625 -0.96875 0.625 -2.875q0 -1.90625 -0.625 -2.84375q-0.625 -0.953125 -2.03125 -0.953125q-1.40625 0 -2.03125 0.953125q-0.609375 0.9375 -0.609375 2.84375z" fill-rule="nonzero"/><path fill="#000000" fill-opacity="0.0" d="m954.51447 431.11417l91.212585 0l0 42.015747l-91.212585 0z" fill-rule="evenodd"/><path fill="#000000" d="m979.30524 458.03418l0 -13.3125l1.6875 0l0 11.796875l5.234375 0l0 1.515625l-6.921875 0zm10.601685 0l-1.671875 0l0 -10.0l1.671875 0l0 10.0zm-1.796875 -12.703125q0 -0.546875 0.28125 -0.796875q0.28125 -0.25 0.6875 -0.25q0.203125 0 0.375 0.0625q0.1875 0.0625 0.3125 0.1875q0.140625 0.125 0.203125 0.328125q0.078125 0.1875 0.078125 0.46875q0 0.53125 -0.28125 0.796875q-0.28125 0.25 -0.6875 0.25q-0.40625 0 -0.6875 -0.25q-0.28125 -0.265625 -0.28125 -0.796875zm10.859253 12.703125l-6.734375 0l0 -1.140625l4.875 -7.609375l-4.578125 0l0 -1.25l6.265625 0l0 1.328125l-4.765625 7.421875l4.9375 0l0 1.25zm8.225891 0l-6.734375 0l0 -1.140625l4.875 -7.609375l-4.578125 0l0 -1.25l6.265625 0l0 1.328125l-4.765625 7.421875l4.9375 0l0 1.25zm3.991516 0l-1.671875 0l0 -10.0l1.671875 0l0 10.0zm-1.796875 -12.703125q0 -0.546875 0.28125 -0.796875q0.28125 -0.25 0.6875 -0.25q0.203125 0 0.375 0.0625q0.1875 0.0625 0.3125 0.1875q0.140625 0.125 0.203125 0.328125q0.078125 0.1875 0.078125 0.46875q0 0.53125 -0.28125 0.796875q-0.28125 0.25 -0.6875 0.25q-0.40625 0 -0.6875 -0.25q-0.28125 -0.265625 -0.28125 -0.796875zm8.906128 12.890625q-1.0 0 -1.828125 -0.328125q-0.828125 -0.34375 -1.421875 -0.984375q-0.59375 -0.65625 -0.921875 -1.609375q-0.328125 -0.96875 -0.328125 -2.1875q0 -1.25 0.296875 -2.21875q0.296875 -0.96875 0.84375 -1.640625q0.546875 -0.6875 1.3125 -1.046875q0.765625 -0.359375 1.6875 -0.359375q0.890625 0 1.609375 0.328125q0.71875 0.328125 1.21875 0.921875q0.515625 0.578125 0.78125 1.40625q0.265625 0.8125 0.265625 1.8125l0 1.03125l-6.3125 0q0.046875 1.765625 0.75 2.59375q0.703125 0.828125 2.078125 0.828125q0.453125 0 0.84375 -0.046875q0.40625 -0.046875 0.765625 -0.125q0.375 -0.09375 0.71875 -0.21875q0.359375 -0.140625 0.703125 -0.296875l0 1.46875q-0.359375 0.171875 -0.71875 0.3125q-0.34375 0.125 -0.71875 0.203125q-0.359375 0.078125 -0.765625 0.109375q-0.390625 0.046875 -0.859375 0.046875zm-0.40625 -9.0q-1.03125 0 -1.640625 0.71875q-0.609375 0.703125 -0.703125 2.0625l4.484375 0q0 -0.625 -0.125 -1.125q-0.125 -0.515625 -0.390625 -0.875q-0.25 -0.375 -0.65625 -0.578125q-0.40625 -0.203125 -0.96875 -0.203125z" fill-rule="nonzero"/></g></svg>
