<svg version="1.1" viewBox="0.0 0.0 848.3228346456693 235.6981627296588" fill="none" stroke="none" stroke-linecap="square" stroke-miterlimit="10" xmlns:xlink="http://www.w3.org/1999/xlink" xmlns="http://www.w3.org/2000/svg"><clipPath id="p.0"><path d="m0 0l848.3228 0l0 235.69817l-848.3228 0l0 -235.69817z" clip-rule="nonzero"/></clipPath><g clip-path="url(#p.0)"><path fill="#000000" fill-opacity="0.0" d="m0 0l848.3228 0l0 235.69817l-848.3228 0z" fill-rule="evenodd"/><path fill="#efefef" d="m165.04068 130.5894l0 0c0 -4.3082047 3.4924927 -7.8006897 7.8006897 -7.8006897l78.03642 0c2.0688782 0 4.053009 0.82186127 5.515915 2.2847672c1.4629211 1.4629135 2.2847595 3.4470444 2.2847595 5.5159225l0 31.201782c0 4.308197 -3.4924774 7.8006744 -7.8006744 7.8006744l-78.03642 0c-4.308197 0 -7.8006897 -3.4924774 -7.8006897 -7.8006744z" fill-rule="evenodd"/><path stroke="#000000" stroke-width="1.0" stroke-linejoin="round" stroke-linecap="butt" d="m165.04068 130.5894l0 0c0 -4.3082047 3.4924927 -7.8006897 7.8006897 -7.8006897l78.03642 0c2.0688782 0 4.053009 0.82186127 5.515915 2.2847672c1.4629211 1.4629135 2.2847595 3.4470444 2.2847595 5.5159225l0 31.201782c0 4.308197 -3.4924774 7.8006744 -7.8006744 7.8006744l-78.03642 0c-4.308197 0 -7.8006897 -3.4924774 -7.8006897 -7.8006744z" fill-rule="evenodd"/><path fill="#000000" d="m202.12956 152.25092q-0.8125 1.046875 -2.34375 1.046875q-1.34375 0 -2.03125 -0.921875q-0.671875 -0.9375 -0.6875 -2.703125l0 -6.421875l1.609375 0l0 6.3125q0 2.296875 1.375 2.296875q1.46875 0 2.03125 -1.3125l0 -7.296875l1.609375 0l0 9.859375l-1.53125 0l-0.03125 -0.859375zm8.784027 -1.65625q0 -0.53125 -0.40625 -0.90625q-0.390625 -0.375 -1.5 -0.875q-1.3125 -0.53125 -1.84375 -0.90625q-0.53125 -0.390625 -0.796875 -0.875q-0.265625 -0.484375 -0.265625 -1.15625q0 -1.203125 0.875 -2.0q0.890625 -0.796875 2.25 -0.796875q1.4375 0 2.3125 0.84375q0.875 0.828125 0.875 2.140625l-1.59375 0q0 -0.671875 -0.453125 -1.140625q-0.4375 -0.46875 -1.140625 -0.46875q-0.703125 0 -1.109375 0.375q-0.40625 0.359375 -0.40625 0.984375q0 0.484375 0.296875 0.796875q0.296875 0.296875 1.421875 0.78125q1.796875 0.703125 2.4375 1.375q0.65625 0.671875 0.65625 1.703125q0 1.28125 -0.890625 2.0625q-0.875 0.765625 -2.359375 0.765625q-1.546875 0 -2.5 -0.875q-0.953125 -0.890625 -0.953125 -2.25l1.609375 0q0.03125 0.8125 0.5 1.28125q0.484375 0.46875 1.34375 0.46875q0.796875 0 1.21875 -0.359375q0.421875 -0.359375 0.421875 -0.96875zm7.233536 2.703125q-1.84375 0 -2.828125 -1.09375q-0.984375 -1.109375 -1.0 -3.234375l0 -1.1875q0 -2.203125 0.953125 -3.453125q0.96875 -1.25 2.6875 -1.25q1.734375 0 2.578125 1.109375q0.859375 1.09375 0.875 3.421875l0 1.046875l-5.5 0l0 0.234375q0 1.59375 0.59375 2.3125q0.609375 0.71875 1.71875 0.71875q0.71875 0 1.25 -0.265625q0.546875 -0.28125 1.03125 -0.859375l0.828125 1.015625q-1.046875 1.484375 -3.1875 1.484375zm-0.1875 -8.84375q-1.0 0 -1.484375 0.6875q-0.484375 0.6875 -0.546875 2.140625l3.875 0l0 -0.21875q-0.0625 -1.40625 -0.5 -2.0q-0.4375 -0.609375 -1.34375 -0.609375zm9.470383 0.3125q-0.34375 -0.0625 -0.734375 -0.0625q-1.234375 0 -1.734375 1.359375l0 7.046875l-1.609375 0l0 -9.859375l1.5625 0l0.03125 1.0q0.640625 -1.171875 1.828125 -1.171875q0.390625 0 0.640625 0.125l0.015625 1.5625z" fill-rule="nonzero"/><path fill="#d9ead3" d="m369.0092 130.5894l0 0c0 -4.3082047 3.4924927 -7.8006897 7.8006897 -7.8006897l78.03644 0c2.0688477 0 4.0529785 0.82186127 5.5158997 2.2847672c1.4629211 1.4629135 2.2847595 3.4470444 2.2847595 5.5159225l0 31.201782c0 4.308197 -3.4924622 7.8006744 -7.800659 7.8006744l-78.03644 0c-4.308197 0 -7.8006897 -3.4924774 -7.8006897 -7.8006744z" fill-rule="evenodd"/><path stroke="#000000" stroke-width="1.0" stroke-linejoin="round" stroke-linecap="butt" d="m369.0092 130.5894l0 0c0 -4.3082047 3.4924927 -7.8006897 7.8006897 -7.8006897l78.03644 0c2.0688477 0 4.0529785 0.82186127 5.5158997 2.2847672c1.4629211 1.4629135 2.2847595 3.4470444 2.2847595 5.5159225l0 31.201782c0 4.308197 -3.4924622 7.8006744 -7.800659 7.8006744l-78.03644 0c-4.308197 0 -7.8006897 -3.4924774 -7.8006897 -7.8006744z" fill-rule="evenodd"/><path fill="#000000" d="m400.02405 150.65717l1.859375 -7.40625l1.640625 0l-2.921875 9.859375l-1.203125 0l-2.953125 -9.859375l1.640625 0l1.9375 7.40625zm6.9174194 2.453125l-1.609375 0l0 -9.859375l1.609375 0l0 9.859375zm0.125 -12.46875q0 0.40625 -0.234375 0.6875q-0.21875 0.265625 -0.671875 0.265625q-0.46875 0 -0.703125 -0.265625q-0.21875 -0.28125 -0.21875 -0.6875q0 -0.40625 0.21875 -0.6875q0.234375 -0.296875 0.6875 -0.296875q0.46875 0 0.6875 0.296875q0.234375 0.28125 0.234375 0.6875zm2.0692139 7.09375q0 -2.28125 0.84375 -3.46875q0.859375 -1.1875 2.453125 -1.1875q1.421875 0 2.21875 1.140625l0 -5.109375l1.609375 0l0 14.0l-1.484375 0l-0.078125 -1.0625q-0.796875 1.25 -2.265625 1.25q-1.53125 0 -2.40625 -1.1875q-0.859375 -1.203125 -0.890625 -3.359375l0 -1.015625zm1.625 0.921875q0 1.65625 0.484375 2.4375q0.5 0.78125 1.609375 0.78125q1.203125 0 1.796875 -1.21875l0 -4.96875q-0.625 -1.1875 -1.796875 -1.1875q-1.109375 0 -1.609375 0.78125q-0.484375 0.78125 -0.484375 2.390625l0 0.984375zm11.505249 4.640625q-1.84375 0 -2.828125 -1.09375q-0.984375 -1.109375 -1.0 -3.234375l0 -1.1875q0 -2.203125 0.953125 -3.453125q0.96875 -1.25 2.6875 -1.25q1.734375 0 2.578125 1.109375q0.859375 1.09375 0.875 3.421875l0 1.046875l-5.5 0l0 0.234375q0 1.59375 0.59375 2.3125q0.609375 0.71875 1.71875 0.71875q0.71875 0 1.25 -0.265625q0.546875 -0.28125 1.03125 -0.859375l0.828125 1.015625q-1.046875 1.484375 -3.1875 1.484375zm-0.1875 -8.84375q-1.0 0 -1.484375 0.6875q-0.484375 0.6875 -0.546875 2.140625l3.875 0l0 -0.21875q-0.0625 -1.40625 -0.5 -2.0q-0.4375 -0.609375 -1.34375 -0.609375zm5.048523 3.265625q0 -2.140625 1.046875 -3.390625q1.046875 -1.25 2.75 -1.25q1.71875 0 2.765625 1.21875q1.046875 1.21875 1.0625 3.3125l0 1.046875q0 2.140625 -1.046875 3.390625q-1.03125 1.25 -2.75 1.25q-1.71875 0 -2.75 -1.203125q-1.03125 -1.21875 -1.078125 -3.296875l0 -1.078125zm1.625 0.9375q0 1.515625 0.59375 2.390625q0.59375 0.875 1.609375 0.875q2.125 0 2.1875 -3.078125l0 -1.125q0 -1.5 -0.609375 -2.375q-0.59375 -0.890625 -1.59375 -0.890625q-1.0 0 -1.59375 0.890625q-0.59375 0.875 -0.59375 2.375l0 0.9375z" fill-rule="nonzero"/><path fill="#fff2cc" d="m603.0722 130.5894l0 0c0 -4.3082047 3.4924316 -7.8006897 7.800659 -7.8006897l78.03644 0c2.0688477 0 4.0529785 0.82186127 5.51593 2.2847672c1.4628906 1.4629135 2.284729 3.4470444 2.284729 5.5159225l0 31.201782c0 4.308197 -3.4924927 7.8006744 -7.800659 7.8006744l-78.03644 0c-4.3082275 0 -7.800659 -3.4924774 -7.800659 -7.8006744z" fill-rule="evenodd"/><path stroke="#000000" stroke-width="1.0" stroke-linejoin="round" stroke-linecap="butt" d="m603.0722 130.5894l0 0c0 -4.3082047 3.4924316 -7.8006897 7.800659 -7.8006897l78.03644 0c2.0688477 0 4.0529785 0.82186127 5.51593 2.2847672c1.4628906 1.4629135 2.284729 3.4470444 2.284729 5.5159225l0 31.201782c0 4.308197 -3.4924927 7.8006744 -7.800659 7.8006744l-78.03644 0c-4.3082275 0 -7.800659 -3.4924774 -7.800659 -7.8006744z" fill-rule="evenodd"/><path fill="#000000" d="m625.70276 151.92279q0.796875 0 1.28125 -0.5q0.484375 -0.5 0.53125 -1.421875l1.53125 0q-0.0625 1.421875 -1.015625 2.359375q-0.953125 0.9375 -2.328125 0.9375q-1.828125 0 -2.796875 -1.15625q-0.953125 -1.15625 -0.953125 -3.4375l0 -1.078125q0 -2.234375 0.953125 -3.390625q0.953125 -1.15625 2.796875 -1.15625q1.5 0 2.390625 0.953125q0.890625 0.953125 0.953125 2.609375l-1.53125 0q-0.046875 -1.09375 -0.515625 -1.640625q-0.46875 -0.546875 -1.296875 -0.546875q-1.078125 0 -1.609375 0.71875q-0.515625 0.703125 -0.53125 2.3125l0 1.25q0 1.75 0.515625 2.46875q0.515625 0.71875 1.625 0.71875zm6.8050537 -7.65625q0.921875 -1.1875 2.359375 -1.1875q2.609375 0 2.640625 3.484375l0 6.546875l-1.59375 0l0 -6.484375q0 -1.15625 -0.390625 -1.640625q-0.390625 -0.484375 -1.15625 -0.484375q-0.609375 0 -1.09375 0.40625q-0.46875 0.390625 -0.765625 1.046875l0 7.15625l-1.609375 0l0 -14.0l1.609375 0l0 5.15625zm12.478027 8.84375q-0.15625 -0.3125 -0.21875 -1.078125q-0.859375 1.265625 -2.1875 1.265625q-1.328125 0 -2.09375 -0.75q-0.75 -0.765625 -0.75 -2.125q0 -1.5 1.015625 -2.375q1.03125 -0.890625 2.8125 -0.90625l1.1875 0l0 -1.046875q0 -0.890625 -0.40625 -1.265625q-0.390625 -0.375 -1.1875 -0.375q-0.734375 0 -1.1875 0.4375q-0.453125 0.4375 -0.453125 1.09375l-1.609375 0q0 -0.75 0.4375 -1.4375q0.453125 -0.6875 1.203125 -1.078125q0.765625 -0.390625 1.6875 -0.390625q1.515625 0 2.296875 0.75q0.796875 0.75 0.8125 2.1875l0 4.96875q0.015625 1.140625 0.3125 1.984375l0 0.140625l-1.671875 0zm-2.15625 -1.28125q0.59375 0 1.125 -0.328125q0.546875 -0.328125 0.796875 -0.828125l0 -2.34375l-0.921875 0q-1.140625 0.015625 -1.8125 0.515625q-0.65625 0.5 -0.65625 1.390625q0 0.828125 0.328125 1.21875q0.34375 0.375 1.140625 0.375zm7.5302124 -8.578125l0.046875 1.0625q0.9375 -1.234375 2.40625 -1.234375q2.609375 0 2.640625 3.484375l0 6.546875l-1.59375 0l0 -6.484375q0 -1.15625 -0.390625 -1.640625q-0.390625 -0.484375 -1.15625 -0.484375q-0.609375 0 -1.09375 0.40625q-0.46875 0.390625 -0.765625 1.046875l0 7.15625l-1.609375 0l0 -9.859375l1.515625 0zm9.027466 0l0.046875 1.0625q0.9375 -1.234375 2.40625 -1.234375q2.609375 0 2.640625 3.484375l0 6.546875l-1.59375 0l0 -6.484375q0 -1.15625 -0.390625 -1.640625q-0.390625 -0.484375 -1.15625 -0.484375q-0.609375 0 -1.09375 0.40625q-0.46875 0.390625 -0.765625 1.046875l0 7.15625l-1.609375 0l0 -9.859375l1.515625 0zm11.043152 10.046875q-1.84375 0 -2.828125 -1.09375q-0.984375 -1.109375 -1.0 -3.234375l0 -1.1875q0 -2.203125 0.953125 -3.453125q0.96875 -1.25 2.6875 -1.25q1.734375 0 2.578125 1.109375q0.859375 1.09375 0.875 3.421875l0 1.046875l-5.5 0l0 0.234375q0 1.59375 0.59375 2.3125q0.609375 0.71875 1.71875 0.71875q0.71875 0 1.25 -0.265625q0.546875 -0.28125 1.03125 -0.859375l0.828125 1.015625q-1.046875 1.484375 -3.1875 1.484375zm-0.1875 -8.84375q-1.0 0 -1.484375 0.6875q-0.484375 0.6875 -0.546875 2.140625l3.875 0l0 -0.21875q-0.0625 -1.40625 -0.5 -2.0q-0.4375 -0.609375 -1.34375 -0.609375zm7.126648 8.65625l-1.609375 0l0 -14.0l1.609375 0l0 14.0z" fill-rule="nonzero"/><path fill="#000000" fill-opacity="0.0" d="m258.67847 146.19029l110.33072 0" fill-rule="evenodd"/><path stroke="#000000" stroke-width="1.0" stroke-linejoin="round" stroke-linecap="butt" d="m258.67847 146.19029l104.33072 0" fill-rule="evenodd"/><path fill="#000000" stroke="#000000" stroke-width="1.0" stroke-linecap="butt" d="m363.0092 147.84203l4.538086 -1.6517334l-4.538086 -1.6517334z" fill-rule="evenodd"/><path fill="#000000" fill-opacity="0.0" d="m462.64697 146.19029l140.44098 0" fill-rule="evenodd"/><path stroke="#000000" stroke-width="1.0" stroke-linejoin="round" stroke-linecap="butt" d="m462.64697 146.19029l134.44098 0" fill-rule="evenodd"/><path fill="#000000" stroke="#000000" stroke-width="1.0" stroke-linecap="butt" d="m597.08795 147.84203l4.538086 -1.6517334l-4.538086 -1.6517334z" fill-rule="evenodd"/><path fill="#000000" fill-opacity="0.0" d="m192.90788 122.79097c-1.1146088 -9.287834 -14.303589 -46.25328 -6.6876526 -55.727036c7.615921 -9.473751 45.324585 -10.217407 52.383194 -1.1154785c7.0586243 9.101921 -8.359573 46.439194 -10.031494 55.727028" fill-rule="evenodd"/><path stroke="#000000" stroke-width="1.0" stroke-linejoin="round" stroke-linecap="butt" d="m192.9079 122.79097c-1.1146088 -9.287834 -14.303589 -46.253273 -6.687668 -55.727028c7.615906 -9.473755 45.32457 -10.217415 52.383194 -1.1154861c3.5293274 4.5509567 1.4394379 16.160759 -1.7417908 27.793793c-1.590622 5.8165207 -3.4540558 11.638855 -5.0243225 16.58754c-0.39257812 1.237175 -0.7668152 2.4197388 -1.1139069 3.533966c-0.17353821 0.55711365 -0.34028625 1.0971451 -0.4991455 1.6183624l-0.117874146 0.39289093" fill-rule="evenodd"/><path fill="#000000" stroke="#000000" stroke-width="1.0" stroke-linecap="butt" d="m228.50957 115.4526l0.43623352 4.809601l2.7573853 -3.964775z" fill-rule="evenodd"/><path fill="#000000" fill-opacity="0.0" d="m156.69292 7.1351705l110.3307 0l0 36.787403l-110.3307 0z" fill-rule="evenodd"/><path fill="#000000" d="m183.07875 31.261368q0.796875 0 1.28125 -0.5q0.484375 -0.5 0.53125 -1.421875l1.53125 0q-0.0625 1.421875 -1.015625 2.359375q-0.953125 0.9375 -2.328125 0.9375q-1.828125 0 -2.796875 -1.15625q-0.953125 -1.15625 -0.953125 -3.4375l0 -1.078125q0 -2.234375 0.953125 -3.390625q0.953125 -1.15625 2.796875 -1.15625q1.5 0 2.390625 0.953125q0.890625 0.953125 0.953125 2.609375l-1.53125 0q-0.046875 -1.09375 -0.515625 -1.640625q-0.46875 -0.546875 -1.296875 -0.546875q-1.078125 0 -1.609375 0.71875q-0.515625 0.703125 -0.53125 2.3125l0 1.25q0 1.75 0.515625 2.46875q0.515625 0.71875 1.625 0.71875zm4.851959 -4.203125q0 -2.140625 1.046875 -3.390625q1.046875 -1.25 2.75 -1.25q1.71875 0 2.765625 1.21875q1.046875 1.21875 1.0625 3.3125l0 1.046875q0 2.140625 -1.046875 3.390625q-1.03125 1.25 -2.75 1.25q-1.71875 0 -2.75 -1.203125q-1.03125 -1.21875 -1.078125 -3.296875l0 -1.078125zm1.625 0.9375q0 1.515625 0.59375 2.390625q0.59375 0.875 1.609375 0.875q2.125 0 2.1875 -3.078125l0 -1.125q0 -1.5 -0.609375 -2.375q-0.59375 -0.890625 -1.59375 -0.890625q-1.0 0 -1.59375 0.890625q-0.59375 0.875 -0.59375 2.375l0 0.9375zm11.067688 -0.5l-3.765625 0l0 -1.375l3.765625 0l0 1.375zm8.9869995 2.125l1.5 -7.03125l1.59375 0l-2.40625 9.859375l-1.296875 0l-1.921875 -7.046875l-1.875 7.046875l-1.296875 0l-2.390625 -9.859375l1.59375 0l1.53125 6.859375l1.828125 -6.859375l1.265625 0l1.875 7.03125zm9.859116 2.828125q-0.15625 -0.3125 -0.21875 -1.078125q-0.859375 1.265625 -2.1875 1.265625q-1.328125 0 -2.09375 -0.75q-0.75 -0.765625 -0.75 -2.125q0 -1.5 1.015625 -2.375q1.03125 -0.890625 2.8125 -0.90625l1.1875 0l0 -1.046875q0 -0.890625 -0.40625 -1.265625q-0.390625 -0.375 -1.1875 -0.375q-0.734375 0 -1.1875 0.4375q-0.453125 0.4375 -0.453125 1.09375l-1.609375 0q0 -0.75 0.4375 -1.4375q0.453125 -0.6875 1.203125 -1.078125q0.765625 -0.390625 1.6875 -0.390625q1.515625 0 2.296875 0.75q0.796875 0.75 0.8125 2.1875l0 4.96875q0.015625 1.140625 0.3125 1.984375l0 0.140625l-1.671875 0zm-2.15625 -1.28125q0.59375 0 1.125 -0.328125q0.546875 -0.328125 0.796875 -0.828125l0 -2.34375l-0.921875 0q-1.140625 0.015625 -1.8125 0.515625q-0.65625 0.5 -0.65625 1.390625q0 0.828125 0.328125 1.21875q0.34375 0.375 1.140625 0.375zm8.123917 -10.96875l0 2.390625l1.484375 0l0 1.3125l-1.484375 0l0 6.109375q0 0.578125 0.1875 0.890625q0.203125 0.296875 0.65625 0.296875q0.328125 0 0.65625 -0.109375l-0.015625 1.359375q-0.546875 0.1875 -1.125 0.1875q-0.953125 0 -1.453125 -0.6875q-0.5 -0.6875 -0.5 -1.9375l0 -6.109375l-1.515625 0l0 -1.3125l1.515625 0l0 -2.390625l1.59375 0zm6.8237457 11.0625q0.796875 0 1.28125 -0.5q0.484375 -0.5 0.53125 -1.421875l1.53125 0q-0.0625 1.421875 -1.015625 2.359375q-0.953125 0.9375 -2.328125 0.9375q-1.828125 0 -2.796875 -1.15625q-0.953125 -1.15625 -0.953125 -3.4375l0 -1.078125q0 -2.234375 0.953125 -3.390625q0.953125 -1.15625 2.796875 -1.15625q1.5 0 2.390625 0.953125q0.890625 0.953125 0.953125 2.609375l-1.53125 0q-0.046875 -1.09375 -0.515625 -1.640625q-0.46875 -0.546875 -1.296875 -0.546875q-1.078125 0 -1.609375 0.71875q-0.515625 0.703125 -0.53125 2.3125l0 1.25q0 1.75 0.515625 2.46875q0.515625 0.71875 1.625 0.71875zm6.805084 -7.65625q0.921875 -1.1875 2.359375 -1.1875q2.609375 0 2.640625 3.484375l0 6.546875l-1.59375 0l0 -6.484375q0 -1.15625 -0.390625 -1.640625q-0.390625 -0.484375 -1.15625 -0.484375q-0.609375 0 -1.09375 0.40625q-0.46875 0.390625 -0.765625 1.046875l0 7.15625l-1.609375 0l0 -14.0l1.609375 0l0 5.15625z" fill-rule="nonzero"/><path fill="#000000" fill-opacity="0.0" d="m240.43964 96.727036l110.33072 0l0 36.7874l-110.33072 0z" fill-rule="evenodd"/><path fill="#000000" d="m273.43463 119.21261l1.5 -7.03125l1.59375 0l-2.40625 9.859375l-1.296875 0l-1.921875 -7.046875l-1.875 7.046875l-1.296875 0l-2.390625 -9.859375l1.59375 0l1.53125 6.859375l1.828125 -6.859375l1.265625 0l1.875 7.03125zm9.859131 2.828125q-0.15625 -0.3125 -0.21875 -1.078125q-0.859375 1.265625 -2.1875 1.265625q-1.328125 0 -2.09375 -0.75q-0.75 -0.765625 -0.75 -2.125q0 -1.5 1.015625 -2.375q1.03125 -0.890625 2.8125 -0.90625l1.1875 0l0 -1.046875q0 -0.890625 -0.40625 -1.265625q-0.390625 -0.375 -1.1875 -0.375q-0.734375 0 -1.1875 0.4375q-0.453125 0.4375 -0.453125 1.09375l-1.609375 0q0 -0.75 0.4375 -1.4375q0.453125 -0.6875 1.203125 -1.078125q0.765625 -0.390625 1.6875 -0.390625q1.515625 0 2.296875 0.75q0.796875 0.75 0.8125 2.1875l0 4.96875q0.015625 1.140625 0.3125 1.984375l0 0.140625l-1.671875 0zm-2.15625 -1.28125q0.59375 0 1.125 -0.328125q0.546875 -0.328125 0.796875 -0.828125l0 -2.34375l-0.921875 0q-1.140625 0.015625 -1.8125 0.515625q-0.65625 0.5 -0.65625 1.390625q0 0.828125 0.328125 1.21875q0.34375 0.375 1.140625 0.375zm8.123901 -10.96875l0 2.390625l1.484375 0l0 1.3125l-1.484375 0l0 6.109375q0 0.578125 0.1875 0.890625q0.203125 0.296875 0.65625 0.296875q0.328125 0 0.65625 -0.109375l-0.015625 1.359375q-0.546875 0.1875 -1.125 0.1875q-0.953125 0 -1.453125 -0.6875q-0.5 -0.6875 -0.5 -1.9375l0 -6.109375l-1.515625 0l0 -1.3125l1.515625 0l0 -2.390625l1.59375 0zm6.823761 11.0625q0.796875 0 1.28125 -0.5q0.484375 -0.5 0.53125 -1.421875l1.53125 0q-0.0625 1.421875 -1.015625 2.359375q-0.953125 0.9375 -2.328125 0.9375q-1.828125 0 -2.796875 -1.15625q-0.953125 -1.15625 -0.953125 -3.4375l0 -1.078125q0 -2.234375 0.953125 -3.390625q0.953125 -1.15625 2.796875 -1.15625q1.5 0 2.390625 0.953125q0.890625 0.953125 0.953125 2.609375l-1.53125 0q-0.046875 -1.09375 -0.515625 -1.640625q-0.46875 -0.546875 -1.296875 -0.546875q-1.078125 0 -1.609375 0.71875q-0.515625 0.703125 -0.53125 2.3125l0 1.25q0 1.75 0.515625 2.46875q0.515625 0.71875 1.625 0.71875zm6.805084 -7.65625q0.921875 -1.1875 2.359375 -1.1875q2.609375 0 2.640625 3.484375l0 6.546875l-1.59375 0l0 -6.484375q0 -1.15625 -0.390625 -1.640625q-0.390625 -0.484375 -1.15625 -0.484375q-0.609375 0 -1.09375 0.40625q-0.46875 0.390625 -0.765625 1.046875l0 7.15625l-1.609375 0l0 -14.0l1.609375 0l0 5.15625zm10.931152 9.03125q-1.84375 0 -2.828125 -1.09375q-0.984375 -1.109375 -1.0 -3.234375l0 -1.1875q0 -2.203125 0.953125 -3.453125q0.96875 -1.25 2.6875 -1.25q1.734375 0 2.578125 1.109375q0.859375 1.09375 0.875 3.421875l0 1.046875l-5.5 0l0 0.234375q0 1.59375 0.59375 2.3125q0.609375 0.71875 1.71875 0.71875q0.71875 0 1.25 -0.265625q0.546875 -0.28125 1.03125 -0.859375l0.828125 1.015625q-1.046875 1.484375 -3.1875 1.484375zm-0.1875 -8.84375q-1.0 0 -1.484375 0.6875q-0.484375 0.6875 -0.546875 2.140625l3.875 0l0 -0.21875q-0.0625 -1.40625 -0.5 -2.0q-0.4375 -0.609375 -1.34375 -0.609375zm10.189148 6.140625q0 -0.53125 -0.40625 -0.90625q-0.390625 -0.375 -1.5 -0.875q-1.3125 -0.53125 -1.84375 -0.90625q-0.53125 -0.390625 -0.796875 -0.875q-0.265625 -0.484375 -0.265625 -1.15625q0 -1.203125 0.875 -2.0q0.890625 -0.796875 2.25 -0.796875q1.4375 0 2.3125 0.84375q0.875 0.828125 0.875 2.140625l-1.59375 0q0 -0.671875 -0.453125 -1.140625q-0.4375 -0.46875 -1.140625 -0.46875q-0.703125 0 -1.109375 0.375q-0.40625 0.359375 -0.40625 0.984375q0 0.484375 0.296875 0.796875q0.296875 0.296875 1.421875 0.78125q1.796875 0.703125 2.4375 1.375q0.65625 0.671875 0.65625 1.703125q0 1.28125 -0.890625 2.0625q-0.875 0.765625 -2.359375 0.765625q-1.546875 0 -2.5 -0.875q-0.953125 -0.890625 -0.953125 -2.25l1.609375 0q0.03125 0.8125 0.5 1.28125q0.484375 0.46875 1.34375 0.46875q0.796875 0 1.21875 -0.359375q0.421875 -0.359375 0.421875 -0.96875z" fill-rule="nonzero"/><path fill="#000000" fill-opacity="0.0" d="m462.6473 109.402885l140.44095 0l0 36.787407l-140.44095 0z" fill-rule="evenodd"/><path fill="#000000" d="m484.47452 132.26346l1.859375 -7.40625l1.640625 0l-2.921875 9.859375l-1.203125 0l-2.953125 -9.859375l1.640625 0l1.9375 7.40625zm6.9174194 2.453125l-1.609375 0l0 -9.859375l1.609375 0l0 9.859375zm0.125 -12.46875q0 0.40625 -0.234375 0.6875q-0.21875 0.265625 -0.671875 0.265625q-0.46875 0 -0.703125 -0.265625q-0.21875 -0.28125 -0.21875 -0.6875q0 -0.40625 0.21875 -0.6875q0.234375 -0.296875 0.6875 -0.296875q0.46875 0 0.6875 0.296875q0.234375 0.28125 0.234375 0.6875zm2.0692139 7.09375q0 -2.28125 0.84375 -3.46875q0.859375 -1.1875 2.453125 -1.1875q1.421875 0 2.21875 1.140625l0 -5.109375l1.609375 0l0 14.0l-1.484375 0l-0.078125 -1.0625q-0.796875 1.25 -2.265625 1.25q-1.53125 0 -2.40625 -1.1875q-0.859375 -1.203125 -0.890625 -3.359375l0 -1.015625zm1.625 0.921875q0 1.65625 0.484375 2.4375q0.5 0.78125 1.609375 0.78125q1.203125 0 1.796875 -1.21875l0 -4.96875q-0.625 -1.1875 -1.796875 -1.1875q-1.109375 0 -1.609375 0.78125q-0.484375 0.78125 -0.484375 2.390625l0 0.984375zm11.505249 4.640625q-1.84375 0 -2.828125 -1.09375q-0.984375 -1.109375 -1.0 -3.234375l0 -1.1875q0 -2.203125 0.953125 -3.453125q0.96875 -1.25 2.6875 -1.25q1.734375 0 2.578125 1.109375q0.859375 1.09375 0.875 3.421875l0 1.046875l-5.5 0l0 0.234375q0 1.59375 0.59375 2.3125q0.609375 0.71875 1.71875 0.71875q0.71875 0 1.25 -0.265625q0.546875 -0.28125 1.03125 -0.859375l0.828125 1.015625q-1.046875 1.484375 -3.1875 1.484375zm-0.1875 -8.84375q-1.0 0 -1.484375 0.6875q-0.484375 0.6875 -0.546875 2.140625l3.875 0l0 -0.21875q-0.0625 -1.40625 -0.5 -2.0q-0.4375 -0.609375 -1.34375 -0.609375zm5.048523 3.265625q0 -2.140625 1.0468445 -3.390625q1.046875 -1.25 2.75 -1.25q1.71875 0 2.765625 1.21875q1.046875 1.21875 1.0625 3.3125l0 1.046875q0 2.140625 -1.046875 3.390625q-1.03125 1.25 -2.75 1.25q-1.71875 0 -2.75 -1.203125q-1.0312195 -1.21875 -1.0780945 -3.296875l0 -1.078125zm1.6249695 0.9375q0 1.515625 0.59375 2.390625q0.59375 0.875 1.609375 0.875q2.125 0 2.1875 -3.078125l0 -1.125q0 -1.5 -0.609375 -2.375q-0.59375 -0.890625 -1.59375 -0.890625q-1.0 0 -1.59375 0.890625q-0.59375 0.875 -0.59375 2.375l0 0.9375zm14.208313 5.828125l-7.109375 0l0 -1.375l7.109375 0l0 1.375zm4.848694 -2.5625q0.796875 0 1.28125 -0.5q0.484375 -0.5 0.53125 -1.421875l1.53125 0q-0.0625 1.421875 -1.015625 2.359375q-0.953125 0.9375 -2.328125 0.9375q-1.828125 0 -2.796875 -1.15625q-0.953125 -1.15625 -0.953125 -3.4375l0 -1.078125q0 -2.234375 0.953125 -3.390625q0.953125 -1.15625 2.796875 -1.15625q1.5 0 2.390625 0.953125q0.890625 0.953125 0.953125 2.609375l-1.53125 0q-0.046875 -1.09375 -0.515625 -1.640625q-0.46875 -0.546875 -1.296875 -0.546875q-1.078125 0 -1.609375 0.71875q-0.515625 0.703125 -0.53125 2.3125l0 1.25q0 1.75 0.515625 2.46875q0.515625 0.71875 1.625 0.71875zm6.8050537 -7.65625q0.921875 -1.1875 2.359375 -1.1875q2.609375 0 2.640625 3.484375l0 6.546875l-1.59375 0l0 -6.484375q0 -1.15625 -0.390625 -1.640625q-0.390625 -0.484375 -1.15625 -0.484375q-0.609375 0 -1.09375 0.40625q-0.46875 0.390625 -0.765625 1.046875l0 7.15625l-1.609375 0l0 -14.0l1.609375 0l0 5.15625zm12.478027 8.84375q-0.15625 -0.3125 -0.21875 -1.078125q-0.859375 1.265625 -2.1875 1.265625q-1.328125 0 -2.09375 -0.75q-0.75 -0.765625 -0.75 -2.125q0 -1.5 1.015625 -2.375q1.03125 -0.890625 2.8125 -0.90625l1.1875 0l0 -1.046875q0 -0.890625 -0.40625 -1.265625q-0.390625 -0.375 -1.1875 -0.375q-0.734375 0 -1.1875 0.4375q-0.453125 0.4375 -0.453125 1.09375l-1.609375 0q0 -0.75 0.4375 -1.4375q0.453125 -0.6875 1.203125 -1.078125q0.765625 -0.390625 1.6875 -0.390625q1.515625 0 2.296875 0.75q0.796875 0.75 0.8125 2.1875l0 4.96875q0.015625 1.140625 0.3125 1.984375l0 0.140625l-1.671875 0zm-2.15625 -1.28125q0.59375 0 1.125 -0.328125q0.546875 -0.328125 0.796875 -0.828125l0 -2.34375l-0.921875 0q-1.140625 0.015625 -1.8125 0.515625q-0.65625 0.5 -0.65625 1.390625q0 0.828125 0.328125 1.21875q0.34375 0.375 1.140625 0.375zm7.5302124 -8.578125l0.046875 1.0625q0.9375 -1.234375 2.40625 -1.234375q2.609375 0 2.640625 3.484375l0 6.546875l-1.59375 0l0 -6.484375q0 -1.15625 -0.390625 -1.640625q-0.390625 -0.484375 -1.15625 -0.484375q-0.609375 0 -1.09375 0.40625q-0.46875 0.390625 -0.765625 1.046875l0 7.15625l-1.609375 0l0 -9.859375l1.515625 0zm9.027466 0l0.046875 1.0625q0.9375 -1.234375 2.40625 -1.234375q2.609375 0 2.640625 3.484375l0 6.546875l-1.59375 0l0 -6.484375q0 -1.15625 -0.390625 -1.640625q-0.390625 -0.484375 -1.15625 -0.484375q-0.609375 0 -1.09375 0.40625q-0.46875 0.390625 -0.765625 1.046875l0 7.15625l-1.609375 0l0 -9.859375l1.515625 0zm11.043152 10.046875q-1.84375 0 -2.828125 -1.09375q-0.984375 -1.109375 -1.0 -3.234375l0 -1.1875q0 -2.203125 0.953125 -3.453125q0.96875 -1.25 2.6875 -1.25q1.734375 0 2.578125 1.109375q0.859375 1.09375 0.875 3.421875l0 1.046875l-5.5 0l0 0.234375q0 1.59375 0.59375 2.3125q0.609375 0.71875 1.71875 0.71875q0.71875 0 1.25 -0.265625q0.546875 -0.28125 1.03125 -0.859375l0.828125 1.015625q-1.046875 1.484375 -3.1875 1.484375zm-0.1875 -8.84375q-1.0 0 -1.484375 0.6875q-0.484375 0.6875 -0.546875 2.140625l3.875 0l0 -0.21875q-0.0625 -1.40625 -0.5 -2.0q-0.4375 -0.609375 -1.34375 -0.609375zm7.126648 8.65625l-1.609375 0l0 -14.0l1.609375 0l0 14.0z" fill-rule="nonzero"/><path fill="#000000" fill-opacity="0.0" d="m183.8622 170.71785l128.31496 0l0 36.7874l-128.31496 0z" fill-rule="evenodd"/><path fill="#000000" d="m196.25282 186.63155q-0.03125 -0.171875 -0.03125 -0.34375l0.015625 -0.34375q-0.671875 0.8125 -1.453125 0.8125q-0.75 0 -1.1875 -0.5q-0.421875 -0.5 -0.375 -1.3125q0.0625 -0.984375 0.8125 -1.5625q0.75 -0.59375 1.96875 -0.59375l0.703125 0l0.09375 -0.6875q0.109375 -1.046875 -0.796875 -1.046875q-0.453125 0 -0.765625 0.28125q-0.3125 0.265625 -0.390625 0.703125l-1.0 0.015625q0.078125 -0.8125 0.734375 -1.34375q0.65625 -0.546875 1.53125 -0.546875q0.859375 0.015625 1.3125 0.53125q0.46875 0.515625 0.375 1.4375l-0.515625 3.109375q-0.046875 0.34375 -0.03125 0.640625l0.03125 0.65625l-0.015625 0.09375l-1.015625 0zm-1.25 -0.8125q0.765625 0 1.3125 -0.75l0.265625 -1.515625l-0.46875 0q-0.59375 0 -1.0625 0.21875q-0.453125 0.21875 -0.65625 0.609375q-0.1875 0.390625 -0.125 0.84375q0.078125 0.59375 0.734375 0.59375zm5.9179688 0.0625q0.5 0.015625 0.84375 -0.3125q0.34375 -0.328125 0.46875 -0.9375l0.953125 0q-0.125 0.9375 -0.78125 1.546875q-0.65625 0.59375 -1.53125 0.578125q-0.84375 -0.015625 -1.34375 -0.5q-0.5 -0.5 -0.59375 -1.375q-0.0625 -0.53125 0 -1.0625l0.078125 -0.640625q0.203125 -1.46875 0.90625 -2.25q0.71875 -0.78125 1.859375 -0.75q0.875 0.015625 1.359375 0.640625q0.484375 0.625 0.453125 1.65625l-0.96875 0q0.046875 -1.375 -0.90625 -1.421875q-1.375 -0.046875 -1.65625 1.96875q-0.1875 1.25 -0.15625 1.703125q0.0625 1.125 1.015625 1.15625zm5.4375 0q0.5 0.015625 0.84375 -0.3125q0.34375 -0.328125 0.46875 -0.9375l0.953125 0q-0.125 0.9375 -0.78125 1.546875q-0.65625 0.59375 -1.53125 0.578125q-0.84375 -0.015625 -1.34375 -0.5q-0.5 -0.5 -0.59375 -1.375q-0.0625 -0.53125 0 -1.0625l0.078125 -0.640625q0.203125 -1.46875 0.90625 -2.25q0.71875 -0.78125 1.859375 -0.75q0.875 0.015625 1.359375 0.640625q0.484375 0.625 0.453125 1.65625l-0.96875 0q0.046875 -1.375 -0.90625 -1.421875q-1.375 -0.046875 -1.65625 1.96875q-0.1875 1.25 -0.15625 1.703125q0.0625 1.125 1.015625 1.15625zm3.5625 -2.703125q0.203125 -1.359375 0.9375 -2.1875q0.75 -0.84375 1.875 -0.8125q0.703125 0.015625 1.171875 0.40625q0.46875 0.390625 0.671875 1.078125q0.203125 0.671875 0.109375 1.5l-0.078125 0.609375q-0.1875 1.359375 -0.9375 2.1875q-0.734375 0.8125 -1.859375 0.796875q-0.703125 -0.03125 -1.171875 -0.40625q-0.46875 -0.390625 -0.671875 -1.078125q-0.203125 -0.6875 -0.109375 -1.5l0.0625 -0.59375zm0.90625 1.015625q-0.015625 0.78125 0.25 1.21875q0.265625 0.4375 0.78125 0.453125q0.6875 0.03125 1.125 -0.484375q0.453125 -0.515625 0.609375 -1.53125l0.078125 -0.6875l0.03125 -0.421875q0.015625 -0.796875 -0.25 -1.21875q-0.265625 -0.4375 -0.78125 -0.46875q-0.6875 -0.03125 -1.15625 0.578125q-0.453125 0.59375 -0.59375 1.671875l-0.0625 0.578125l-0.03125 0.3125zm7.8691406 1.875q-0.609375 0.703125 -1.515625 0.6875q-0.671875 -0.015625 -1.03125 -0.484375q-0.359375 -0.484375 -0.359375 -1.359375l0.03125 -0.53125l0.671875 -4.09375l1.015625 0l-0.6875 4.109375l-0.015625 0.4375q-0.03125 0.421875 0.125 0.703125q0.171875 0.28125 0.484375 0.296875q0.859375 0.03125 1.40625 -0.84375l0.796875 -4.703125l1.015625 0l-1.09375 6.34375l-0.953125 0l0.109375 -0.5625zm4.4492188 -5.78125l-0.140625 0.6875q0.703125 -0.8125 1.578125 -0.796875q0.59375 0 0.953125 0.40625q0.359375 0.40625 0.40625 1.09375q0.015625 0.40625 -0.015625 0.796875l-0.703125 4.15625l-1.0 0l0.703125 -4.171875l0.015625 -0.46875q0 -0.890625 -0.734375 -0.90625q-0.609375 -0.015625 -1.125 0.6875l-0.171875 0.25l-0.796875 4.609375l-1.015625 0l1.09375 -6.34375l0.953125 0zm6.330078 -1.53125l-0.265625 1.53125l0.9375 0l-0.15625 0.84375l-0.921875 0l-0.671875 3.9375l-0.015625 0.234375q-0.015625 0.5 0.359375 0.5q0.140625 0 0.421875 -0.0625l-0.078125 0.890625q-0.328125 0.125 -0.671875 0.109375q-0.53125 0 -0.796875 -0.4375q-0.265625 -0.453125 -0.203125 -1.25l0.640625 -3.921875l-0.9375 0l0.15625 -0.84375l0.921875 0l0.28125 -1.53125l1.0 0zm4.482422 8.765625l-4.453125 0l0.171875 -0.890625l4.4375 0l-0.15625 0.890625zm4.3476562 -0.890625q-0.03125 -0.171875 -0.03125 -0.34375l0.015625 -0.34375q-0.671875 0.8125 -1.453125 0.8125q-0.75 0 -1.1875 -0.5q-0.421875 -0.5 -0.375 -1.3125q0.0625 -0.984375 0.8125 -1.5625q0.75 -0.59375 1.96875 -0.59375l0.703125 0l0.09375 -0.6875q0.109375 -1.046875 -0.796875 -1.046875q-0.453125 0 -0.765625 0.28125q-0.3125 0.265625 -0.390625 0.703125l-1.0 0.015625q0.078125 -0.8125 0.734375 -1.34375q0.65625 -0.546875 1.53125 -0.546875q0.859375 0.015625 1.3125 0.53125q0.46875 0.515625 0.375 1.4375l-0.515625 3.109375q-0.046875 0.34375 -0.03125 0.640625l0.03125 0.65625l-0.015625 0.09375l-1.015625 0zm-1.25 -0.8125q0.765625 0 1.3125 -0.75l0.265625 -1.515625l-0.46875 0q-0.59375 0 -1.0625 0.21875q-0.453125 0.21875 -0.65625 0.609375q-0.1875 0.390625 -0.125 0.84375q0.078125 0.59375 0.734375 0.59375zm6.5117188 -5.640625q0.921875 0.015625 1.34375 0.828125l0.203125 -0.71875l0.921875 0l-1.078125 6.390625q-0.109375 0.75 -0.453125 1.3125q-0.34375 0.578125 -0.890625 0.875q-0.53125 0.296875 -1.234375 0.265625q-0.5 -0.015625 -1.0 -0.25q-0.5 -0.21875 -0.8125 -0.578125l0.484375 -0.703125q0.5625 0.625 1.28125 0.65625q0.640625 0.015625 1.046875 -0.375q0.421875 -0.375 0.5625 -1.140625l0.15625 -0.734375q-0.640625 0.765625 -1.46875 0.75q-0.8125 -0.015625 -1.25 -0.640625q-0.421875 -0.625 -0.40625 -1.703125q0 -0.46875 0.109375 -1.265625q0.203125 -1.46875 0.828125 -2.234375q0.625 -0.765625 1.65625 -0.734375zm-1.578125 4.484375q0.015625 1.15625 0.953125 1.171875q0.703125 0.015625 1.265625 -0.78125l0.546875 -3.1875q-0.3125 -0.75 -0.984375 -0.78125q-1.40625 -0.046875 -1.671875 2.078125q-0.140625 1.03125 -0.109375 1.5zm6.857422 2.09375q-1.0625 -0.015625 -1.59375 -0.765625q-0.53125 -0.765625 -0.390625 -2.078125l0.078125 -0.625q0.1875 -1.46875 0.90625 -2.296875q0.71875 -0.84375 1.828125 -0.8125q0.890625 0.015625 1.34375 0.609375q0.46875 0.59375 0.4375 1.671875l-0.046875 0.703125l-0.09375 0.609375l-3.390625 0q-0.078125 0.515625 -0.078125 0.8125q0.015625 0.59375 0.296875 0.9375q0.28125 0.328125 0.796875 0.34375q0.375 0.015625 0.734375 -0.140625q0.375 -0.171875 0.78125 -0.578125l0.46875 0.65625q-0.375 0.5 -0.921875 0.734375q-0.546875 0.21875 -1.15625 0.21875zm0.765625 -5.703125q-1.046875 -0.046875 -1.453125 1.265625l-0.171875 0.5625l2.4375 0l0.03125 -0.140625q0.03125 -0.28125 0.03125 -0.5625q-0.015625 -1.078125 -0.875 -1.125z" fill-rule="nonzero"/><path fill="#000000" d="m195.87782 194.17842q0.875 0.03125 1.296875 0.734375l0.609375 -3.28125l1.015625 0l-1.5625 9.0l-0.921875 0l0.109375 -0.6875q-0.625 0.828125 -1.5 0.8125q-0.796875 -0.015625 -1.234375 -0.625q-0.421875 -0.609375 -0.421875 -1.734375q0 -0.515625 0.140625 -1.375q0.140625 -0.859375 0.421875 -1.453125q0.65625 -1.4375 2.046875 -1.390625zm-1.59375 4.484375q0.03125 1.15625 0.96875 1.171875q0.328125 0.015625 0.625 -0.15625q0.3125 -0.1875 0.625 -0.625l0.546875 -3.203125q-0.296875 -0.734375 -0.96875 -0.765625q-1.390625 -0.0625 -1.6875 2.046875q-0.140625 1.03125 -0.109375 1.53125zm7.8046875 1.96875q-0.03125 -0.171875 -0.03125 -0.34375l0.015625 -0.34375q-0.671875 0.8125 -1.453125 0.8125q-0.75 0 -1.1875 -0.5q-0.421875 -0.5 -0.375 -1.3125q0.0625 -0.984375 0.8125 -1.5625q0.75 -0.59375 1.96875 -0.59375l0.703125 0l0.09375 -0.6875q0.109375 -1.046875 -0.796875 -1.046875q-0.453125 0 -0.765625 0.28125q-0.3125 0.265625 -0.390625 0.703125l-1.0 0.015625q0.078125 -0.8125 0.734375 -1.34375q0.65625 -0.546875 1.53125 -0.546875q0.859375 0.015625 1.3125 0.53125q0.46875 0.515625 0.375 1.4375l-0.515625 3.109375q-0.046875 0.34375 -0.03125 0.640625l0.03125 0.65625l-0.015625 0.09375l-1.015625 0zm-1.25 -0.8125q0.765625 0 1.3125 -0.75l0.265625 -1.515625l-0.46875 0q-0.59375 0 -1.0625 0.21875q-0.453125 0.21875 -0.65625 0.609375q-0.1875 0.390625 -0.125 0.84375q0.078125 0.59375 0.734375 0.59375zm4.7304688 0.8125l-1.015625 0l1.09375 -6.34375l1.015625 0l-1.09375 6.34375zm0.3125 -8.015625q0.015625 -0.25 0.171875 -0.4375q0.15625 -0.1875 0.421875 -0.203125q0.25 -0.015625 0.40625 0.171875q0.171875 0.1875 0.15625 0.453125q-0.015625 0.25 -0.171875 0.4375q-0.15625 0.1875 -0.421875 0.1875q-0.25 0.015625 -0.40625 -0.15625q-0.15625 -0.1875 -0.15625 -0.453125zm2.4121094 8.015625l-1.015625 0l1.5625 -9.0l1.015625 0l-1.5625 9.0zm3.5996094 -1.734375l1.921875 -4.609375l1.109375 0l-3.28125 7.328125q-0.34375 0.796875 -0.8125 1.203125q-0.453125 0.40625 -0.984375 0.390625q-0.1875 0 -0.578125 -0.109375l0.09375 -0.875l0.21875 0.03125q0.765625 0.046875 1.203125 -0.78125l0.421875 -0.96875l-0.71875 -6.21875l1.078125 0l0.328125 4.609375zm6.607422 2.625l-4.453125 0l0.171875 -0.890625l4.4375 0l-0.15625 0.890625zm4.3476562 -0.890625q-0.03125 -0.171875 -0.03125 -0.34375l0.015625 -0.34375q-0.671875 0.8125 -1.453125 0.8125q-0.75 0 -1.1875 -0.5q-0.421875 -0.5 -0.375 -1.3125q0.0625 -0.984375 0.8125 -1.5625q0.75 -0.59375 1.96875 -0.59375l0.703125 0l0.09375 -0.6875q0.109375 -1.046875 -0.796875 -1.046875q-0.453125 0 -0.765625 0.28125q-0.3125 0.265625 -0.390625 0.703125l-1.0 0.015625q0.078125 -0.8125 0.734375 -1.34375q0.65625 -0.546875 1.53125 -0.546875q0.859375 0.015625 1.3125 0.53125q0.46875 0.515625 0.375 1.4375l-0.515625 3.109375q-0.046875 0.34375 -0.03125 0.640625l0.03125 0.65625l-0.015625 0.09375l-1.015625 0zm-1.25 -0.8125q0.765625 0 1.3125 -0.75l0.265625 -1.515625l-0.46875 0q-0.59375 0 -1.0625 0.21875q-0.453125 0.21875 -0.65625 0.609375q-0.1875 0.390625 -0.125 0.84375q0.078125 0.59375 0.734375 0.59375zm5.9179688 0.0625q0.5 0.015625 0.84375 -0.3125q0.34375 -0.328125 0.46875 -0.9375l0.953125 0q-0.125 0.9375 -0.78125 1.546875q-0.65625 0.59375 -1.53125 0.578125q-0.84375 -0.015625 -1.34375 -0.5q-0.5 -0.5 -0.59375 -1.375q-0.0625 -0.53125 0 -1.0625l0.078125 -0.640625q0.203125 -1.46875 0.90625 -2.25q0.71875 -0.78125 1.859375 -0.75q0.875 0.015625 1.359375 0.640625q0.484375 0.625 0.453125 1.65625l-0.96875 0q0.046875 -1.375 -0.90625 -1.421875q-1.375 -0.046875 -1.65625 1.96875q-0.1875 1.25 -0.15625 1.703125q0.0625 1.125 1.015625 1.15625zm5.84375 -7.125l-0.265625 1.53125l0.9375 0l-0.15625 0.84375l-0.921875 0l-0.671875 3.9375l-0.015625 0.234375q-0.015625 0.5 0.359375 0.5q0.140625 0 0.421875 -0.0625l-0.078125 0.890625q-0.328125 0.125 -0.671875 0.109375q-0.53125 0 -0.796875 -0.4375q-0.265625 -0.453125 -0.203125 -1.25l0.640625 -3.921875l-0.9375 0l0.15625 -0.84375l0.921875 0l0.28125 -1.53125l1.0 0zm1.9042969 7.875l-1.015625 0l1.09375 -6.34375l1.015625 0l-1.09375 6.34375zm0.3125 -8.015625q0.015625 -0.25 0.171875 -0.4375q0.15625 -0.1875 0.421875 -0.203125q0.25 -0.015625 0.40625 0.171875q0.171875 0.1875 0.15625 0.453125q-0.015625 0.25 -0.171875 0.4375q-0.15625 0.1875 -0.421875 0.1875q-0.25 0.015625 -0.40625 -0.15625q-0.15625 -0.1875 -0.15625 -0.453125zm3.3652344 6.421875l1.890625 -4.75l1.078125 0l-2.828125 6.34375l-0.75 0l-0.859375 -6.34375l1.0 0l0.46875 4.75zm4.0859375 1.59375l-1.015625 0l1.09375 -6.34375l1.015625 0l-1.09375 6.34375zm0.3125 -8.015625q0.015625 -0.25 0.171875 -0.4375q0.15625 -0.1875 0.421875 -0.203125q0.25 -0.015625 0.40625 0.171875q0.171875 0.1875 0.15625 0.453125q-0.015625 0.25 -0.171875 0.4375q-0.15625 0.1875 -0.421875 0.1875q-0.25 0.015625 -0.40625 -0.15625q-0.15625 -0.1875 -0.15625 -0.453125zm4.0058594 0.140625l-0.265625 1.53125l0.9375 0l-0.15625 0.84375l-0.921875 0l-0.671875 3.9375l-0.015625 0.234375q-0.015625 0.5 0.359375 0.5q0.140625 0 0.421875 -0.0625l-0.078125 0.890625q-0.328125 0.125 -0.671875 0.109375q-0.53125 0 -0.796875 -0.4375q-0.265625 -0.453125 -0.203125 -1.25l0.640625 -3.921875l-0.9375 0l0.15625 -0.84375l0.921875 0l0.28125 -1.53125l1.0 0zm2.7792969 6.140625l1.921875 -4.609375l1.109375 0l-3.28125 7.328125q-0.34375 0.796875 -0.8125 1.203125q-0.453125 0.40625 -0.984375 0.390625q-0.1875 0 -0.578125 -0.109375l0.09375 -0.875l0.21875 0.03125q0.765625 0.046875 1.203125 -0.78125l0.421875 -0.96875l-0.71875 -6.21875l1.078125 0l0.328125 4.609375z" fill-rule="nonzero"/><path fill="#000000" fill-opacity="0.0" d="m393.46588 169.59186l128.31494 0l0 57.95276l-128.31494 0z" fill-rule="evenodd"/><path fill="#000000" d="m405.294 182.23686l-0.265625 1.53125l0.9375 0l-0.15625 0.84375l-0.921875 0l-0.671875 3.9375l-0.015625 0.234375q-0.015625 0.5 0.359375 0.5q0.140625 0 0.421875 -0.0625l-0.078125 0.890625q-0.328125 0.125 -0.671875 0.109375q-0.53125 0 -0.796875 -0.4375q-0.265625 -0.453125 -0.203125 -1.25l0.640625 -3.921875l-0.9375 0l0.15625 -0.84375l0.921875 0l0.28125 -1.53125l1.0 0zm1.9042969 7.875l-1.015625 0l1.09375 -6.34375l1.015625 0l-1.09375 6.34375zm0.3125 -8.015625q0.015625 -0.25 0.171875 -0.4375q0.15625 -0.1875 0.421875 -0.203125q0.25 -0.015625 0.40625 0.171875q0.171875 0.1875 0.15625 0.453125q-0.015625 0.25 -0.171875 0.4375q-0.15625 0.1875 -0.421875 0.1875q-0.25 0.015625 -0.40625 -0.15625q-0.15625 -0.1875 -0.15625 -0.453125zm4.0058594 0.140625l-0.265625 1.53125l0.9375 0l-0.15625 0.84375l-0.921875 0l-0.671875 3.9375l-0.015625 0.234375q-0.015625 0.5 0.359375 0.5q0.140625 0 0.421875 -0.0625l-0.078125 0.890625q-0.328125 0.125 -0.671875 0.109375q-0.53125 0 -0.796875 -0.4375q-0.265625 -0.453125 -0.203125 -1.25l0.640625 -3.921875l-0.9375 0l0.15625 -0.84375l0.921875 0l0.28125 -1.53125l1.0 0zm1.9042969 7.875l-1.015625 0l1.5625 -9.0l1.015625 0l-1.5625 9.0zm3.9902344 0.125q-1.0625 -0.015625 -1.59375 -0.765625q-0.53125 -0.765625 -0.390625 -2.078125l0.078125 -0.625q0.1875 -1.46875 0.90625 -2.296875q0.71875 -0.84375 1.828125 -0.8125q0.890625 0.015625 1.34375 0.609375q0.46875 0.59375 0.4375 1.671875l-0.046875 0.703125l-0.09375 0.609375l-3.390625 0q-0.078125 0.515625 -0.078125 0.8125q0.015625 0.59375 0.296875 0.9375q0.28125 0.328125 0.796875 0.34375q0.375 0.015625 0.734375 -0.140625q0.375 -0.171875 0.78125 -0.578125l0.46875 0.65625q-0.375 0.5 -0.921875 0.734375q-0.546875 0.21875 -1.15625 0.21875zm0.765625 -5.703125q-1.046875 -0.046875 -1.453125 1.265625l-0.171875 0.5625l2.4375 0l0.03125 -0.140625q0.03125 -0.28125 0.03125 -0.5625q-0.015625 -1.078125 -0.875 -1.125z" fill-rule="nonzero"/><path fill="#000000" d="m405.4815 197.65874q0.875 0.03125 1.296875 0.734375l0.609375 -3.28125l1.015625 0l-1.5625 9.0l-0.921875 0l0.109375 -0.6875q-0.625 0.828125 -1.5 0.8125q-0.796875 -0.015625 -1.234375 -0.625q-0.421875 -0.609375 -0.421875 -1.734375q0 -0.515625 0.140625 -1.375q0.140625 -0.859375 0.421875 -1.453125q0.65625 -1.4375 2.046875 -1.390625zm-1.59375 4.484375q0.03125 1.15625 0.96875 1.171875q0.328125 0.015625 0.625 -0.15625q0.3125 -0.1875 0.625 -0.625l0.546875 -3.203125q-0.296875 -0.734375 -0.96875 -0.765625q-1.390625 -0.0625 -1.6875 2.046875q-0.140625 1.03125 -0.109375 1.53125zm7.8046875 1.96875q-0.03125 -0.171875 -0.03125 -0.34375l0.015625 -0.34375q-0.671875 0.8125 -1.453125 0.8125q-0.75 0 -1.1875 -0.5q-0.421875 -0.5 -0.375 -1.3125q0.0625 -0.984375 0.8125 -1.5625q0.75 -0.59375 1.96875 -0.59375l0.703125 0l0.09375 -0.6875q0.109375 -1.046875 -0.796875 -1.046875q-0.453125 0 -0.765625 0.28125q-0.3125 0.265625 -0.390625 0.703125l-1.0 0.015625q0.078125 -0.8125 0.734375 -1.34375q0.65625 -0.546875 1.53125 -0.546875q0.859375 0.015625 1.3125 0.53125q0.46875 0.515625 0.375 1.4375l-0.515625 3.109375q-0.046875 0.34375 -0.03125 0.640625l0.03125 0.65625l-0.015625 0.09375l-1.015625 0zm-1.25 -0.8125q0.765625 0 1.3125 -0.75l0.265625 -1.515625l-0.46875 0q-0.59375 0 -1.0625 0.21875q-0.453125 0.21875 -0.65625 0.609375q-0.1875 0.390625 -0.125 0.84375q0.078125 0.59375 0.734375 0.59375zm5.517578 -0.921875l1.921875 -4.609375l1.109375 0l-3.28125 7.328125q-0.34375 0.796875 -0.8125 1.203125q-0.453125 0.40625 -0.984375 0.390625q-0.1875 0 -0.578125 -0.109375l0.09375 -0.875l0.21875 0.03125q0.765625 0.046875 1.203125 -0.78125l0.421875 -0.96875l-0.71875 -6.21875l1.078125 0l0.328125 4.609375zm6.232422 0.0625q0.078125 -0.5625 -0.625 -0.921875l-0.78125 -0.40625q-0.609375 -0.34375 -0.859375 -0.71875q-0.234375 -0.390625 -0.203125 -0.890625q0.046875 -0.8125 0.65625 -1.328125q0.609375 -0.53125 1.484375 -0.515625q0.859375 0.015625 1.328125 0.5625q0.484375 0.53125 0.453125 1.359375l-1.0 0q0 -0.46875 -0.21875 -0.734375q-0.21875 -0.28125 -0.625 -0.296875q-0.4375 0 -0.734375 0.265625q-0.296875 0.25 -0.359375 0.65625q-0.0625 0.46875 0.46875 0.765625l0.984375 0.515625q1.09375 0.609375 1.046875 1.609375q-0.0625 0.859375 -0.703125 1.375q-0.625 0.515625 -1.53125 0.5q-0.875 -0.015625 -1.421875 -0.578125q-0.546875 -0.5625 -0.515625 -1.453125l1.03125 0.015625q-0.015625 0.546875 0.234375 0.828125q0.25 0.28125 0.71875 0.28125q0.484375 0 0.796875 -0.234375q0.328125 -0.25 0.375 -0.65625zm5.736328 2.5625l-4.453125 0l0.171875 -0.890625l4.4375 0l-0.15625 0.890625zm4.3945312 -2.5625q0.078125 -0.5625 -0.625 -0.921875l-0.78125 -0.40625q-0.609375 -0.34375 -0.859375 -0.71875q-0.234375 -0.390625 -0.203125 -0.890625q0.046875 -0.8125 0.65625 -1.328125q0.609375 -0.53125 1.484375 -0.515625q0.859375 0.015625 1.328125 0.5625q0.484375 0.53125 0.453125 1.359375l-1.0 0q0 -0.46875 -0.21875 -0.734375q-0.21875 -0.28125 -0.625 -0.296875q-0.4375 0 -0.734375 0.265625q-0.296875 0.25 -0.359375 0.65625q-0.0625 0.46875 0.46875 0.765625l0.984375 0.515625q1.09375 0.609375 1.046875 1.609375q-0.0625 0.859375 -0.703125 1.375q-0.625 0.515625 -1.53125 0.5q-0.875 -0.015625 -1.421875 -0.578125q-0.546875 -0.5625 -0.515625 -1.453125l1.03125 0.015625q-0.015625 0.546875 0.234375 0.828125q0.25 0.28125 0.71875 0.28125q0.484375 0 0.796875 -0.234375q0.328125 -0.25 0.375 -0.65625zm3.1582031 1.671875l-1.015625 0l1.09375 -6.34375l1.015625 0l-1.09375 6.34375zm0.3125 -8.015625q0.015625 -0.25 0.171875 -0.4375q0.15625 -0.1875 0.421875 -0.203125q0.25 -0.015625 0.40625 0.171875q0.171875 0.1875 0.15625 0.453125q-0.015625 0.25 -0.171875 0.4375q-0.15625 0.1875 -0.421875 0.1875q-0.25 0.015625 -0.40625 -0.15625q-0.15625 -0.1875 -0.15625 -0.453125zm3.3652344 1.671875l-0.140625 0.6875q0.703125 -0.8125 1.578125 -0.796875q0.59375 0 0.953125 0.40625q0.359375 0.40625 0.40625 1.09375q0.015625 0.40625 -0.015625 0.796875l-0.703125 4.15625l-1.0 0l0.703125 -4.171875l0.015625 -0.46875q0 -0.890625 -0.734375 -0.90625q-0.609375 -0.015625 -1.125 0.6875l-0.171875 0.25l-0.796875 4.609375l-1.015625 0l1.09375 -6.34375l0.953125 0zm5.923828 5.59375q0.5 0.015625 0.84375 -0.3125q0.34375 -0.328125 0.46875 -0.9375l0.953125 0q-0.125 0.9375 -0.78125 1.546875q-0.65625 0.59375 -1.53125 0.578125q-0.84375 -0.015625 -1.34375 -0.5q-0.5 -0.5 -0.59375 -1.375q-0.0625 -0.53125 0 -1.0625l0.078125 -0.640625q0.203125 -1.46875 0.90625 -2.25q0.71875 -0.78125 1.859375 -0.75q0.875 0.015625 1.359375 0.640625q0.484375 0.625 0.453125 1.65625l-0.96875 0q0.046875 -1.375 -0.90625 -1.421875q-1.375 -0.046875 -1.65625 1.96875q-0.1875 1.25 -0.15625 1.703125q0.0625 1.125 1.015625 1.15625zm5.515625 0.875q-1.0625 -0.015625 -1.59375 -0.765625q-0.53125 -0.765625 -0.390625 -2.078125l0.078125 -0.625q0.1875 -1.46875 0.90625 -2.296875q0.71875 -0.84375 1.828125 -0.8125q0.890625 0.015625 1.34375 0.609375q0.46875 0.59375 0.4375 1.671875l-0.046875 0.703125l-0.09375 0.609375l-3.390625 0q-0.078125 0.515625 -0.078125 0.8125q0.015625 0.59375 0.296875 0.9375q0.28125 0.328125 0.796875 0.34375q0.375 0.015625 0.734375 -0.140625q0.375 -0.171875 0.78125 -0.578125l0.46875 0.65625q-0.375 0.5 -0.921875 0.734375q-0.546875 0.21875 -1.15625 0.21875zm0.765625 -5.703125q-1.046875 -0.046875 -1.453125 1.265625l-0.171875 0.5625l2.4375 0l0.03125 -0.140625q0.03125 -0.28125 0.03125 -0.5625q-0.015625 -1.078125 -0.875 -1.125zm6.0546875 6.46875l-4.453125 0l0.171875 -0.890625l4.4375 0l-0.15625 0.890625zm4.3789062 -1.453125q-0.609375 0.703125 -1.515625 0.6875q-0.671875 -0.015625 -1.03125 -0.484375q-0.359375 -0.484375 -0.359375 -1.359375l0.03125 -0.53125l0.671875 -4.09375l1.015625 0l-0.6875 4.109375l-0.015625 0.4375q-0.03125 0.421875 0.125 0.703125q0.171875 0.28125 0.484375 0.296875q0.859375 0.03125 1.40625 -0.84375l0.796875 -4.703125l1.015625 0l-1.09375 6.34375l-0.953125 0l0.109375 -0.5625zm4.9179688 0.6875q-0.90625 -0.03125 -1.359375 -0.734375l-0.5625 3.046875l-1.015625 0l1.53125 -8.78125l0.90625 0l-0.125 0.703125q0.640625 -0.828125 1.546875 -0.828125q0.84375 0.015625 1.25 0.640625q0.421875 0.609375 0.390625 1.703125q-0.015625 0.515625 -0.140625 1.34375q-0.109375 0.8125 -0.34375 1.375q-0.640625 1.578125 -2.078125 1.53125zm1.546875 -4.484375q-0.078125 -1.171875 -0.984375 -1.1875q-0.703125 -0.015625 -1.234375 0.75l-0.578125 3.3125q0.28125 0.6875 0.984375 0.71875q0.6875 0.03125 1.125 -0.484375q0.4375 -0.515625 0.578125 -1.59375q0.140625 -1.09375 0.109375 -1.515625zm2.8320312 4.359375l-1.015625 0l1.5625 -9.0l1.015625 0l-1.5625 9.0zm2.0371094 -3.453125q0.203125 -1.359375 0.9375 -2.1875q0.75 -0.84375 1.875 -0.8125q0.703125 0.015625 1.171875 0.40625q0.46875 0.390625 0.671875 1.078125q0.203125 0.671875 0.109375 1.5l-0.078125 0.609375q-0.1875 1.359375 -0.9375 2.1875q-0.734375 0.8125 -1.859375 0.796875q-0.703125 -0.03125 -1.171875 -0.40625q-0.46875 -0.390625 -0.671875 -1.078125q-0.203125 -0.6875 -0.109375 -1.5l0.0625 -0.59375zm0.90625 1.015625q-0.015625 0.78125 0.25 1.21875q0.265625 0.4375 0.78125 0.453125q0.6875 0.03125 1.125 -0.484375q0.453125 -0.515625 0.609375 -1.53125l0.078125 -0.6875l0.03125 -0.421875q0.015625 -0.796875 -0.25 -1.21875q-0.265625 -0.4375 -0.78125 -0.46875q-0.6875 -0.03125 -1.15625 0.578125q-0.453125 0.59375 -0.59375 1.671875l-0.0625 0.578125l-0.03125 0.3125zm7.8378906 2.4375q-0.03125 -0.171875 -0.03125 -0.34375l0.015625 -0.34375q-0.671875 0.8125 -1.453125 0.8125q-0.75 0 -1.1875 -0.5q-0.421875 -0.5 -0.375 -1.3125q0.0625 -0.984375 0.8125 -1.5625q0.75 -0.59375 1.96875 -0.59375l0.703125 0l0.09375 -0.6875q0.109375 -1.046875 -0.796875 -1.046875q-0.453125 0 -0.765625 0.28125q-0.3125 0.265625 -0.390625 0.703125l-1.0 0.015625q0.078125 -0.8125 0.734375 -1.34375q0.65625 -0.546875 1.53125 -0.546875q0.859375 0.015625 1.3125 0.53125q0.46875 0.515625 0.375 1.4375l-0.515625 3.109375q-0.046875 0.34375 -0.03125 0.640625l0.03125 0.65625l-0.015625 0.09375l-1.015625 0zm-1.25 -0.8125q0.765625 0 1.3125 -0.75l0.265625 -1.515625l-0.46875 0q-0.59375 0 -1.0625 0.21875q-0.453125 0.21875 -0.65625 0.609375q-0.1875 0.390625 -0.125 0.84375q0.078125 0.59375 0.734375 0.59375zm6.5117188 -5.640625q0.875 0.03125 1.296875 0.734375l0.609375 -3.28125l1.015625 0l-1.5625 9.0l-0.921875 0l0.109375 -0.6875q-0.625 0.828125 -1.5 0.8125q-0.796875 -0.015625 -1.234375 -0.625q-0.421875 -0.609375 -0.421875 -1.734375q0 -0.515625 0.140625 -1.375q0.140625 -0.859375 0.421875 -1.453125q0.65625 -1.4375 2.046875 -1.390625zm-1.59375 4.484375q0.03125 1.15625 0.96875 1.171875q0.328125 0.015625 0.625 -0.15625q0.3125 -0.1875 0.625 -0.625l0.546875 -3.203125q-0.296875 -0.734375 -0.96875 -0.765625q-1.390625 -0.0625 -1.6875 2.046875q-0.140625 1.03125 -0.109375 1.53125z" fill-rule="nonzero"/><path fill="#000000" d="m404.96588 218.23686q-1.0625 -0.015625 -1.59375 -0.765625q-0.53125 -0.765625 -0.390625 -2.078125l0.078125 -0.625q0.1875 -1.46875 0.90625 -2.296875q0.71875 -0.84375 1.828125 -0.8125q0.890625 0.015625 1.34375 0.609375q0.46875 0.59375 0.4375 1.671875l-0.046875 0.703125l-0.09375 0.609375l-3.390625 0q-0.078125 0.515625 -0.078125 0.8125q0.015625 0.59375 0.296875 0.9375q0.28125 0.328125 0.796875 0.34375q0.375 0.015625 0.734375 -0.140625q0.375 -0.171875 0.78125 -0.578125l0.46875 0.65625q-0.375 0.5 -0.921875 0.734375q-0.546875 0.21875 -1.15625 0.21875zm0.765625 -5.703125q-1.046875 -0.046875 -1.453125 1.265625l-0.171875 0.5625l2.4375 0l0.03125 -0.140625q0.03125 -0.28125 0.03125 -0.5625q-0.015625 -1.078125 -0.875 -1.125zm4.4296875 -0.765625l-0.125 0.59375q0.671875 -0.734375 1.5625 -0.703125q0.453125 0 0.796875 0.234375q0.359375 0.234375 0.5 0.671875q0.765625 -0.921875 1.734375 -0.921875q0.640625 0.015625 1.0 0.40625q0.375 0.390625 0.4375 1.078125q0.03125 0.40625 0 0.8125l-0.703125 4.171875l-1.0 0l0.6875 -4.171875l0.015625 -0.5q-0.015625 -0.421875 -0.21875 -0.640625q-0.203125 -0.234375 -0.59375 -0.234375q-0.46875 -0.015625 -0.84375 0.375q-0.359375 0.390625 -0.4375 0.921875l0 0.03125l-0.71875 4.21875l-1.015625 0l0.6875 -4.171875q0.03125 -0.234375 0.015625 -0.484375q-0.046875 -0.859375 -0.796875 -0.890625q-0.71875 -0.015625 -1.203125 0.78125l-0.8125 4.765625l-1.015625 0l1.109375 -6.34375l0.9375 0zm9.302734 6.46875q-0.984375 -0.046875 -1.375 -0.875l-0.21875 0.75l-0.9375 0l1.5625 -9.0l1.015625 0l-0.640625 3.359375q0.625 -0.84375 1.515625 -0.8125q0.8125 0 1.234375 0.609375q0.421875 0.59375 0.40625 1.71875q-0.03125 0.625 -0.15625 1.40625q-0.109375 0.765625 -0.34375 1.328125q-0.625 1.546875 -2.0625 1.515625zm1.5625 -4.484375q-0.03125 -0.609375 -0.28125 -0.890625q-0.234375 -0.28125 -0.6875 -0.296875q-0.75 -0.015625 -1.3125 0.875l-0.515625 3.03125q0.28125 0.8125 1.03125 0.84375q0.671875 0.03125 1.09375 -0.46875q0.421875 -0.515625 0.546875 -1.625q0.140625 -1.125 0.125 -1.46875zm4.0664062 4.484375q-1.0625 -0.015625 -1.59375 -0.765625q-0.53125 -0.765625 -0.390625 -2.078125l0.078125 -0.625q0.1875 -1.46875 0.90625 -2.296875q0.71875 -0.84375 1.828125 -0.8125q0.890625 0.015625 1.34375 0.609375q0.46875 0.59375 0.4375 1.671875l-0.046875 0.703125l-0.09375 0.609375l-3.390625 0q-0.078125 0.515625 -0.078125 0.8125q0.015625 0.59375 0.296875 0.9375q0.28125 0.328125 0.796875 0.34375q0.375 0.015625 0.734375 -0.140625q0.375 -0.171875 0.78125 -0.578125l0.46875 0.65625q-0.375 0.5 -0.921875 0.734375q-0.546875 0.21875 -1.15625 0.21875zm0.765625 -5.703125q-1.046875 -0.046875 -1.453125 1.265625l-0.171875 0.5625l2.4375 0l0.03125 -0.140625q0.03125 -0.28125 0.03125 -0.5625q-0.015625 -1.078125 -0.875 -1.125zm5.2578125 -0.875q0.875 0.03125 1.296875 0.734375l0.609375 -3.28125l1.015625 0l-1.5625 9.0l-0.921875 0l0.109375 -0.6875q-0.625 0.828125 -1.5 0.8125q-0.796875 -0.015625 -1.234375 -0.625q-0.421875 -0.609375 -0.421875 -1.734375q0 -0.515625 0.140625 -1.375q0.140625 -0.859375 0.421875 -1.453125q0.65625 -1.4375 2.046875 -1.390625zm-1.59375 4.484375q0.03125 1.15625 0.96875 1.171875q0.328125 0.015625 0.625 -0.15625q0.3125 -0.1875 0.625 -0.625l0.546875 -3.203125q-0.296875 -0.734375 -0.96875 -0.765625q-1.390625 -0.0625 -1.6875 2.046875q-0.140625 1.03125 -0.109375 1.53125zm7.4296875 -4.484375q0.875 0.03125 1.296875 0.734375l0.609375 -3.28125l1.015625 0l-1.5625 9.0l-0.921875 0l0.109375 -0.6875q-0.625 0.828125 -1.5 0.8125q-0.796875 -0.015625 -1.234375 -0.625q-0.421875 -0.609375 -0.421875 -1.734375q0 -0.515625 0.140625 -1.375q0.140625 -0.859375 0.421875 -1.453125q0.65625 -1.4375 2.046875 -1.390625zm-1.59375 4.484375q0.03125 1.15625 0.96875 1.171875q0.328125 0.015625 0.625 -0.15625q0.3125 -0.1875 0.625 -0.625l0.546875 -3.203125q-0.296875 -0.734375 -0.96875 -0.765625q-1.390625 -0.0625 -1.6875 2.046875q-0.140625 1.03125 -0.109375 1.53125zm5.6484375 1.96875l-1.015625 0l1.09375 -6.34375l1.015625 0l-1.09375 6.34375zm0.3125 -8.015625q0.015625 -0.25 0.171875 -0.4375q0.15625 -0.1875 0.421875 -0.203125q0.25 -0.015625 0.40625 0.171875q0.171875 0.1875 0.15625 0.453125q-0.015625 0.25 -0.171875 0.4375q-0.15625 0.1875 -0.421875 0.1875q-0.25 0.015625 -0.40625 -0.15625q-0.15625 -0.1875 -0.15625 -0.453125zm3.3652344 1.671875l-0.140625 0.6875q0.703125 -0.8125 1.578125 -0.796875q0.59375 0 0.953125 0.40625q0.359375 0.40625 0.40625 1.09375q0.015625 0.40625 -0.015625 0.796875l-0.703125 4.15625l-1.0 0l0.703125 -4.171875l0.015625 -0.46875q0 -0.890625 -0.734375 -0.90625q-0.609375 -0.015625 -1.125 0.6875l-0.171875 0.25l-0.796875 4.609375l-1.015625 0l1.09375 -6.34375l0.953125 0zm6.517578 -0.109375q0.921875 0.015625 1.34375 0.828125l0.203125 -0.71875l0.921875 0l-1.078125 6.390625q-0.109375 0.75 -0.453125 1.3125q-0.34375 0.578125 -0.890625 0.875q-0.53125 0.296875 -1.234375 0.265625q-0.5 -0.015625 -1.0 -0.25q-0.5 -0.21875 -0.8125 -0.578125l0.484375 -0.703125q0.5625 0.625 1.28125 0.65625q0.640625 0.015625 1.046875 -0.375q0.421875 -0.375 0.5625 -1.140625l0.15625 -0.734375q-0.640625 0.765625 -1.46875 0.75q-0.8125 -0.015625 -1.25 -0.640625q-0.421875 -0.625 -0.40625 -1.703125q0 -0.46875 0.109375 -1.265625q0.203125 -1.46875 0.828125 -2.234375q0.625 -0.765625 1.65625 -0.734375zm-1.578125 4.484375q0.015625 1.15625 0.953125 1.171875q0.703125 0.015625 1.265625 -0.78125l0.546875 -3.1875q-0.3125 -0.75 -0.984375 -0.78125q-1.40625 -0.046875 -1.671875 2.078125q-0.140625 1.03125 -0.109375 1.5z" fill-rule="nonzero"/><path fill="#000000" fill-opacity="0.0" d="m276.99344 117.203415l102.61417 0l0 36.7874l-102.61417 0z" fill-rule="evenodd"/><path fill="#000000" d="m291.0247 135.8953l1.71875 -4.515625l1.03125 0l-2.609375 6.34375l-0.8125 0l-0.40625 -4.53125l-1.953125 4.53125l-0.8125 0l-0.40625 -6.34375l0.96875 0l0.1875 4.390625l1.90625 -4.390625l0.796875 0l0.390625 4.515625zm5.982422 1.828125q-0.03125 -0.171875 -0.03125 -0.34375l0.015625 -0.34375q-0.671875 0.8125 -1.453125 0.8125q-0.75 0 -1.1875 -0.5q-0.421875 -0.5 -0.375 -1.3125q0.0625 -0.984375 0.8125 -1.5625q0.75 -0.59375 1.96875 -0.59375l0.703125 0l0.09375 -0.6875q0.109375 -1.046875 -0.796875 -1.046875q-0.453125 0 -0.765625 0.28125q-0.3125 0.265625 -0.390625 0.703125l-1.0 0.015625q0.078125 -0.8125 0.734375 -1.34375q0.65625 -0.546875 1.53125 -0.546875q0.859375 0.015625 1.3125 0.53125q0.46875 0.515625 0.375 1.4375l-0.515625 3.109375q-0.046875 0.34375 -0.03125 0.640625l0.03125 0.65625l-0.015625 0.09375l-1.015625 0zm-1.25 -0.8125q0.765625 0 1.3125 -0.75l0.265625 -1.515625l-0.46875 0q-0.59375 0 -1.0625 0.21875q-0.453125 0.21875 -0.65625 0.609375q-0.1875 0.390625 -0.125 0.84375q0.078125 0.59375 0.734375 0.59375zm6.3242188 -7.0625l-0.265625 1.53125l0.9375 0l-0.15625 0.84375l-0.921875 0l-0.671875 3.9375l-0.015625 0.234375q-0.015625 0.5 0.359375 0.5q0.140625 0 0.421875 -0.0625l-0.078125 0.890625q-0.328125 0.125 -0.671875 0.109375q-0.53125 0 -0.796875 -0.4375q-0.265625 -0.453125 -0.203125 -1.25l0.640625 -3.921875l-0.9375 0l0.15625 -0.84375l0.921875 0l0.28125 -1.53125l1.0 0zm3.0917969 7.125q0.5 0.015625 0.84375 -0.3125q0.34375 -0.328125 0.46875 -0.9375l0.953125 0q-0.125 0.9375 -0.78125 1.546875q-0.65625 0.59375 -1.53125 0.578125q-0.84375 -0.015625 -1.34375 -0.5q-0.5 -0.5 -0.59375 -1.375q-0.0625 -0.53125 0 -1.0625l0.078125 -0.640625q0.203125 -1.46875 0.90625 -2.25q0.71875 -0.78125 1.859375 -0.75q0.875 0.015625 1.359375 0.640625q0.484375 0.625 0.453125 1.65625l-0.96875 0q0.046875 -1.375 -0.90625 -1.421875q-1.375 -0.046875 -1.65625 1.96875q-0.1875 1.25 -0.15625 1.703125q0.0625 1.125 1.015625 1.15625zm5.109375 -4.9375q0.703125 -0.78125 1.53125 -0.765625q0.609375 0 0.953125 0.40625q0.359375 0.390625 0.40625 1.09375q0.015625 0.40625 -0.015625 0.796875l-0.703125 4.15625l-1.0 0l0.703125 -4.171875l0.015625 -0.46875q0 -0.890625 -0.734375 -0.90625q-0.609375 -0.015625 -1.125 0.6875l-0.171875 0.25l-0.796875 4.609375l-1.015625 0l1.5625 -9.0l1.015625 0l-0.625 3.3125zm7.3964844 6.578125l-4.453125 0l0.171875 -0.890625l4.4375 0l-0.15625 0.890625zm3.9726562 -7.34375q0.875 0.03125 1.296875 0.734375l0.609375 -3.28125l1.015625 0l-1.5625 9.0l-0.921875 0l0.109375 -0.6875q-0.625 0.828125 -1.5 0.8125q-0.796875 -0.015625 -1.234375 -0.625q-0.421875 -0.609375 -0.421875 -1.734375q0 -0.515625 0.140625 -1.375q0.140625 -0.859375 0.421875 -1.453125q0.65625 -1.4375 2.046875 -1.390625zm-1.59375 4.484375q0.03125 1.15625 0.96875 1.171875q0.328125 0.015625 0.625 -0.15625q0.3125 -0.1875 0.625 -0.625l0.546875 -3.203125q-0.296875 -0.734375 -0.96875 -0.765625q-1.390625 -0.0625 -1.6875 2.046875q-0.140625 1.03125 -0.109375 1.53125zm7.8359375 1.40625q-0.609375 0.703125 -1.515625 0.6875q-0.671875 -0.015625 -1.03125 -0.484375q-0.359375 -0.484375 -0.359375 -1.359375l0.03125 -0.53125l0.671875 -4.09375l1.015625 0l-0.6875 4.109375l-0.015625 0.4375q-0.03125 0.421875 0.125 0.703125q0.171875 0.28125 0.484375 0.296875q0.859375 0.03125 1.40625 -0.84375l0.796875 -4.703125l1.015625 0l-1.09375 6.34375l-0.953125 0l0.109375 -0.5625zm5.9179688 -4.8125q-0.25 -0.046875 -0.453125 -0.046875q-0.765625 0 -1.265625 0.875l-0.78125 4.546875l-1.015625 0l1.09375 -6.34375l0.984375 0l-0.140625 0.640625q0.546875 -0.78125 1.25 -0.765625q0.140625 0 0.4375 0.09375l-0.109375 1.0zm3.0976562 5.375q-0.03125 -0.171875 -0.03125 -0.34375l0.015625 -0.34375q-0.671875 0.8125 -1.453125 0.8125q-0.75 0 -1.1875 -0.5q-0.421875 -0.5 -0.375 -1.3125q0.0625 -0.984375 0.8125 -1.5625q0.75 -0.59375 1.96875 -0.59375l0.703125 0l0.09375 -0.6875q0.109375 -1.046875 -0.796875 -1.046875q-0.453125 0 -0.765625 0.28125q-0.3125 0.265625 -0.390625 0.703125l-1.0 0.015625q0.078125 -0.8125 0.734375 -1.34375q0.65625 -0.546875 1.53125 -0.546875q0.859375 0.015625 1.3125 0.53125q0.46875 0.515625 0.375 1.4375l-0.515625 3.109375q-0.046875 0.34375 -0.03125 0.640625l0.03125 0.65625l-0.015625 0.09375l-1.015625 0zm-1.25 -0.8125q0.765625 0 1.3125 -0.75l0.265625 -1.515625l-0.46875 0q-0.59375 0 -1.0625 0.21875q-0.453125 0.21875 -0.65625 0.609375q-0.1875 0.390625 -0.125 0.84375q0.078125 0.59375 0.734375 0.59375zm6.3242188 -7.0625l-0.265625 1.53125l0.9375 0l-0.15625 0.84375l-0.921875 0l-0.671875 3.9375l-0.015625 0.234375q-0.015625 0.5 0.359375 0.5q0.140625 0 0.421875 -0.0625l-0.078125 0.890625q-0.328125 0.125 -0.671875 0.109375q-0.53125 0 -0.796875 -0.4375q-0.265625 -0.453125 -0.203125 -1.25l0.640625 -3.921875l-0.9375 0l0.15625 -0.84375l0.921875 0l0.28125 -1.53125l1.0 0zm1.9042969 7.875l-1.015625 0l1.09375 -6.34375l1.015625 0l-1.09375 6.34375zm0.3125 -8.015625q0.015625 -0.25 0.171875 -0.4375q0.15625 -0.1875 0.421875 -0.203125q0.25 -0.015625 0.40625 0.171875q0.171875 0.1875 0.15625 0.453125q-0.015625 0.25 -0.171875 0.4375q-0.15625 0.1875 -0.421875 0.1875q-0.25 0.015625 -0.40625 -0.15625q-0.15625 -0.1875 -0.15625 -0.453125zm1.7246094 4.5625q0.203125 -1.359375 0.9375 -2.1875q0.75 -0.84375 1.875 -0.8125q0.703125 0.015625 1.171875 0.40625q0.46875 0.390625 0.671875 1.078125q0.203125 0.671875 0.109375 1.5l-0.078125 0.609375q-0.1875 1.359375 -0.9375 2.1875q-0.734375 0.8125 -1.859375 0.796875q-0.703125 -0.03125 -1.171875 -0.40625q-0.46875 -0.390625 -0.671875 -1.078125q-0.203125 -0.6875 -0.109375 -1.5l0.0625 -0.59375zm0.90625 1.015625q-0.015625 0.78125 0.25 1.21875q0.265625 0.4375 0.78125 0.453125q0.6875 0.03125 1.125 -0.484375q0.453125 -0.515625 0.609375 -1.53125l0.078125 -0.6875l0.03125 -0.421875q0.015625 -0.796875 -0.25 -1.21875q-0.265625 -0.4375 -0.78125 -0.46875q-0.6875 -0.03125 -1.15625 0.578125q-0.453125 0.59375 -0.59375 1.671875l-0.0625 0.578125l-0.03125 0.3125zm6.6347656 -3.90625l-0.140625 0.6875q0.703125 -0.8125 1.578125 -0.796875q0.59375 0 0.953125 0.40625q0.359375 0.40625 0.40625 1.09375q0.015625 0.40625 -0.015625 0.796875l-0.703125 4.15625l-1.0 0l0.703125 -4.171875l0.015625 -0.46875q0 -0.890625 -0.734375 -0.90625q-0.609375 -0.015625 -1.125 0.6875l-0.171875 0.25l-0.796875 4.609375l-1.015625 0l1.09375 -6.34375l0.953125 0z" fill-rule="nonzero"/><path fill="#000000" fill-opacity="0.0" d="m201.69423 29.42651l102.61418 0l0 36.787403l-102.61418 0z" fill-rule="evenodd"/><path fill="#000000" d="m214.13173 48.274635q0.078125 -0.5625 -0.625 -0.921875l-0.78125 -0.40625q-0.609375 -0.34375 -0.859375 -0.71875q-0.234375 -0.390625 -0.203125 -0.890625q0.046875 -0.8125 0.65625 -1.328125q0.609375 -0.53125 1.484375 -0.515625q0.859375 0.015625 1.328125 0.5625q0.484375 0.53125 0.453125 1.359375l-1.0 0q0 -0.46875 -0.21875 -0.734375q-0.21875 -0.28125 -0.625 -0.296875q-0.4375 0 -0.734375 0.265625q-0.296875 0.25 -0.359375 0.65625q-0.0625 0.46875 0.46875 0.765625l0.984375 0.515625q1.09375 0.609375 1.046875 1.609375q-0.0625 0.859375 -0.703125 1.375q-0.625 0.515625 -1.53125 0.5q-0.875 -0.015625 -1.421875 -0.578125q-0.546875 -0.5625 -0.515625 -1.453125l1.03125 0.015625q-0.015625 0.546875 0.234375 0.828125q0.25 0.28125 0.71875 0.28125q0.484375 0 0.796875 -0.234375q0.328125 -0.25 0.375 -0.65625zm3.1582031 1.671875l-1.015625 0l1.09375 -6.34375l1.015625 0l-1.09375 6.34375zm0.3125 -8.015625q0.015625 -0.25 0.171875 -0.4375q0.15625 -0.1875 0.421875 -0.203125q0.25 -0.015625 0.40625 0.171875q0.171875 0.1875 0.15625 0.453125q-0.015625 0.25 -0.171875 0.4375q-0.15625 0.1875 -0.421875 0.1875q-0.25 0.015625 -0.40625 -0.15625q-0.15625 -0.1875 -0.15625 -0.453125zm3.3652344 1.671875l-0.125 0.59375q0.671875 -0.734375 1.5625 -0.703125q0.453125 0 0.796875 0.234375q0.359375 0.234375 0.5 0.671875q0.765625 -0.921875 1.734375 -0.921875q0.640625 0.015625 1.0 0.40625q0.375 0.390625 0.4375 1.078125q0.03125 0.40625 0 0.8125l-0.703125 4.171875l-1.0 0l0.6875 -4.171875l0.015625 -0.5q-0.015625 -0.421875 -0.21875 -0.640625q-0.203125 -0.234375 -0.59375 -0.234375q-0.46875 -0.015625 -0.84375 0.375q-0.359375 0.390625 -0.4375 0.921875l0 0.03125l-0.71875 4.21875l-1.015625 0l0.6875 -4.171875q0.03125 -0.234375 0.015625 -0.484375q-0.046875 -0.859375 -0.796875 -0.890625q-0.71875 -0.015625 -1.203125 0.78125l-0.8125 4.765625l-1.015625 0l1.109375 -6.34375l0.9375 0zm7.8652344 6.34375l-1.015625 0l1.09375 -6.34375l1.015625 0l-1.09375 6.34375zm0.3125 -8.015625q0.015625 -0.25 0.171875 -0.4375q0.15625 -0.1875 0.421875 -0.203125q0.25 -0.015625 0.40625 0.171875q0.171875 0.1875 0.15625 0.453125q-0.015625 0.25 -0.171875 0.4375q-0.15625 0.1875 -0.421875 0.1875q-0.25 0.015625 -0.40625 -0.15625q-0.15625 -0.1875 -0.15625 -0.453125zm2.4121094 8.015625l-1.015625 0l1.5625 -9.0l1.015625 0l-1.5625 9.0zm4.8808594 0q-0.03125 -0.171875 -0.03125 -0.34375l0.015625 -0.34375q-0.671875 0.8125 -1.453125 0.8125q-0.75 0 -1.1875 -0.5q-0.421875 -0.5 -0.375 -1.3125q0.0625 -0.984375 0.8125 -1.5625q0.75 -0.59375 1.96875 -0.59375l0.703125 0l0.09375 -0.6875q0.109375 -1.046875 -0.796875 -1.046875q-0.453125 0 -0.765625 0.28125q-0.3125 0.265625 -0.390625 0.703125l-1.0 0.015625q0.078125 -0.8125 0.734375 -1.34375q0.65625 -0.546875 1.53125 -0.546875q0.859375 0.015625 1.3125 0.53125q0.46875 0.515625 0.375 1.4375l-0.515625 3.109375q-0.046875 0.34375 -0.03125 0.640625l0.03125 0.65625l-0.015625 0.09375l-1.015625 0zm-1.25 -0.8125q0.765625 0 1.3125 -0.75l0.265625 -1.515625l-0.46875 0q-0.59375 0 -1.0625 0.21875q-0.453125 0.21875 -0.65625 0.609375q-0.1875 0.390625 -0.125 0.84375q0.078125 0.59375 0.734375 0.59375zm7.1523438 -4.5625q-0.25 -0.046875 -0.453125 -0.046875q-0.765625 0 -1.265625 0.875l-0.78125 4.546875l-1.015625 0l1.09375 -6.34375l0.984375 0l-0.140625 0.640625q0.546875 -0.78125 1.25 -0.765625q0.140625 0 0.4375 0.09375l-0.109375 1.0zm1.1757812 5.375l-1.015625 0l1.09375 -6.34375l1.015625 0l-1.09375 6.34375zm0.3125 -8.015625q0.015625 -0.25 0.171875 -0.4375q0.15625 -0.1875 0.421875 -0.203125q0.25 -0.015625 0.40625 0.171875q0.171875 0.1875 0.15625 0.453125q-0.015625 0.25 -0.171875 0.4375q-0.15625 0.1875 -0.421875 0.1875q-0.25 0.015625 -0.40625 -0.15625q-0.15625 -0.1875 -0.15625 -0.453125zm4.0058594 0.140625l-0.265625 1.53125l0.9375 0l-0.15625 0.84375l-0.921875 0l-0.671875 3.9375l-0.015625 0.234375q-0.015625 0.5 0.359375 0.5q0.140625 0 0.421875 -0.0625l-0.078125 0.890625q-0.328125 0.125 -0.671875 0.109375q-0.53125 0 -0.796875 -0.4375q-0.265625 -0.453125 -0.203125 -1.25l0.640625 -3.921875l-0.9375 0l0.15625 -0.84375l0.921875 0l0.28125 -1.53125l1.0 0zm1.9042969 7.875l-1.015625 0l1.09375 -6.34375l1.015625 0l-1.09375 6.34375zm0.3125 -8.015625q0.015625 -0.25 0.171875 -0.4375q0.15625 -0.1875 0.421875 -0.203125q0.25 -0.015625 0.40625 0.171875q0.171875 0.1875 0.15625 0.453125q-0.015625 0.25 -0.171875 0.4375q-0.15625 0.1875 -0.421875 0.1875q-0.25 0.015625 -0.40625 -0.15625q-0.15625 -0.1875 -0.15625 -0.453125zm3.6777344 8.140625q-1.0625 -0.015625 -1.59375 -0.765625q-0.53125 -0.765625 -0.390625 -2.078125l0.078125 -0.625q0.1875 -1.46875 0.90625 -2.296875q0.71875 -0.84375 1.828125 -0.8125q0.890625 0.015625 1.34375 0.609375q0.46873474 0.59375 0.43748474 1.671875l-0.046875 0.703125l-0.09375 0.609375l-3.3906097 0q-0.078125 0.515625 -0.078125 0.8125q0.015625 0.59375 0.296875 0.9375q0.28125 0.328125 0.796875 0.34375q0.375 0.015625 0.734375 -0.140625q0.375 -0.171875 0.78125 -0.578125l0.46875 0.65625q-0.375 0.5 -0.921875 0.734375q-0.546875 0.21875 -1.15625 0.21875zm0.765625 -5.703125q-1.046875 -0.046875 -1.453125 1.265625l-0.171875 0.5625l2.4375 0l0.03125 -0.140625q0.03125 -0.28125 0.03125 -0.5625q-0.015625 -1.078125 -0.875 -1.125zm5.6796722 3.90625q0.078125 -0.5625 -0.625 -0.921875l-0.78125 -0.40625q-0.609375 -0.34375 -0.859375 -0.71875q-0.234375 -0.390625 -0.203125 -0.890625q0.046875 -0.8125 0.65625 -1.328125q0.609375 -0.53125 1.484375 -0.515625q0.859375 0.015625 1.328125 0.5625q0.484375 0.53125 0.453125 1.359375l-1.0 0q0 -0.46875 -0.21875 -0.734375q-0.21875 -0.28125 -0.625 -0.296875q-0.4375 0 -0.734375 0.265625q-0.296875 0.25 -0.359375 0.65625q-0.0625 0.46875 0.46875 0.765625l0.984375 0.515625q1.09375 0.609375 1.046875 1.609375q-0.0625 0.859375 -0.703125 1.375q-0.625 0.515625 -1.53125 0.5q-0.875 -0.015625 -1.421875 -0.578125q-0.546875 -0.5625 -0.515625 -1.453125l1.03125 0.015625q-0.015625 0.546875 0.234375 0.828125q0.25 0.28125 0.71875 0.28125q0.484375 0 0.796875 -0.234375q0.328125 -0.25 0.375 -0.65625z" fill-rule="nonzero"/><path fill="#000000" fill-opacity="0.0" d="m568.36615 36.360893l102.614136 0l0 36.7874l-102.614136 0z" fill-rule="evenodd"/><path fill="#000000" d="m580.7568 56.880894q-0.03125 -0.171875 -0.03125 -0.34375l0.015625 -0.34375q-0.671875 0.8125 -1.453125 0.8125q-0.75 0 -1.1875 -0.5q-0.421875 -0.5 -0.375 -1.3125q0.0625 -0.984375 0.8125 -1.5625q0.75 -0.59375 1.96875 -0.59375l0.703125 0l0.09375 -0.6875q0.109375 -1.046875 -0.796875 -1.046875q-0.453125 0 -0.765625 0.28125q-0.3125 0.265625 -0.390625 0.703125l-1.0 0.015625q0.078125 -0.8125 0.734375 -1.34375q0.65625 -0.546875 1.53125 -0.546875q0.859375 0.015625 1.3125 0.53125q0.46875 0.515625 0.375 1.4375l-0.515625 3.109375q-0.046875 0.34375 -0.03125 0.640625l0.03125 0.65625l-0.015625 0.09375l-1.015625 0zm-1.25 -0.8125q0.765625 0 1.3125 -0.75l0.265625 -1.515625l-0.46875 0q-0.59375 0 -1.0625 0.21875q-0.453125 0.21875 -0.65625 0.609375q-0.1875 0.390625 -0.125 0.84375q0.078125 0.59375 0.734375 0.59375zm6.1679688 0.9375q-0.984375 -0.046875 -1.375 -0.875l-0.21875 0.75l-0.9375 0l1.5625 -9.0l1.015625 0l-0.640625 3.359375q0.625 -0.84375 1.515625 -0.8125q0.8125 0 1.234375 0.609375q0.421875 0.59375 0.40625 1.71875q-0.03125 0.625 -0.15625 1.40625q-0.109375 0.765625 -0.34375 1.328125q-0.625 1.546875 -2.0625 1.515625zm1.5625 -4.484375q-0.03125 -0.609375 -0.28125 -0.890625q-0.234375 -0.28125 -0.6875 -0.296875q-0.75 -0.015625 -1.3125 0.875l-0.515625 3.03125q0.28125 0.8125 1.03125 0.84375q0.671875 0.03125 1.09375 -0.46875q0.421875 -0.515625 0.546875 -1.625q0.140625 -1.125 0.125 -1.46875zm4.9882812 3.796875q-0.609375 0.703125 -1.515625 0.6875q-0.671875 -0.015625 -1.03125 -0.484375q-0.359375 -0.484375 -0.359375 -1.359375l0.03125 -0.53125l0.671875 -4.09375l1.015625 0l-0.6875 4.109375l-0.015625 0.4375q-0.03125 0.421875 0.125 0.703125q0.171875 0.28125 0.484375 0.296875q0.859375 0.03125 1.40625 -0.84375l0.796875 -4.703125l1.015625 0l-1.09375 6.34375l-0.953125 0l0.109375 -0.5625zm5.6992188 -1.109375q0.078125 -0.5625 -0.625 -0.921875l-0.78125 -0.40625q-0.609375 -0.34375 -0.859375 -0.71875q-0.234375 -0.390625 -0.203125 -0.890625q0.046875 -0.8125 0.65625 -1.328125q0.609375 -0.53125 1.484375 -0.515625q0.859375 0.015625 1.328125 0.5625q0.484375 0.53125 0.453125 1.359375l-1.0 0q0 -0.46875 -0.21875 -0.734375q-0.21875 -0.28125 -0.625 -0.296875q-0.4375 0 -0.734375 0.265625q-0.296875 0.25 -0.359375 0.65625q-0.0625 0.46875 0.46875 0.765625l0.984375 0.515625q1.09375 0.609375 1.046875 1.609375q-0.0625 0.859375 -0.703125 1.375q-0.625 0.515625 -1.53125 0.5q-0.875 -0.015625 -1.421875 -0.578125q-0.546875 -0.5625 -0.515625 -1.453125l1.03125 0.015625q-0.015625 0.546875 0.234375 0.828125q0.25 0.28125 0.71875 0.28125q0.484375 0 0.796875 -0.234375q0.328125 -0.25 0.375 -0.65625zm4.423828 1.796875q-1.0625 -0.015625 -1.59375 -0.765625q-0.53125 -0.765625 -0.390625 -2.078125l0.078125 -0.625q0.1875 -1.46875 0.90625 -2.296875q0.71875 -0.84375 1.828125 -0.8125q0.890625 0.015625 1.34375 0.609375q0.46875 0.59375 0.4375 1.671875l-0.046875 0.703125l-0.09375 0.609375l-3.390625 0q-0.078125 0.515625 -0.078125 0.8125q0.015625 0.59375 0.296875 0.9375q0.28125 0.328125 0.796875 0.34375q0.375 0.015625 0.734375 -0.140625q0.375 -0.171875 0.78125 -0.578125l0.46875 0.65625q-0.375 0.5 -0.921875 0.734375q-0.546875 0.21875 -1.15625 0.21875zm0.765625 -5.703125q-1.046875 -0.046875 -1.453125 1.265625l-0.171875 0.5625l2.4375 0l0.03125 -0.140625q0.03125 -0.28125 0.03125 -0.5625q-0.015625 -1.078125 -0.875 -1.125zm6.0546875 6.46875l-4.453125 0l0.171875 -0.890625l4.4375 0l-0.15625 0.890625zm3.3789062 -1.640625q0.5 0.015625 0.84375 -0.3125q0.34375 -0.328125 0.46875 -0.9375l0.953125 0q-0.125 0.9375 -0.78125 1.546875q-0.65625 0.59375 -1.53125 0.578125q-0.84375 -0.015625 -1.34375 -0.5q-0.5 -0.5 -0.59375 -1.375q-0.0625 -0.53125 0 -1.0625l0.078125 -0.640625q0.203125 -1.46875 0.90625 -2.25q0.71875 -0.78125 1.859375 -0.75q0.875 0.015625 1.359375 0.640625q0.484375 0.625 0.453125 1.65625l-0.96875 0q0.046875 -1.375 -0.90625 -1.421875q-1.375 -0.046875 -1.65625 1.96875q-0.1875 1.25 -0.15625 1.703125q0.0625 1.125 1.015625 1.15625zm4.25 0.75l-1.015625 0l1.5625 -9.0l1.015625 0l-1.5625 9.0zm4.8808594 0q-0.03125 -0.171875 -0.03125 -0.34375l0.015625 -0.34375q-0.671875 0.8125 -1.453125 0.8125q-0.75 0 -1.1875 -0.5q-0.421875 -0.5 -0.375 -1.3125q0.0625 -0.984375 0.8125 -1.5625q0.75 -0.59375 1.96875 -0.59375l0.703125 0l0.09375 -0.6875q0.109375 -1.046875 -0.796875 -1.046875q-0.453125 0 -0.765625 0.28125q-0.3125 0.265625 -0.390625 0.703125l-1.0 0.015625q0.078125 -0.8125 0.734375 -1.34375q0.65625 -0.546875 1.53125 -0.546875q0.859375 0.015625 1.3125 0.53125q0.46875 0.515625 0.375 1.4375l-0.515625 3.109375q-0.046875 0.34375 -0.03125 0.640625l0.03125 0.65625l-0.015625 0.09375l-1.015625 0zm-1.25 -0.8125q0.765625 0 1.3125 -0.75l0.265625 -1.515625l-0.46875 0q-0.59375 0 -1.0625 0.21875q-0.453125 0.21875 -0.65625 0.609375q-0.1875 0.390625 -0.125 0.84375q0.078125 0.59375 0.734375 0.59375zm6.9335938 -0.859375q0.078125 -0.5625 -0.625 -0.921875l-0.78125 -0.40625q-0.609375 -0.34375 -0.859375 -0.71875q-0.234375 -0.390625 -0.203125 -0.890625q0.046875 -0.8125 0.65625 -1.328125q0.609375 -0.53125 1.484375 -0.515625q0.859375 0.015625 1.328125 0.5625q0.484375 0.53125 0.453125 1.359375l-1.0 0q0 -0.46875 -0.21875 -0.734375q-0.21875 -0.28125 -0.625 -0.296875q-0.4375 0 -0.734375 0.265625q-0.296875 0.25 -0.359375 0.65625q-0.0625 0.46875 0.46875 0.765625l0.984375 0.515625q1.09375 0.609375 1.046875 1.609375q-0.0625 0.859375 -0.703125 1.375q-0.625 0.515625 -1.53125 0.5q-0.875 -0.015625 -1.421875 -0.578125q-0.546875 -0.5625 -0.515625 -1.453125l1.03125 0.015625q-0.015625 0.546875 0.234375 0.828125q0.25 0.28125 0.71875 0.28125q0.484375 0 0.796875 -0.234375q0.328125 -0.25 0.375 -0.65625zm5.361328 0q0.078125 -0.5625 -0.625 -0.921875l-0.78125 -0.40625q-0.609375 -0.34375 -0.859375 -0.71875q-0.234375 -0.390625 -0.203125 -0.890625q0.046875 -0.8125 0.65625 -1.328125q0.609375 -0.53125 1.484375 -0.515625q0.859375 0.015625 1.328125 0.5625q0.484375 0.53125 0.453125 1.359375l-1.0 0q0 -0.46875 -0.21875 -0.734375q-0.21875 -0.28125 -0.625 -0.296875q-0.4375 0 -0.734375 0.265625q-0.296875 0.25 -0.359375 0.65625q-0.0625 0.46875 0.46875 0.765625l0.984375 0.515625q1.09375 0.609375 1.046875 1.609375q-0.0625 0.859375 -0.703125 1.375q-0.625 0.515625 -1.53125 0.5q-0.875 -0.015625 -1.421875 -0.578125q-0.546875 -0.5625 -0.515625 -1.453125l1.03125 0.015625q-0.015625 0.546875 0.234375 0.828125q0.25 0.28125 0.71875 0.28125q0.484375 0 0.796875 -0.234375q0.328125 -0.25 0.375 -0.65625z" fill-rule="nonzero"/></g></svg>